<?xml version="1.0" standalone="no"?>
<!DOCTYPE svg PUBLIC "-//W3C//DTD SVG 1.1//EN" "http://www.w3.org/Graphics/SVG/1.1/DTD/svg11.dtd">
<svg xmlns="http://www.w3.org/2000/svg">
<defs >
<font id="Truculenta" horiz-adv-x="476" ><font-face
    font-family="Truculenta Black"
    units-per-em="1000"
    panose-1="0 0 0 0 0 0 0 0 0 0"
    ascent="1050"
    descent="-340"
    alphabetic="0" />
<glyph unicode=" " horiz-adv-x="200" />
<glyph unicode="!" horiz-adv-x="294" d="M103 230Q101 285 99 329T96 411T92 485Q91 511 90 533T88 580T84 634T80 704L214 711Q211 674 209 648T205 601T202 562T199 524T195 478Q193 452 192 427T189 375T187 312T184 232L103 230ZM206 0H84L88 169L196 171L206 0Z" />
<glyph unicode="&quot;" horiz-adv-x="459" d="M245 494Q245 493 245 509T247 551T249 606Q251 644 251 674T251 702L385 697Q386 699 383 687T376 655T366 614Q363 599 360 579T355 541T351 512T349 502L245 494ZM87 489Q88 488 87 504T85 546T82 601Q81 639
78 669T75 697L209 704Q209 705 207 692T202 660T197 619Q196 604 195 584T192 546T191 516T191 505L87 489Z" />
<glyph unicode="#" horiz-adv-x="804" d="M108 3L208 390L273 699L407 696L326 369L244 0L108 3ZM55 140L57 260Q85 259 117 259T184 258T255 258T328 257T399 257Q435 257 467 257T530 257T588 258T643 258T699 260L704 142Q676 143 649 143T593 143T534 143T469
143T396 144Q359 144 322 144T249 144T180 143T115 142T55 140ZM392 2L492 390L554 690L688 682L607 358L528 -2L392 2ZM105 427L96 547Q124 547 157 547T227 546T302 545T377 544T449 544Q485 544 516 544T577 544T634 544T690 545T750 547V428Q719 429 691 429T635
429T579 430T518 430T447 431Q410 431 373 431T300 431T230 429T165 428T105 427Z" />
<glyph unicode="$" horiz-adv-x="500" d="M245 -10Q176 -10 130 12T59 74T35 167Q35 182 37 198T43 231H178Q173 215 171 201T168 175Q168 150 177 132T202 105T241 95Q271 95 288 103T313 126T320 159Q320 177 313 189T291 211T257 230T210 252Q176 268 145 288T88
336T48 402T33 493Q33 552 55 600T126 676T253 705Q309 705 349 691T414 649T452 582T464 495Q464 480 463 464T459 431T454 396H311Q314 423 315 447T317 491Q317 525 311 549T290 585T248 598Q229 598 215 591T192 571T179 541T175 501Q175 467 187 445T222 406T278
375Q313 359 345 341T405 300T447 244T463 164Q463 119 442 80T372 15T245 -10ZM287 -110L215 -109Q217 -76 218 -37T220 54T221 171T222 322Q222 390 222 450T222 564T221 661T220 740T219 800L291 796Q289 770 288 735T285 658T282 571T280 481T279 392T278 311Q278
265 278 220T279 130T281 44T283 -37T287 -110Z" />
<glyph unicode="%" horiz-adv-x="800" d="M153 0Q174 38 199 81T251 172T305 268T359 365Q386 414 412 461T463 552T507 632T542 693L660 692Q641 660 618 621T567 536T512 444T456 348Q429 300 403 253T354 162T309 76T268 0H153ZM194 367Q143 367 110 387T60
446T44 538Q44 586 62 622T114 678T192 699Q243 699 275 678T322 620T337 537Q337 487 319 449T268 389T194 367ZM191 459Q213 459 224 470T240 501T244 543Q244 562 240 578T224 603T191 613Q173 613 161 605T144 580T138 538Q138 498 150 479T191 459ZM613 0Q562
0 529 20T479 79T463 171Q463 219 481 255T533 311T611 332Q662 332 694 311T741 253T756 170Q756 120 738 82T687 22T613 0ZM610 92Q632 92 643 103T659 134T663 176Q663 195 659 211T643 236T610 246Q592 246 580 238T563 213T557 171Q557 131 569 112T610 92Z"
/>
<glyph unicode="&amp;" horiz-adv-x="538" d="M223 -10Q152 -10 102 11T26 75T0 180Q0 227 14 261T50 319T100 361T153 395Q185 415 208 432T247 467T269 508T277 564Q277 580 273 590T262 606T244 612Q229 612 217 598T205 549Q205 503 218 461T258 374T323 275T410
148Q429 120 446 106T480 86T516 80T557 81L544 -8Q484 -17 441 -10T368 19T314 74Q263 149 219 212T142 331T91 438T72 540Q72 599 96 637T162 693T254 712Q301 712 337 697T395 651T416 574Q416 527 401 489T358 420T296 361T222 306Q201 291 186 278T160 250T145
219T140 180Q140 147 152 127T185 98T227 89Q258 89 283 101T329 137T363 198T384 282T391 392L511 380Q511 319 502 262T471 156T417 69T335 11T223 -10Z" />
<glyph unicode="&apos;" horiz-adv-x="283" d="M87 489Q87 488 86 504T84 546T82 601Q81 639 78 669T75 697L209 704Q209 705 207 692T202 660T196 619Q195 604 194 584T192 546T191 516T190 505L87 489Z" />
<glyph unicode="(" horiz-adv-x="396" d="M290 -162Q241 -152 201 -123T132 -42T88 90T72 281Q72 392 87 472T132 604T201 686T290 725L317 626Q279 611 256 581T220 506T203 406T198 281Q198 213 202 157T219 58T255 -16T317 -63L290 -162Z" />
<glyph unicode=")" horiz-adv-x="396" d="M107 725Q156 715 196 686T265 605T309 473T325 282Q325 171 310 91T265 -41T196 -123T107 -162L80 -63Q118 -48 141 -18T177 57T194 157T199 282Q199 350 195 406T178 505T142 579T80 626L107 725Z" />
<glyph unicode="*" horiz-adv-x="588" d="M424 404Q426 403 409 417T365 452T311 493T264 524Q244 536 213 552T150 583T99 608T80 617L145 705Q173 683 193 666T229 635T262 610T296 586Q324 568 347 556T394 534T444 510T509 478L424 404ZM133 389L96 468Q121
484 140 495T178 517T216 540T263 570Q287 585 308 600T350 631T396 667T452 709L491 611Q493 612 474 603T425 580T366 551T316 524Q301 515 278 499T229 463T181 426T145 399T133 389ZM348 336L239 347Q239 345 240 360T244 401T248 456T251 514T253 561Q253
586 251 620T245 687T240 740T238 759L346 752Q346 754 344 735T337 685T331 621T328 562Q328 542 330 513T335 452T341 394T346 351T348 336Z" />
<glyph unicode="+" horiz-adv-x="500" d="M306 105L194 98Q196 128 197 154T199 205T200 253T201 301Q201 327 200 349T198 392T196 434T193 480L304 487Q302 464 301 442T298 398T295 352T294 302Q294 277 295 253T297 206T301 158T306 105ZM68 237L74 342Q86
342 108 341T157 339T211 338T260 338Q282 338 304 339T347 340T390 342T432 345L415 238Q416 238 401 239T362 242T311 245T261 246Q243 246 222 246T179 244T137 242T99 240T68 237Z" />
<glyph unicode="," horiz-adv-x="277" d="M139 -159L90 -125Q119 -90 127 -60T135 1L82 4L80 165L198 172V19Q198 -34 188 -77T139 -159Z" />
<glyph unicode="-" horiz-adv-x="398" d="M75 239L81 341Q81 341 91 341T118 340T156 339T201 338Q224 338 245 338T284 339T311 340T321 341L324 239Q324 239 312 239T281 240T239 240T195 241Q173 241 152 241T113 240T86 240T75 239Z" />
<glyph unicode="." horiz-adv-x="281" d="M202 0H83L80 173L201 180L202 0Z" />
<glyph unicode="/" horiz-adv-x="391" d="M25 -1Q43 47 59 93T89 184T118 274T148 367Q159 402 169 434T188 499T205 564T222 630T238 700L367 698Q357 668 348 637T330 574T310 509T288 440T265 366Q249 317 235 271T206 179T178 90T152 0L25 -1Z" />
<glyph unicode="0" horiz-adv-x="521" d="M252 -10Q184 -10 143 18T80 96T51 209T44 343Q44 395 49 447T69 546T108 629T172 686T268 707Q326 707 364 688T426 633T460 552T474 452T478 342Q478 275 469 212T435 99T366 20T252 -10ZM258 102Q286 102 303 118T329
167T342 246T346 353Q346 417 343 462T331 536T306 578T265 592Q240 592 223 577T196 531T182 452T178 338Q178 244 184 193T207 122T258 102Z" />
<glyph unicode="1" horiz-adv-x="319" d="M138 0Q140 29 140 61T141 128T142 198T143 270T143 342Q143 372 143 408T143 482T142 557T141 621L210 694H283Q282 662 281 628T279 552T278 459T277 341Q277 275 277 226T279 139T280 67T282 0H138ZM19 532L13 636Q28
638 55 642T112 654T169 672T210 694L228 555Q210 548 183 543T125 536T66 533T19 532Z" />
<glyph unicode="2" horiz-adv-x="490" d="M162 75L34 109Q66 138 104 171T180 242T249 321T300 405T319 495Q319 530 311 549T287 577T249 585Q223 585 208 572T185 534T178 476Q178 454 180 431T187 385L60 384Q56 407 54 431T51 478Q51 522 61 562T95 633T159
682T257 700Q303 700 339 688T400 652T439 589T452 500Q452 444 431 391T376 291T303 203T226 130T162 75ZM32 -6L34 109Q71 109 106 109T171 109T224 109T256 110Q272 111 294 111T341 112T390 113T432 115T459 119L460 0Q457 0 437 0T388 0T329 0T276 0T245 0Q244
0 229 0T190 -1T140 -2T89 -4T50 -5T32 -6Z" />
<glyph unicode="3" horiz-adv-x="454" d="M217 -10Q163 -10 125 1T63 35T28 87T17 155H149Q149 142 153 132T166 115T189 105T220 101Q246 101 263 109T289 132T298 170Q299 203 284 218T242 237T180 242Q158 242 145 242T124 242T109 242T94 241V346Q101 346
106 346T119 345T139 345T172 345Q219 345 247 361T287 409T300 487Q300 517 293 538T270 570T227 582Q208 582 196 576T176 560T166 536T162 509L31 510Q31 549 42 582T76 642T136 682T225 697Q287 697 327 682T391 639T423 577T433 501Q433 450 419 412T380 347T324
304Q367 295 390 274T423 224T431 167Q430 117 407 77T337 13T217 -10Z" />
<glyph unicode="4" horiz-adv-x="493" d="M134 189L16 234Q28 261 40 287T64 339T89 393T114 448Q128 480 141 512T167 576T192 639T218 702L398 696Q399 697 383 686T349 657T321 615Q307 585 291 549T257 474T221 393Q206 357 191 322T161 254T134 189ZM32 109L16
234Q32 233 54 232T101 231T152 230T202 230T248 232Q275 233 308 234T374 236T434 238T474 241L475 114Q462 114 435 114T375 114T309 114T250 114Q231 114 203 114T145 112T88 111T47 110T32 109ZM256 -3Q257 51 257 87T259 149T260 191T261 224T261 256Q261
296 261 346T262 454T263 571T261 686L398 696Q397 660 396 620T395 532T394 428T394 306Q394 237 394 188T395 105T396 47T397 0L256 -3Z" />
<glyph unicode="5" d="M224 -10Q167 -10 128 5T64 46T30 108T22 185L154 192Q153 167 159 147T183 116T230 104Q266 104 286 125T315 176T324 235Q324 273 316 298T290 335T244 348Q227 348 213 343T187 326T167 297L114 345Q128 382 149 408T200 449T268 464Q312
464 347 451T406 409T444 339T457 238Q457 190 444 146T403 66T331 11T224 -10ZM167 297L33 293Q33 291 34 311T37 365T40 436T43 505Q44 538 44 573T44 639T44 687T43 703L183 695Q181 668 180 646T178 602T177 556T175 502Q174 472 173 436T171 368T168 315T167
297ZM76 579L42 703Q78 702 101 701T142 700T182 699T240 698Q259 698 286 698T341 697T393 697T425 697L421 579Q411 579 389 579T339 580T286 581T242 581Q206 581 175 581T122 580T87 580T76 579Z" />
<glyph unicode="6" horiz-adv-x="501" d="M257 -10Q172 -10 123 25T54 134T33 321Q33 420 46 494T88 616T159 689T263 713Q338 713 380 688T439 619T457 521Q457 502 456 484T451 445L319 443Q321 459 323 476T325 511Q325 538 319 557T300 587T261 598Q234 598
216 580T188 526T174 442T168 332T166 200Q166 182 170 165T185 135T211 115T252 107Q272 107 287 114T313 134T328 164T333 201Q333 246 314 268T257 291Q232 291 211 282T178 252T166 200L123 251Q129 305 152 339T208 389T278 405Q335 405 377 383T442 316T465
207Q465 162 453 123T415 54T350 7T257 -10Z" />
<glyph unicode="7" horiz-adv-x="398" d="M74 -1Q74 50 77 100T88 198T106 293T132 383Q148 428 170 471T220 553T284 630T361 700V588Q338 553 317 512T280 426T250 330Q238 280 230 226T220 116T222 0L74 -1ZM15 577L14 700Q28 700 49 700T93 699T140 699T183
698Q202 698 228 698T281 698T329 698T361 700L353 581Q342 581 319 581T269 580T215 580T170 579Q152 579 130 579T85 579T44 579T15 577Z" />
<glyph unicode="8" horiz-adv-x="479" d="M232 249Q167 249 123 278T58 356T36 462Q36 540 58 594T126 678T244 707Q316 707 360 680T424 601T445 472Q445 408 423 358T355 278T232 249ZM230 -10Q158 -10 111 13T40 74T16 156Q16 217 42 261T119 329T245 353Q318
353 366 331T439 267T464 164Q464 115 441 76T366 13T230 -10ZM236 94Q289 94 310 114T332 168Q332 209 313 229T240 249Q208 249 188 239T158 210T148 169Q148 135 166 115T236 94ZM240 353Q265 353 281 368T304 409T312 467Q312 517 306 545T285 585T243 597Q203
597 187 567T170 474Q170 435 177 408T201 367T240 353Z" />
<glyph unicode="9" horiz-adv-x="501" d="M229 -10Q163 -10 122 12T61 72T42 152Q42 163 43 175T47 198L179 200Q178 193 177 185T175 168Q175 149 181 135T201 113T237 105Q273 105 292 129T320 201T330 318T332 476Q332 503 328 525T313 563T287 587T246 596Q217
596 199 580T173 535T165 472Q165 435 173 408T197 367T241 352Q267 352 287 364T320 403T332 476L375 392Q369 338 346 304T290 254T220 238Q158 238 117 266T54 345T33 466Q33 531 53 587T120 678T243 713Q328 713 376 678T445 569T465 382Q465 283 452 209T412
87T339 14T229 -10Z" />
<glyph unicode=":" horiz-adv-x="281" d="M202 0H83L80 166L202 179V0ZM202 334H83L80 499L202 512V334Z" />
<glyph unicode=";" horiz-adv-x="279" d="M137 -159L87 -125Q116 -90 124 -60T132 1L82 4L80 165L195 172V19Q195 -34 185 -77T137 -159ZM200 334H87L84 499L200 512V334Z" />
<glyph unicode="&lt;" horiz-adv-x="500" d="M489 496L487 377Q462 370 438 364T390 351T338 337T278 320Q244 311 215 303T157 287T96 271T21 253L18 358Q48 367 74 375T128 390T185 407T253 426Q278 432 305 440T360 457T421 476T489 496ZM487 109Q464 117 434
126T372 146T307 165T247 183Q210 194 182 203T128 220T77 237T21 253L18 358Q44 352 75 344T140 326T210 306T281 286Q314 277 343 269T399 253T447 241T490 230L487 109Z" />
<glyph unicode="=" horiz-adv-x="500" d="M88 109L92 212Q113 212 134 212T175 211T213 211T250 209Q267 208 285 208T323 208T364 210T406 212L411 108Q390 109 367 109T322 110T279 111T244 111Q227 111 209 111T171 111T130 110T88 109ZM88 369L94 472Q115
472 136 472T176 471T215 469T252 468Q269 468 288 468T328 468T367 470T405 471L411 368Q386 368 363 368T318 369T278 369T244 370Q227 370 209 370T171 370T130 369T88 369Z" />
<glyph unicode="&gt;" horiz-adv-x="500" d="M19 109L21 228Q47 235 70 241T118 254T170 268T230 285Q265 294 294 302T351 318T412 334T487 352L490 247Q460 238 434 230T380 215T323 198T255 179Q230 173 203 165T148 148T87 130T19 109ZM21 496Q44 488 74 479T136
459T201 440T261 422Q298 411 326 402T380 385T431 368T487 352L490 247Q465 253 434 261T368 279T298 299T227 319Q194 328 165 336T109 352T61 365T18 375L21 496Z" />
<glyph unicode="?" horiz-adv-x="555" d="M341 213L213 214Q208 238 206 254T203 285Q203 327 219 353T258 397T303 434Q317 446 327 460T344 492T351 535Q351 558 342 572T316 594T280 601Q253 601 237 590T214 559T206 517Q206 495 210 474T220 435L87 436Q80
459 76 481T72 525Q72 564 84 598T122 659T188 701T286 716Q355 716 398 693T463 631T484 543Q484 492 468 458T429 401T384 359Q362 341 346 325T330 286Q330 274 332 257T341 213ZM348 -3L211 0L212 165L336 167L348 -3Z" />
<glyph unicode="@" horiz-adv-x="938" d="M459 -204Q369 -204 291 -176T155 -93T64 46T31 241Q31 318 49 392T105 532T199 647T330 725T500 753Q605 753 681 722T808 637T882 511T906 359Q906 291 891 225T843 106T759 22T637 -10Q585 -10 560 6T527 45T519 89Q502
59 482 37T435 3T372 -10Q341 -10 311 8T262 67T243 172Q243 257 255 322T287 434T335 511T391 555T451 569Q492 569 517 548T552 491L557 545L691 554Q678 464 668 399T651 290T640 217T635 170T633 137Q633 115 635 102T644 84T664 78Q692 78 716 100T760 160T790
247T801 350Q801 410 786 465T736 565T644 635T504 661Q414 661 346 626T231 530T162 394T138 240Q138 148 163 81T235 -30T345 -95T485 -116Q538 -116 596 -106T715 -77L739 -144Q667 -174 597 -189T459 -204ZM419 96Q440 96 458 111T489 158T509 242L518 315Q524
363 522 396T508 446T470 464Q454 464 441 457T416 431T396 382T383 303T378 188Q378 159 381 138T394 107T419 96Z" />
<glyph unicode="A" horiz-adv-x="456" d="M295 -5Q289 50 283 109T270 230T254 349Q247 394 242 435T232 514T223 582T214 638L136 697L324 705Q331 662 338 619T352 533T366 448T381 365Q393 297 405 233T429 111T452 0L295 -5ZM128 114V232L324 229V121L128
114ZM158 6L8 7Q18 56 29 111T51 228T75 355Q85 410 95 467T116 582T136 697L324 705L240 630Q235 600 229 557T217 462T201 351Q192 294 185 235T172 117T158 6Z" />
<glyph unicode="B" horiz-adv-x="451" d="M121 210L117 285Q167 285 201 291T255 315T284 369T293 464Q293 520 283 552T251 597T193 611Q172 611 147 609T90 602L28 713Q66 716 104 717T172 719Q267 719 325 698T411 623T438 467Q438 394 414 345T346 266T245
223T121 210ZM178 -10Q158 -10 133 -10T83 -8T32 -5L98 99Q130 95 159 93T214 90Q236 90 255 92T287 105T300 139Q300 161 288 170T255 180T209 182Q196 182 182 182T153 181T121 179L117 285Q240 286 311 267T414 213T445 132Q445 77 415 46T325 3T178 -10ZM32
-5Q32 -5 32 27T34 112T35 228T36 355Q36 419 35 482T32 597T29 681T28 713L178 704Q178 704 178 679T178 614T177 526T176 434T176 353Q176 319 176 273T177 180T177 93T178 28T179 3L32 -5Z" />
<glyph unicode="C" horiz-adv-x="445" d="M220 -3Q174 -3 142 13T89 58T57 127Q48 158 44 195T37 274T35 362Q35 391 36 419T41 473T48 523T60 568Q74 611 96 642T154 691T238 708Q309 708 347 682T401 607T416 489Q416 458 414 423T408 350H268Q270 384 271 412T274
465T275 510Q275 538 272 557T260 585T236 595Q216 595 205 576T189 518Q187 502 186 482T185 438T184 387T184 330Q184 283 184 247T188 184Q193 147 203 130T236 112Q251 112 259 119T272 142T276 182Q276 190 276 200T274 221L409 223Q411 210 411 197T412 173Q412
115 393 76T331 17T220 -3Z" />
<glyph unicode="D" horiz-adv-x="466" d="M158 -11Q143 -11 124 -11T84 -9T45 -6L103 100Q119 97 138 95T176 93T205 92Q240 92 258 109T284 161T292 245T293 362Q293 423 292 468T283 543T259 587T214 602Q196 602 169 599T114 589L42 695Q83 702 124 705T196
708Q272 708 320 689T395 627T432 517T443 355Q443 276 437 216T415 112T367 42T284 2T158 -11ZM45 -6Q46 34 47 94T48 221T49 350Q49 404 48 468T46 592T42 695L192 691Q191 657 191 623T190 553T190 484T189 416T189 350Q189 325 189 291T189 219T190 141T191
64T192 -4L45 -6Z" />
<glyph unicode="E" horiz-adv-x="412" d="M46 -1Q46 -1 46 18T47 71T48 148T49 241T50 342Q50 406 49 470T46 586T43 670T42 702L192 688Q192 688 192 664T191 600T191 513T190 421T189 341Q189 306 189 261T190 171T190 88T191 27T192 3L46 -1ZM46 -1L114 100L382
95L383 0L46 -1ZM110 180V296L380 293L378 184L110 180ZM101 591L42 702L371 693V592L101 591Z" />
<glyph unicode="F" horiz-adv-x="389" d="M48 4Q48 4 48 35T50 119T51 234T52 361Q52 425 51 486T48 598T45 677T44 707L201 693Q201 693 201 670T200 610T200 528T199 440T198 361Q198 323 198 276T199 181T199 93T200 29T201 4H48ZM112 249V369L367 366L369
252L112 249ZM100 591L44 707L367 698L364 591H100Z" />
<glyph unicode="G" horiz-adv-x="448" d="M29 340Q29 373 30 404T35 464T43 519T57 570Q79 636 122 675T242 714Q309 714 347 690T401 620T417 511Q417 481 414 448T406 377L266 378Q270 419 273 453T276 516Q276 543 272 562T259 591T233 601Q212 601 202 581T185
525Q182 509 181 491T179 452T178 408T178 361Q178 326 178 295T180 238T184 189Q189 151 202 130T243 108Q262 108 274 114T293 134T300 168Q300 173 300 179T298 192L241 190V288L417 286L419 0H354L339 42Q323 20 296 6T219 -8Q171 -8 138 8T84 55T51 127Q43
157 38 191T31 262T29 340Z" />
<glyph unicode="H" horiz-adv-x="491" d="M286 0Q287 35 288 76T290 161T291 245T292 321T293 381Q293 406 293 438T293 508T292 581T292 650T290 706L445 708Q444 675 443 639T440 563T439 479T438 383Q438 330 438 277T438 175T440 81T442 0H286ZM109 290L389
296V177L109 182V290ZM50 2Q51 38 52 80T53 168T54 261T54 353Q54 401 53 449T51 543T49 628T47 694L201 698Q201 676 201 642T200 569T200 490T199 414T198 352Q198 332 198 298T199 223T199 140T200 62T201 3L50 2Z" />
<glyph unicode="I" horiz-adv-x="228" d="M40 702L194 704Q194 704 194 690T192 650T190 587T189 502T188 398Q188 342 188 286T189 178T189 87T190 24T191 1L36 0Q36 0 37 31T39 110T41 213T43 317T44 396Q44 424 44 464T43 548T41 633T40 702Z" />
<glyph unicode="J" horiz-adv-x="407" d="M184 -3Q117 -3 78 21T21 90T4 200Q4 223 5 247T11 299L148 298Q147 278 146 260T143 226T142 194Q142 161 146 143T161 118T187 110Q207 110 218 120T234 148T240 191T241 247Q241 266 241 280T241 308T241 343T240 396Q240
422 240 459T239 539T238 623T235 697L380 699Q379 629 379 550T378 402Q378 368 378 343T378 292T378 231Q378 180 369 137T339 63T279 15T184 -3Z" />
<glyph unicode="K" horiz-adv-x="438" d="M299 1Q272 52 244 98T187 188T129 271Q156 328 182 387T233 503T278 611T315 702L468 705Q450 671 429 630T386 543T343 453T302 368T268 297Q289 264 310 232T356 165T409 91T473 6L299 1ZM42 2Q43 31 43 64T44 132T45
205T46 279T46 353Q46 401 45 451T43 548T41 636T39 704L193 698Q193 676 193 642T192 569T192 490T191 414T190 352Q190 332 190 298T191 223T191 140T192 62T193 3L42 2Z" />
<glyph unicode="L" horiz-adv-x="377" d="M46 -4Q46 -4 46 26T48 107T49 220T50 345Q50 409 49 471T46 584T43 665T42 696L192 703Q192 703 192 678T192 610T191 520T190 425T190 343Q190 308 190 264T190 173T191 89T192 27T192 3L46 -4ZM46 -4L114 100L378 97V-1L46
-4Z" />
<glyph unicode="M" horiz-adv-x="663" d="M44 -1Q45 30 45 70T46 158T46 257T46 360Q46 408 46 455T46 546T46 629T45 702L235 704Q243 662 251 618T268 527T285 436T302 349Q306 327 310 307T317 267T324 231T331 198Q336 221 340 242T347 281T355 317T362 351Q371
393 378 429T392 503T408 588T428 697H620Q619 675 619 638T618 554T618 454T618 345Q618 293 618 242T619 145T620 62T621 -2L481 0Q481 8 481 20T482 50T482 88T482 134T482 188T482 251Q482 277 482 305T482 364T482 428Q477 403 471 374T458 313T445 249Q439
219 433 188T421 127T409 68T398 12L260 18Q253 53 246 84T233 146T221 203T210 256Q204 285 199 311T188 363T177 413Q177 404 177 381T177 325T178 256Q178 226 178 195T179 133T179 77T179 31T180 -1H44Z" />
<glyph unicode="N" horiz-adv-x="498" d="M46 704H187Q190 694 199 669T220 608T247 532T274 454Q285 422 295 394T312 344T324 312Q324 329 324 351T324 398T324 450T322 505Q321 530 321 554T320 601T320 645T319 683T317 715H454Q453 688 453 654T452 582T451
502T449 416Q448 363 448 309T447 203T447 103T445 14L310 7Q304 24 294 50T272 109T247 176T222 242Q215 260 209 276T197 307T187 332T180 349Q180 330 180 311T180 272T180 235T180 199Q181 174 181 150T181 105T182 64T182 29T183 0L49 1Q49 27 49 56T50 117T51
183T51 253Q51 314 51 376T50 497T49 609T46 704Z" />
<glyph unicode="O" horiz-adv-x="453" d="M220 -5Q169 -5 135 12T81 62T50 139Q43 169 40 203T35 277T33 357Q33 385 34 411T37 463T43 511T53 556Q71 624 113 665T232 706Q287 706 322 687T377 631T407 546Q415 506 417 458T420 356Q420 312 418 271T410 192T393
123Q373 65 332 30T220 -5ZM228 111Q240 111 247 117T260 138T268 176Q272 211 272 260T273 359Q273 400 273 440T271 508Q267 552 259 571T229 591Q207 591 196 570T183 504Q182 489 182 471T181 432T181 389T181 346Q181 297 181 251T185 173Q188 151 193 137T206
117T228 111Z" />
<glyph unicode="P" horiz-adv-x="426" d="M127 210V321Q174 316 204 324T252 352T276 403T283 473Q283 524 275 553T248 596T199 609Q186 609 169 608T133 605T95 599L33 712Q56 714 80 715T127 717T169 718Q256 718 313 698T398 626T427 476Q427 378 390 320T285
236T127 210ZM37 -5Q38 35 39 95T40 222T41 352Q41 415 40 482T37 611T33 712L182 702Q181 677 180 645T179 576T178 501T179 425T180 354Q180 329 180 295T180 223T181 147T182 72T183 5L37 -5Z" />
<glyph unicode="Q" horiz-adv-x="453" d="M220 -5Q169 -5 135 12T81 62T50 139Q43 169 40 203T35 277T33 357Q33 385 34 411T37 463T43 511T53 556Q71 624 113 665T232 706Q287 706 322 687T377 631T407 546Q415 506 417 458T420 356Q420 312 418 271T410 192T393
123Q373 65 332 30T220 -5ZM228 111Q240 111 247 117T260 138T268 176Q271 199 272 229T273 293T273 359Q273 400 273 440T271 508Q267 552 259 571T229 591Q207 591 196 570T183 504Q182 489 182 471T181 432T181 389T181 346Q181 313 181 281T182 222T185 173Q189
139 199 125T228 111ZM317 -85L196 155L258 183L424 -19L317 -85Z" />
<glyph unicode="R" horiz-adv-x="452" d="M131 220V331Q171 326 200 334T248 361T277 411T287 478Q287 528 278 556T249 597T199 609Q180 609 154 607T99 599L37 712Q60 714 84 715T131 717T173 718Q259 718 316 699T402 628T431 481Q431 386 394 329T289 246T131
220ZM41 -5Q42 35 43 95T44 222T45 352Q45 415 44 482T41 611T37 712L186 702Q185 682 184 651T183 583T182 505T183 426T184 354Q184 322 184 278T185 185T186 90T187 5L41 -5ZM315 -6Q292 63 266 131T210 274L344 305Q373 231 404 155T481 -3L315 -6Z" />
<glyph unicode="S" horiz-adv-x="441" d="M217 -10Q165 -10 126 2T61 38T21 94T7 167Q7 182 9 198T15 231H150Q145 215 143 201T140 175Q140 150 149 132T174 105T213 95Q243 95 260 103T285 126T292 159Q292 177 285 189T263 211T229 230T182 252Q148 268 117
288T60 336T20 402T5 493Q5 552 27 600T98 676T225 705Q300 705 346 680T414 607T436 495Q436 480 435 464T431 431T426 396H283Q286 423 287 447T289 491Q289 525 283 549T262 585T220 598Q201 598 187 591T164 571T151 541T147 501Q147 467 159 445T194 406T250
375Q285 359 317 341T377 300T419 244T435 164Q435 119 414 80T344 15T217 -10Z" />
<glyph unicode="T" horiz-adv-x="395" d="M122 2Q122 20 122 42T123 94T123 159T124 242T124 345Q124 415 123 477T121 588T118 664T117 692L270 688Q270 688 270 663T270 597T269 511T268 421T268 347Q268 316 268 273T268 183T269 96T270 30T270 4L122 2ZM-12
578L-9 701Q-9 701 11 701T61 701T123 702T180 702Q200 702 228 702T287 702T344 703T387 704T404 704L407 586Q407 586 392 586T351 586T297 585T241 584T193 584Q173 584 147 583T93 582T41 580T3 579T-12 578Z" />
<glyph unicode="U" horiz-adv-x="474" d="M237 -10Q183 -10 147 5T89 48T56 113T45 193Q45 228 45 270T46 355T46 432Q46 477 46 520T46 606T43 696L191 695Q190 662 189 626T188 553T187 485T186 426Q186 397 186 372T185 325T185 285T185 252Q185 204 189 173T205
127T240 112Q258 112 268 122T282 151T288 192T289 239Q289 249 289 269T290 326T290 424Q290 488 289 540T286 634T284 707L433 706Q433 673 433 643T432 580T431 510T430 422Q431 337 431 278T431 195Q431 163 423 127T393 60T333 10T237 -10Z" />
<glyph unicode="V" horiz-adv-x="449" d="M7 704L165 701Q170 646 176 587T190 466T206 347Q211 311 215 277T224 211T232 150Q236 178 240 209T249 274T259 345Q265 388 271 433T284 524T295 613T305 697L454 705Q447 669 438 626T418 536T398 439T379 341Q372
300 364 258T347 172T331 86T316 -1L144 -9Q136 35 128 78T112 163T96 248T81 331Q72 382 63 432T44 530T25 621T7 704Z" />
<glyph unicode="W" horiz-adv-x="752" d="M295 -11L139 -8Q135 15 126 66T104 185T77 329Q67 385 57 440T38 546T22 638T9 707L166 706Q170 668 175 614T186 500T199 380Q203 347 206 316T213 259T218 210T223 173Q228 195 232 219T242 269T252 322T263 377Q274
433 284 486T302 583T316 657H458Q466 606 474 556T491 456T508 360Q513 336 517 312T525 265T534 219T543 175Q546 196 550 230T560 306T571 395Q578 454 585 512T597 618T604 695L755 703Q751 683 745 651T732 579T715 491T697 390Q686 326 674 257T649 120T624
-11L467 -8Q464 8 458 44T443 126T425 223T407 317Q401 348 396 373T388 415T384 439Q382 427 379 410T371 372T362 327Q354 285 345 237T327 142T309 55T295 -11Z" />
<glyph unicode="X" horiz-adv-x="432" d="M-25 -2Q0 45 26 95T78 199T131 305T183 411Q202 449 218 486T250 558T280 627T307 692L457 691Q432 642 406 594T355 497T305 399T256 298Q239 262 223 225T190 151T158 76T125 -1L-25 -2ZM303 -11Q289 26 275 63T245
139T213 215T179 291Q153 348 127 403T75 510T27 606T-16 690L139 688Q151 660 163 631T188 571T214 510T243 447Q263 404 283 360T325 271T368 180T412 87T459 -7L303 -11Z" />
<glyph unicode="Y" horiz-adv-x="398" d="M124 0Q126 36 126 97T125 234L267 224Q267 189 267 159T268 103T270 52T273 1L124 0ZM-30 704H125Q130 676 136 641T150 569T166 496Q173 464 179 436T191 387T199 354Q204 372 210 395T223 447T237 505Q242 529 247
553T258 601T269 649T280 694L433 698Q427 679 419 655T401 603T381 544T361 481Q345 430 329 379T298 282T272 198T253 136L140 137Q132 166 122 202T99 278T74 362T48 448Q38 484 27 519T6 587T-13 649T-30 704Z" />
<glyph unicode="Z" horiz-adv-x="382" d="M17 693Q43 693 67 693T115 693T159 692T200 692Q221 693 247 693T303 694T366 695L365 581Q340 530 319 485T281 402T247 328Q229 288 213 252T181 181T150 111Q164 111 178 111T206 111T236 111Q274 111 295 111T335
113T380 114L379 0Q360 0 340 0T296 1T247 2T191 3Q170 3 144 3T92 3T45 2T11 1L4 111Q43 189 71 247T123 360Q145 410 167 463T217 584Q208 584 197 584T174 584T151 584Q123 584 104 584T71 583T44 582T13 581L17 693Z" />
<glyph unicode="[" horiz-adv-x="443" d="M74 -139Q75 -123 75 -92T77 -19T78 74T79 184T79 303Q79 380 79 451T77 577T76 664T75 692L199 671Q198 608 198 560T197 476T196 409T195 352T194 296Q194 259 194 228T194 166T195 95T197 1T199 -128L74 -139ZM74 -139L102
-24Q109 -23 121 -22T154 -20T204 -17T273 -13T364 -9L356 -130Q284 -132 233 -134T150 -137T99 -138T76 -139T74 -139ZM91 594L75 692Q80 692 94 692T130 693T185 695T259 698T352 702L363 596Q365 596 342 596T283 596T208 595T137 595T91 594Z" />
<glyph unicode="\" horiz-adv-x="391" d="M367 -1L240 0Q227 45 214 89T187 179T158 270T127 366Q115 404 104 439T83 508T63 574T44 637T25 698L154 700Q162 664 170 630T186 564T204 500T223 435T244 367Q259 320 273 275T302 184T333 93T367 -1Z" />
<glyph unicode="]" horiz-adv-x="443" d="M369 -129L245 -108Q246 -29 246 26T248 122T249 197T250 267Q250 304 250 335T250 397T249 468T248 562T245 691L370 702Q369 682 368 640T367 538T366 408T365 260Q365 183 365 112T367 -14T368 -101T369 -129ZM92 -139L81
-33Q80 -33 102 -33T161 -33T236 -32T307 -32T353 -31L369 -129Q364 -129 350 -129T314 -130T259 -132T185 -135T92 -139ZM80 572L88 693Q160 695 210 697T293 700T343 701T366 702T370 702L342 587Q335 586 323 585T290 583T240 580T171 576T80 572Z" />
<glyph unicode="^" horiz-adv-x="472" d="M311 364Q305 380 296 404T275 456T253 511Q243 537 232 561T211 609T191 655T174 699L274 704Q288 676 295 660T308 630T320 602T338 563Q344 549 353 529T374 484T400 429T430 366L311 364ZM159 367L44 372Q55 399 64
420T81 461T99 501T118 546Q133 581 146 617T168 677T176 699L276 704Q274 698 267 678T249 631T229 576T210 522Q203 501 198 483T187 447T175 410T159 367Z" />
<glyph unicode="_" horiz-adv-x="433" d="M47 -129L45 -34Q45 -34 60 -34T101 -35T155 -36T212 -36Q240 -36 271 -35T328 -34T372 -33T389 -32L387 -126Q387 -126 371 -126T330 -125T275 -125T218 -125Q193 -125 164 -126T108 -127T64 -128T47 -129Z" />
<glyph unicode="`" horiz-adv-x="215" d="M174 593Q160 602 146 609T117 624T88 639Q73 647 58 654T26 668T-8 684L42 764Q63 748 85 733T129 704Q151 691 172 678T214 653L174 593Z" />
<glyph unicode="a" horiz-adv-x="387" d="M236 0L240 85L231 384Q230 407 222 415T197 423Q179 423 169 412T158 377Q158 365 160 353T166 326L40 319Q36 334 34 349T32 377Q32 421 50 454T105 507T196 526Q246 526 277 510T327 468T351 409T357 345L354 245L356
0H236ZM144 -9Q104 -9 77 8T37 54T23 122Q23 161 36 187T70 233T118 266T171 293Q186 301 197 309T216 329T227 354T231 384L286 349Q281 314 268 289T237 247T201 218Q185 206 174 195T157 172T151 142Q151 129 154 120T164 105T181 100Q197 100 209 115T228 166T235
264L280 312Q280 245 274 187T253 85T212 16T144 -9Z" />
<glyph unicode="b" horiz-adv-x="429" d="M249 -7Q222 -7 203 6T173 45T155 103T146 175T143 257L180 239Q180 184 184 151T196 103T218 88Q229 88 236 97T247 124T254 162Q256 177 257 201T258 254T259 305T258 342Q257 368 253 386T243 413T224 423Q214 423
204 411T187 370T180 293L143 251Q143 291 145 326T154 392T170 447T193 489T225 516T266 526Q305 526 331 508T372 458T393 383Q397 355 398 322T398 255T393 190T382 132Q366 71 334 32T249 -7ZM164 -2L41 0Q42 15 42 46T44 117T45 199T46 279T46 344Q46 385
46 425T44 506T42 592T38 686L183 690Q183 658 183 625T182 558T181 488T180 416T180 343Q180 310 180 267T180 180T178 100L164 -2Z" />
<glyph unicode="c" horiz-adv-x="402" d="M204 -9Q138 -9 102 20T48 100Q37 132 33 172T29 256Q29 307 34 351T55 430Q69 460 90 481T141 514T213 525Q273 525 310 502T363 438T380 340Q380 327 380 314T377 287L242 290Q243 304 243 317T244 342Q244 369 241
389T230 419T208 430Q191 430 183 417T170 377Q167 357 167 328T166 264Q166 241 166 220T167 182T170 149Q173 120 182 105T210 89Q223 89 231 94T244 109T249 132Q249 140 247 149T242 169H376Q377 161 377 154T377 139Q377 91 358 58T301 8T204 -9Z" />
<glyph unicode="d" horiz-adv-x="423" d="M35 254Q35 300 40 343T56 421Q71 469 100 497T178 526Q193 526 207 522T235 509T257 489Q257 507 257 533T256 589T256 645T255 690L393 696Q390 615 388 548T386 426T385 325Q385 295 385 262T385 193T386 124T388 58T390
0L269 -2L264 59Q254 36 240 21T208 -2T172 -10Q137 -10 113 1T73 35T50 86Q40 121 38 163T35 254ZM171 258Q171 230 171 205T172 160Q175 130 182 113T208 96Q222 96 231 115T244 164Q247 179 248 194T250 227T251 260Q251 289 251 316T248 365Q245 397 237 415T213
434Q202 434 195 427T184 408T176 378Q172 353 172 322T171 258Z" />
<glyph unicode="e" horiz-adv-x="404" d="M210 -12Q153 -12 117 12T60 76Q42 111 35 157T28 256Q28 304 34 346T54 423Q74 471 112 498T214 525Q276 525 312 501T363 433T378 329Q378 305 376 278T370 222L241 304Q242 317 242 329T243 352Q243 375 240 392T230
420T207 430Q189 430 181 418T168 384Q165 363 165 335T165 272Q165 247 165 224T165 182T168 147Q172 119 181 104T212 89Q225 89 232 94T244 108T248 129Q248 138 246 148T241 169H375Q377 159 377 150T378 131Q378 85 358 53T301 5T210 -12ZM65 214L61 314L341
316L370 222Q370 222 349 222T292 222T216 220T135 218T65 214Z" />
<glyph unicode="f" horiz-adv-x="316" d="M2 398L6 514Q6 514 21 514T61 513T112 513T163 512Q186 512 214 512T269 513T313 513T330 514L324 402Q324 402 308 402T266 402T213 402T161 401Q136 401 109 401T57 400T18 399T2 398ZM252 716Q300 716 332 699T380
650T393 573L266 577Q266 602 261 611T244 621Q234 621 229 615T221 597T218 571Q216 520 215 473T213 378T212 272Q212 201 214 139T217 38T219 0L72 -3Q72 -3 73 35T76 135T78 271Q78 316 78 346T78 402T79 457T79 531Q79 566 87 598T115 658T168 700T252 716Z"
/>
<glyph unicode="g" horiz-adv-x="425" d="M191 -166Q145 -166 112 -155T62 -121T44 -69Q44 -64 44 -60T44 -52L158 -36Q157 -40 157 -43T157 -50Q157 -59 161 -65T174 -74T198 -78Q218 -78 228 -69T242 -43T246 -8Q246 18 246 60T246 157T246 277Q246 323 248
358T255 422T265 472T276 516H391Q387 479 385 452T382 400T380 346T379 278Q379 235 379 204T379 146T379 89T379 19Q379 -15 372 -48T344 -108T287 -150T191 -166ZM173 -10Q129 -10 102 16T59 83Q46 121 41 167T36 262Q36 291 38 318T45 371T58 419Q75 467 107
495T189 524Q227 524 251 497T287 410T299 250L246 259Q246 307 245 344T236 403T209 425Q196 425 189 410T178 368Q175 346 174 320T173 264Q173 243 173 224T173 188T175 156Q177 136 180 122T190 99T205 91Q223 91 231 112T243 170T246 257L299 250Q299 233
296 202T285 134T263 65T227 11T173 -10Z" />
<glyph unicode="h" horiz-adv-x="434" d="M40 1Q42 29 43 53T44 104T45 165T46 247Q46 286 46 317T46 379T46 452T45 550T44 690H172Q172 616 172 564T173 475T175 408T177 347T180 277Q180 234 180 197T181 127T183 62T184 1H40ZM395 0L250 1Q252 30 253 51T254
92T255 139T256 208Q256 228 256 247T256 289T256 344Q256 367 254 383T246 408T227 417Q216 417 206 407T188 367T180 277L137 267Q137 312 142 351T157 422T183 476T220 510T270 522Q303 522 330 509T374 459T390 354Q390 322 390 298T390 253T390 212Q390 172
390 144T391 95T393 52T395 0Z" />
<glyph unicode="i" horiz-adv-x="233" d="M191 0L43 2Q45 32 46 62T49 125T50 192T51 267Q51 327 50 374T46 456T43 516L189 515Q188 495 187 459T186 375T185 266Q185 231 185 198T186 132T188 67T191 0ZM187 624L48 615L45 736L187 744V624Z" />
<glyph unicode="j" horiz-adv-x="217" d="M-48 -167L-50 -68Q-17 -68 2 -60T30 -38T42 -3Q45 19 46 55T47 141T44 252Q43 304 41 350T37 438T32 516H176Q175 495 175 464T174 385T174 267Q174 224 174 194T174 142T175 99T175 57T174 4Q173 -45 153 -79T101 -134T29
-163T-48 -167ZM34 615L31 736L173 744V624L34 615Z" />
<glyph unicode="k" horiz-adv-x="417" d="M299 0Q260 66 216 133T122 270Q160 326 188 368T238 447T282 522L427 520Q398 480 372 443T318 367T259 279Q302 212 349 145T456 3L299 0ZM38 1Q38 1 38 14T40 52T42 109T43 182T44 266Q44 310 44 365T44 478T43 583T43
661T43 691H175Q175 691 175 661T175 582T175 476T175 363T175 264Q175 221 175 182T175 109T176 52T177 15T177 1H38Z" />
<glyph unicode="l" horiz-adv-x="220" d="M38 0Q40 31 41 55T44 107T45 172T46 266Q46 317 46 376T44 495T43 606T41 692L178 691Q178 637 178 582T177 473T176 367T175 264Q175 212 175 163T176 75T177 11L38 0Z" />
<glyph unicode="m" horiz-adv-x="642" d="M254 1Q256 30 257 56T258 106T259 155T260 208Q260 228 260 250T260 298T260 356Q260 376 258 389T250 410T231 417Q221 417 211 406T193 364T186 277L143 228Q143 302 150 357T172 448T211 503T270 522Q312 522 337
504T374 458T391 397T395 334T394 281Q394 241 394 204T395 131T397 64T399 1H254ZM46 1Q48 29 49 53T50 104T51 165T52 247Q52 312 52 363T51 452T50 516L178 523Q179 511 179 478T181 394T186 277Q186 220 187 173T189 84T190 1H46ZM594 0L454 13Q456 53 458
83T462 143T465 212Q466 226 466 247T466 297T467 360Q467 380 465 393T458 414T442 421Q431 421 420 410T401 368T394 281L351 232Q351 306 357 361T377 452T416 507T481 526Q514 526 541 511T585 458T601 348Q601 319 601 293T601 248T600 216Q599 174 598 141T597
76T594 0Z" />
<glyph unicode="n" horiz-adv-x="439" d="M399 0L254 1Q256 30 257 51T258 92T259 139T260 208Q260 228 260 247T260 289T260 344Q260 367 258 383T250 408T231 417Q220 417 210 407T192 367T184 277L141 267Q141 312 146 351T161 422T187 476T224 510T274 522Q307
522 334 509T378 459T394 354Q394 322 394 298T394 253T394 212Q394 172 394 144T395 95T397 52T399 0ZM44 1Q46 29 47 53T48 104T49 165T50 247Q50 312 50 363T49 452T48 516L176 523Q177 511 177 478T179 394T184 277Q184 220 185 173T187 84T188 1H44Z" />
<glyph unicode="o" horiz-adv-x="427" d="M207 -10Q143 -10 108 20T57 103Q47 136 44 177T40 266Q40 299 42 328T51 384T67 432Q87 478 125 503T226 529Q279 529 311 506T362 441Q376 407 382 362T388 265Q388 223 384 187T372 119Q361 79 340 50T287 6T207 -10ZM215
94Q231 94 239 110T249 154Q251 168 251 184T251 218T251 259Q250 295 250 323T248 372Q245 401 238 415T215 429Q204 429 198 424T187 408T180 381Q178 367 178 349T177 308T177 259Q177 238 177 220T178 186T180 156Q183 126 191 110T215 94Z" />
<glyph unicode="p" horiz-adv-x="433" d="M41 -166Q43 -132 44 -98T46 -29T48 44T49 121T50 204Q50 243 50 286T49 372T48 452T47 516L181 521L180 459Q191 481 204 496T235 518T274 526Q325 526 351 496T389 414Q397 383 399 344T401 263Q401 228 399 194T389
130T370 74Q352 36 323 13T248 -10Q234 -10 223 -7T202 4T185 21L191 -160L41 -166ZM184 223Q184 177 188 146T201 98T223 82Q238 82 246 95T258 129Q263 154 264 188T265 259Q265 291 265 317T263 363Q261 391 254 405T228 420Q213 420 204 400T189 344T184 259V223Z"
/>
<glyph unicode="q" horiz-adv-x="412" d="M29 256Q29 307 34 353T51 436Q65 477 92 500T165 524Q188 524 205 517T235 494T258 455L257 526L385 529Q384 499 383 469T381 407T380 341T379 272T379 200Q379 164 379 125T380 47T382 -31T384 -103T386 -164L254 -160L251
35Q242 21 229 10T201 -6T169 -12Q136 -12 113 0T74 33T48 84Q37 119 33 163T29 256ZM165 262Q165 231 165 203T168 152Q171 121 180 103T207 85Q221 85 228 98T239 135Q244 160 244 193T245 261Q245 281 244 301T241 340T235 374Q231 396 223 409T203 423Q192
423 185 417T174 399T168 371Q165 349 165 321T165 262Z" />
<glyph unicode="r" horiz-adv-x="365" d="M219 208Q235 260 239 304T244 380Q244 406 239 417T220 429Q202 429 192 408T179 355T175 287L128 244Q128 310 134 358T153 440T181 493T216 523T255 532Q297 532 321 513T356 461T367 384Q367 344 360 300T339 209L219
208ZM32 -2Q34 36 35 65T38 122T39 179T41 246Q42 294 42 335T40 412T37 474T33 521L165 528Q166 498 166 464T169 388T175 287Q175 244 175 208T176 138T177 71T179 0L32 -2Z" />
<glyph unicode="s" horiz-adv-x="378" d="M182 -10Q133 -10 98 6T43 53T24 123Q24 131 25 139T27 155L161 156Q160 149 159 142T158 129Q158 117 161 109T172 95T190 90Q200 90 207 94T218 108T222 130Q222 150 213 162T186 184T143 206Q121 218 100 232T61 265T34
312T23 375Q23 426 45 461T107 515T196 534Q251 534 286 515T339 461T356 379Q356 373 356 366T355 352T353 337H219Q221 350 222 362T224 385Q224 408 217 422T190 436Q182 436 175 431T163 415T158 386Q158 368 162 357T175 338T200 320Q224 307 252 293T305
260T345 213T360 142Q360 93 339 59T278 8T182 -10Z" />
<glyph unicode="t" horiz-adv-x="386" d="M201 -10Q160 -10 131 0T84 31T58 83T49 155Q49 190 50 225T54 298Q56 327 58 355T62 412T65 472T68 536T69 607L216 608Q212 560 209 517T202 436T196 361T191 288Q189 248 188 213T186 146Q186 127 187 113T195 92T213
85Q224 85 230 93T240 115T243 148Q243 166 243 183T241 217T236 250L363 249Q366 232 368 217T371 187T372 158Q372 108 357 70T304 11T201 -10ZM8 396L18 514Q23 514 33 514T55 514T81 514T107 513T129 513Q144 513 171 513T229 514T288 515T335 515T353 516L349
406Q349 406 333 406T292 406T237 405T183 404T143 403Q123 403 100 402T56 399T22 397T8 396Z" />
<glyph unicode="u" horiz-adv-x="422" d="M145 -10Q112 -10 88 5T52 51T39 132Q39 153 39 181T40 243T41 317Q41 344 41 367T42 414T43 463T43 520L175 526Q174 501 173 478T171 429T168 373T164 301Q163 279 162 259T161 220T160 186T160 155Q160 132 163 118T172
97T188 90Q200 90 212 100T235 134T251 201T257 309L316 311Q315 257 308 209T288 120T255 51T207 6T145 -10ZM269 0L259 112Q258 165 258 213T257 309Q257 339 257 372T257 436T257 491T257 529L390 527Q388 491 387 464T384 416T381 373T379 331T378 282Q378
257 378 222T380 148T382 76T383 22T384 0H269Z" />
<glyph unicode="v" horiz-adv-x="383" d="M12 527H152Q156 494 159 467T164 413T170 358T176 297Q180 265 182 241T188 191T195 129Q198 155 200 174T205 211T210 247T215 288Q220 333 224 369T233 439T244 516L378 523Q369 482 361 446T346 377T334 318T324 270Q316
226 309 182T294 91T279 -4L105 0Q100 37 95 72T85 141T74 208T62 276Q56 309 51 337T41 393T28 454T12 527Z" />
<glyph unicode="w" horiz-adv-x="617" d="M113 -2Q106 46 98 98T81 205T64 311Q59 344 54 370T43 421T34 467T24 516H166Q168 489 169 467T172 423T175 380T180 329Q183 295 186 263T191 200T196 143Q199 164 202 185T208 229T213 274Q218 318 222 350T229 410T234
466H399Q402 429 404 401T410 344T415 280Q418 255 420 232T425 186T430 143Q433 161 435 182T440 227T445 276T451 328Q454 357 456 381T461 427T466 471T470 520L606 516Q603 498 599 479T589 435T577 381T564 313Q554 258 544 201T526 92T509 -4L350 0Q349 15
345 49T337 128T327 214Q323 255 320 287T314 332Q311 310 308 280T300 216Q293 164 289 130T281 66T272 2L113 -2Z" />
<glyph unicode="x" horiz-adv-x="345" d="M115 -5L-16 -3Q7 42 23 74T54 136T85 199T124 280Q147 328 162 359T187 414T208 461T231 519H356Q338 480 325 452T300 398T273 340T236 262Q214 216 199 183T171 122T145 65T115 -5ZM243 0Q229 32 216 60T188 117T155
182T113 262Q90 307 74 339T45 398T18 452T-14 516L118 519Q132 486 142 462T163 415T190 360T229 280Q252 234 270 199T304 133T336 72T372 3L243 0Z" />
<glyph unicode="y" horiz-adv-x="398" d="M239 -164L104 -156Q115 -118 126 -80T148 -3T169 74T188 152T206 229T220 304Q228 351 233 386T242 454T250 525H393Q385 491 378 462T363 403T349 344T333 276Q322 229 312 182T292 90T273 0T256 -85T239 -164ZM159
-35Q152 -5 144 24T127 83T110 143T92 205T74 270Q65 301 57 328T40 382T22 441T0 512L148 514Q157 466 163 434T175 373T189 307Q196 273 202 240T215 173T230 101T248 23L159 -35Z" />
<glyph unicode="z" horiz-adv-x="316" d="M108 10L16 111Q25 129 38 154T67 212T99 278Q115 314 132 352T165 426T197 496L297 395Q286 373 271 344T239 281T204 213Q184 172 165 134T132 63T108 10ZM17 -4L16 111Q16 111 34 111T79 111T132 110T175 110Q193 110
215 110T258 111T292 112T306 113L301 0Q301 0 287 0T250 0T203 0T160 0Q142 0 118 0T71 -2T32 -3T17 -4ZM19 395L24 513Q24 513 38 513T73 513T118 513T160 513Q174 513 196 513T240 514T278 515T294 516L297 395Q297 395 281 395T241 396T190 396T144 397Q126
397 105 397T64 396T32 396T19 395Z" />
<glyph unicode="{" horiz-adv-x="543" d="M327 -146Q254 -146 207 -109T159 3Q159 28 164 55T175 109T181 161Q181 181 173 194T152 215T121 225T83 224L71 323Q92 320 112 322T147 331T172 351T181 384Q181 406 176 430T165 478T154 525T149 570Q149 646 195
682T313 719Q345 719 380 711T449 685L419 580Q388 595 366 603T323 612Q299 612 284 596T269 545Q269 532 273 512T284 469T295 421T300 374Q300 335 281 315T226 279Q263 261 282 238T302 177Q302 160 299 138T292 94T284 54T281 27Q281 -10 298 -26T340 -42Q363
-42 386 -33T439 -7L463 -112Q429 -129 394 -137T327 -146Z" />
<glyph unicode="|" horiz-adv-x="237" d="M183 -136L54 -134Q54 -136 54 -111T54 -40T55 62T56 177T57 288Q57 340 57 397T56 507T56 604T55 671T55 693L182 694Q182 696 182 673T180 607T177 511T174 400T173 289Q173 236 174 177T176 61T179 -41T182 -113T183 -136Z" />
<glyph unicode="}" horiz-adv-x="543" d="M230 -146Q199 -146 164 -138T94 -112L124 -7Q155 -22 177 -30T220 -39Q244 -39 259 -23T274 28Q274 41 270 61T259 104T248 152T243 199Q243 238 262 258T317 294Q280 312 261 335T241 396Q241 413 244 435T251 479T259
519T262 546Q262 583 245 599T203 615Q180 615 157 606T104 580L80 685Q115 702 149 710T216 719Q290 719 337 682T384 570Q384 545 379 518T368 464T362 412Q362 392 370 379T391 358T422 348T460 349L472 250Q451 253 431 251T396 242T371 222T362 189Q362 167
367 143T378 95T389 48T394 3Q394 -73 348 -109T230 -146Z" />
<glyph unicode="~" horiz-adv-x="500" d="M58 220L53 308Q73 319 99 328T167 338Q202 338 223 334T262 326T304 321Q351 321 382 331T440 357L444 263Q434 255 401 242T312 228Q289 228 263 232T211 240T161 244Q142 244 121 240T83 231T58 220Z" />
<glyph unicode="&#xa0;" horiz-adv-x="200" />
<glyph unicode="&#xa1;" horiz-adv-x="294" d="M80 -158Q83 -122 85 -96T89 -48T92 -9T95 30T99 76Q101 102 102 126T105 179T108 241T111 321L191 323Q193 269 195 225T199 144T202 70Q203 44 204 21T207 -26T210 -80T214 -150L80 -158ZM99 382L88 544L211 554L207
385L99 382Z" />
<glyph unicode="&#xa2;" horiz-adv-x="500" d="M248 31Q180 31 140 56T80 122Q66 151 59 193T52 282T61 370T87 441Q102 467 124 485T180 514T257 524Q326 524 367 502T426 440T444 341Q444 328 444 314T441 286L306 289Q307 303 307 315T308 339Q308 365 304
385T288 417T252 429Q230 429 218 416T199 382Q194 366 192 338T189 280T191 223T197 182Q202 159 215 144T254 129Q288 129 300 143T312 176Q312 184 310 192T306 208H440Q441 201 441 194T442 179Q442 131 422 98T358 48T248 31ZM287 -45L215 -44Q217 -11 218
19T220 87T221 181T222 322Q222 390 222 431T222 497T221 536T220 567T219 608L291 604Q288 565 286 535T282 475T279 407T278 311Q278 254 278 207T280 119T283 38T287 -45Z" />
<glyph unicode="&#xa3;" horiz-adv-x="500" d="M187 61L63 96Q89 105 104 117T126 147T133 186Q133 221 122 259T95 336T68 416T56 495Q56 559 78 606T146 679T262 706Q330 706 372 684T433 622T452 533Q452 511 449 487T437 436L306 435Q311 456 314 477T318
519Q318 538 312 554T293 581T257 592Q239 592 223 583T196 554T186 498Q186 445 197 402T223 322T249 252T260 184Q260 161 254 141T232 101T187 61ZM76 -4L63 96Q62 96 72 96T102 96T148 95T206 94T270 94Q294 94 317 94T363 96T405 97T442 99L437 -1Q438 -1
426 -1T392 -1T347 -1T299 0T258 0Q221 0 188 0T129 -2T89 -3T76 -4ZM28 241L54 340Q54 340 64 340T90 340T124 339T161 339Q179 339 200 339T247 341T306 343T384 346L365 245Q365 245 360 245T341 246T301 247T231 248Q189 248 152 247T88 245T44 242T28 241Z"
/>
<glyph unicode="&#xa4;" horiz-adv-x="600" d="M293 40Q235 40 194 58T126 109T87 182T75 270Q75 340 102 395T182 484T310 517Q385 517 435 488T510 406T535 284Q535 238 521 194T478 116T402 61T293 40ZM106 -14L24 62L121 162L192 91L106 -14ZM117 390L24 487L107
562L191 458L117 390ZM300 155Q337 155 361 169T397 211T409 276Q409 315 399 343T366 385T306 400Q276 400 256 390T224 362T207 322T201 277Q201 244 211 216T243 172T300 155ZM491 -13L404 93L477 161L573 63L491 -13ZM477 385L405 455L491 561L573 486L477
385Z" />
<glyph unicode="&#xa5;" horiz-adv-x="500" d="M173 0L175 187Q165 224 152 266T125 355T97 448Q83 496 69 542T43 629T19 704H174Q179 676 185 641T199 569T215 496Q222 464 228 436T240 387T248 354Q253 372 259 395T272 447T286 505Q291 529 296 553T307 601T318
649T329 694L482 698Q474 673 462 639T437 565T410 481Q393 427 376 373T343 270T316 184L322 1L173 0ZM52 83L67 179Q88 179 119 179T184 178T250 179Q283 180 318 181T385 184T437 186L423 88Q407 89 380 89T319 89T251 90Q217 90 180 89T109 87T52 83ZM55 215L70
311Q91 311 122 311T187 310T253 311Q286 312 321 313T388 315T440 317L426 219Q410 220 383 220T322 221T254 222Q220 222 183 221T112 219T55 215Z" />
<glyph unicode="&#xa6;" horiz-adv-x="237" d="M57 352Q57 414 57 475T56 586T56 666T55 693L182 694Q182 697 181 668T179 588T176 476T173 352H57ZM54 -134Q54 -109 54 -60T55 53T57 187H174Q175 128 176 70T179 -36T182 -111T183 -136L54 -134Z" />
<glyph unicode="&#xa7;" horiz-adv-x="448" d="M224 701Q282 701 321 682T380 625T400 531Q400 519 399 507T397 482T392 457H263Q266 469 267 484T269 518Q269 547 264 566T248 595T221 605Q206 605 196 597T180 572T174 529Q174 513 180 500T201 475T240 451Q284
429 315 411T365 374T393 332T402 274Q402 237 386 211T341 170T276 151T198 154L186 263Q190 247 204 241T234 235T263 246T275 271Q275 285 265 295T239 313T200 333Q160 353 131 372T82 414T54 465T45 533Q45 583 67 620T130 679T224 701ZM223 -109Q166 -109
127 -90T67 -32T47 61Q47 74 48 86T51 110T55 135H184Q181 123 180 108T178 74Q178 46 183 27T200 -3T226 -13Q242 -13 252 -5T267 21T273 63Q273 79 267 92T246 117T207 141Q163 163 132 182T82 221T54 263T45 314Q45 354 61 383T106 429T171 449T249 438L261
329Q257 345 243 352T213 360T184 350T172 321Q172 308 184 296T219 272T273 246Q304 232 333 209T382 150T402 59Q402 10 380 -28T317 -87T223 -109Z" />
<glyph unicode="&#xa8;" horiz-adv-x="355" d="M333 624L228 629L224 723L332 726L333 624ZM128 624L24 629L20 723L128 726V624Z" />
<glyph unicode="&#xa9;" horiz-adv-x="727" d="M346 42Q272 42 216 66T123 134T67 240T48 374Q48 456 71 521T136 633T238 704T371 729Q447 729 504 706T601 639T659 536T679 404Q679 314 656 246T589 133T484 65T346 42ZM360 181Q315 181 290 203T253 263Q245
289 242 320T239 388Q239 429 243 463T257 523Q271 559 297 578T366 598Q410 598 435 580T471 529T482 454Q482 444 482 433T480 410L391 413Q392 427 392 438T393 460Q393 483 391 498T382 522T363 530Q347 530 340 517T330 480Q329 467 329 452T328 420Q328 392
328 368T329 323Q331 289 338 271T364 252Q376 252 383 256T393 270T396 290Q396 295 396 300T394 312T391 325H479Q480 320 480 316T480 306Q480 269 468 241T430 197T360 181ZM352 128Q403 128 443 144T512 194T555 276T570 389Q570 455 557 503T519 582T455
628T367 643Q313 643 275 625T213 578T176 515T157 446T152 383Q152 317 163 269T199 190T262 144T352 128Z" />
<glyph unicode="&#xaa;" horiz-adv-x="364" d="M60 530Q60 553 72 566T103 586T142 598Q160 603 176 607T202 616T212 628Q212 641 205 647T177 653Q146 653 140 642T136 618L69 623Q67 658 96 680T182 703Q215 703 238 695T275 669T288 624V545Q288 535 291 522T305
500L245 472Q233 480 226 488T215 506Q199 489 177 481T133 472Q114 472 98 478T71 498T60 530ZM135 535Q135 529 140 525T156 520Q167 520 180 524T202 538T211 566V577Q202 573 187 569T158 558Q148 554 142 549T135 535Z" />
<glyph unicode="&#xab;" horiz-adv-x="766" d="M80 215L82 321Q103 335 123 348T164 374T205 402Q226 417 246 432T286 462T327 494L387 409Q365 397 344 384T302 358T258 331Q228 313 199 293T140 254T80 215ZM326 34Q306 51 285 67T243 99T201 130Q182 145 162
159T121 187T80 215L82 321Q104 306 125 291T168 259T211 228T255 197Q278 182 299 168T341 140T385 113L326 34ZM380 215L382 321Q403 335 423 348T464 374T505 402Q526 417 546 432T586 462T627 494L687 409Q665 397 644 384T602 358T558 331Q528 313 499 293T440
254T380 215ZM626 34Q606 51 585 67T543 99T501 130Q482 145 462 159T421 187T380 215L382 321Q404 306 425 291T468 259T511 228T555 197Q578 182 599 168T641 140T685 113L626 34Z" />
<glyph unicode="&#xac;" horiz-adv-x="550" d="M31 292L23 397Q56 396 83 396T133 396T177 396T221 396T269 395Q285 395 306 395T352 394T404 394T461 395T521 397L512 291Q485 292 458 293T404 294T354 295T311 295T277 296Q254 297 233 297T189 296T143 295T92
293T31 292ZM418 133Q418 154 418 173T419 214T420 267Q420 293 420 306T419 331T416 369L521 397Q521 377 521 361T520 324T519 275Q519 248 519 226T521 183T523 137L418 133Z" />
<glyph unicode="&#xad;" horiz-adv-x="398" d="M75 239L81 341Q81 341 91 341T118 340T156 339T201 338Q224 338 245 338T284 339T311 340T321 341L324 239Q324 239 312 239T281 240T239 240T195 241Q173 241 152 241T113 240T86 240T75 239Z" />
<glyph unicode="&#xae;" horiz-adv-x="470" d="M217 210Q166 210 127 227T62 277T23 353T10 452Q10 514 25 564T71 650T145 705T247 724Q299 724 339 707T406 660T446 588T460 496Q460 430 444 377T397 287T321 230T217 210ZM232 276Q268 276 295 290T340 330T366
394T375 476Q375 524 367 557T341 612T296 643T231 653Q182 653 154 634T112 584T94 522T90 465Q90 416 98 380T124 321T168 287T232 276ZM256 320Q252 343 247 367T233 416Q228 415 223 415T212 413Q212 391 212 369T213 324L160 320Q161 345 161 387T162 467Q162
493 162 520T160 573T158 615Q168 616 176 616T193 617T210 617Q260 617 285 598T311 520Q311 491 303 471T278 437Q287 409 297 381T317 321L256 320ZM212 456Q230 457 240 464T254 485T259 519Q259 540 256 552T243 569T218 574Q217 574 216 574T212 574Q212
558 212 539T211 502T212 468Q212 465 212 462T212 456Z" />
<glyph unicode="&#xaf;" horiz-adv-x="306" d="M31 630V715L270 712L275 633L31 630Z" />
<glyph unicode="&#xb0;" horiz-adv-x="333" d="M169 494Q126 494 102 506T66 536T53 570T50 593Q50 646 81 678T166 710Q219 710 251 682T283 609Q283 559 251 527T169 494ZM170 541Q191 541 203 550T221 575T227 611Q227 637 207 650T166 663Q147 663 134 655T113
632T106 603Q106 589 111 575T130 551T170 541Z" />
<glyph unicode="&#xb1;" horiz-adv-x="500" d="M311 235L201 229Q203 248 203 269T204 314T205 360T205 408Q205 433 205 456T204 500T202 539T200 573L309 577Q308 562 307 544T305 504T303 459T302 409Q302 384 302 361T304 317T307 275T311 235ZM74 85L70 189Q86
188 108 187T154 186T203 186T250 187Q272 188 298 188T351 190T401 191T440 192L436 88Q422 88 401 88T354 88T304 89T258 89Q238 89 212 89T158 87T109 86T74 85ZM69 345L71 449Q81 449 98 449T137 449T182 448T227 448T266 448Q288 448 312 448T360 450T405
451T444 452L436 346Q425 346 406 347T364 348T315 350T267 351Q249 351 227 351T182 349T137 348T98 346T69 345Z" />
<glyph unicode="&#xb2;" horiz-adv-x="321" d="M141 589L63 612Q101 624 127 639T168 673T182 715Q182 730 178 736T164 743Q155 743 150 736T145 714Q145 709 146 703T148 690L64 687Q63 694 62 700T61 714Q61 752 85 778T165 805Q221 805 245 782T270 724Q270
693 251 666T202 619T141 589ZM62 556L63 612Q69 612 82 612T112 612T144 612T170 612Q194 612 215 612T251 613T273 614L274 554Q245 555 226 555T193 555T165 555Q154 555 139 555T105 556T62 556Z" />
<glyph unicode="&#xb3;" horiz-adv-x="321" d="M155 560Q126 560 103 565T68 586T54 629H140Q140 623 145 619T161 615Q172 615 176 619T180 631Q180 639 174 642T153 645Q148 645 141 645T124 645T104 645V685Q119 685 131 685T155 686Q165 686 172 689T183 701T187
722Q187 731 182 737T165 743Q153 743 149 737T144 721Q144 718 144 715T146 709L61 705Q60 710 60 715T59 725Q59 762 88 784T165 806Q215 806 239 786T264 733Q264 707 250 692T213 668Q236 665 248 653T260 622Q260 592 230 576T155 560Z" />
<glyph unicode="&#xb4;" horiz-adv-x="215" d="M46 593L6 653Q20 661 34 669T62 686T91 704Q106 714 120 723T149 743T178 764L228 684Q211 676 195 669T163 654T132 639Q118 632 104 625T75 610T46 593Z" />
<glyph unicode="&#xb5;" horiz-adv-x="422" d="M31 -164Q32 -94 33 -46T34 36T35 91T36 132Q36 141 36 169T37 238T38 323T39 413T39 493T40 550L172 556Q171 522 170 488T166 412T161 316Q160 287 159 261T158 212T157 170Q157 145 159 127T169 100T190 90Q211
90 225 110T246 182T254 324Q254 356 254 386T254 446T254 505T254 568L387 566Q385 530 384 499T381 441T378 387T376 335T375 282Q375 257 375 222T377 148T379 76T380 22T381 0H266L261 56Q246 25 227 8T179 -10Q161 -10 150 -4T133 12Q134 -31 134 -75T135
-163L31 -164Z" />
<glyph unicode="&#xb6;" horiz-adv-x="600" d="M319 193Q235 191 178 204T88 249T40 330T25 450Q25 541 41 599T94 686T194 715Q215 715 240 715T292 714T341 713T378 710L319 193ZM251 -113Q253 -59 254 -7T257 95T258 189T259 267T260 326T261 359Q261 394 261
440T259 533T257 619T256 681T255 703L378 710Q378 713 378 683T377 602T376 487T375 357Q375 305 375 243T375 119T375 8T375 -72T375 -100L251 -113ZM428 -113Q429 -56 430 -5T431 92T431 177T431 250T430 311T430 359Q430 404 430 437T430 497T431 553T431 618T431
703L547 710Q550 710 550 680T548 599T546 486T544 357Q544 305 545 244T547 122T550 11T551 -69T548 -100L428 -113Z" />
<glyph unicode="&#xb7;" horiz-adv-x="285" d="M206 217L84 219L80 385L204 393L206 217Z" />
<glyph unicode="&#xb8;" horiz-adv-x="301" d="M110 -172Q89 -172 71 -170T33 -167L50 -106Q55 -107 69 -108T101 -109T134 -110Q156 -110 168 -107T180 -99Q180 -91 156 -86T84 -82L106 -32Q185 -31 226 -47T267 -98Q267 -126 244 -142T185 -165T110 -172ZM180
0L155 -82H84L108 0H180Z" />
<glyph unicode="&#xb9;" horiz-adv-x="321" d="M140 567Q142 595 143 621T144 676T143 736L176 801H236Q234 759 234 724T233 652T235 567H140ZM71 696L65 754Q76 753 98 759T143 776T176 801L201 716Q184 708 159 703T110 696T71 696Z" />
<glyph unicode="&#xba;" horiz-adv-x="353" d="M175 469Q138 469 112 484T73 526T60 590Q60 623 74 648T115 688T180 703Q217 703 242 690T281 652T294 590Q294 553 280 526T240 484T175 469ZM175 528Q189 528 198 534T211 554T216 593Q216 618 209 632T179 647Q156
647 147 632T138 589Q138 558 146 543T175 528Z" />
<glyph unicode="&#xbb;" horiz-adv-x="766" d="M685 207Q663 222 642 237T599 269T556 300T512 331Q478 354 447 375T382 415L441 494Q471 469 503 445T566 398Q595 376 626 355T687 313L685 207ZM385 207Q363 222 342 237T299 269T256 300T212 331Q178 354 147
375T82 415L141 494Q171 469 203 445T266 398Q295 376 326 355T387 313L385 207ZM440 34L380 119Q413 138 444 157T509 197Q554 225 597 255T687 313L685 207Q654 187 623 167T562 126Q531 104 501 81T440 34ZM140 34L80 119Q113 138 144 157T209 197Q254 225 297
255T387 313L385 207Q354 187 323 167T262 126Q231 104 201 81T140 34Z" />
<glyph unicode="&#xbc;" horiz-adv-x="725" d="M100 7Q126 49 152 91T204 176T255 261T306 347Q332 392 356 436T405 525T452 614T500 704L628 688Q602 643 575 599T522 510T469 422T418 332Q387 276 355 220T292 107T228 -7L100 7ZM172 462Q174 485 175 506T176
549T176 595Q155 591 135 591T103 591L97 649Q108 648 130 654T175 671T208 696H268Q266 654 266 619T265 547T267 462H172ZM535 -1V40L430 39L425 98L459 166Q467 184 476 202T492 236L611 235Q611 219 611 189T610 127V99L643 100V40H611V0L535 -1ZM503 97H536V182L503
97Z" />
<glyph unicode="&#xbd;" horiz-adv-x="725" d="M100 7Q126 49 152 91T204 176T255 261T306 347Q332 392 356 436T405 525T452 614T500 704L628 688Q602 643 575 599T522 510T469 422T418 332Q387 276 355 220T292 107T228 -7L100 7ZM438 1L439 57Q477 69 503 84T544
118T558 160Q558 175 554 181T540 188Q531 188 526 181T521 159Q521 154 522 148T524 135L440 132Q439 139 438 145T437 159Q437 197 461 223T541 250Q597 250 621 227T646 169Q646 146 636 126T608 88T568 57Q589 57 605 57T632 58T649 59L650 -1L541 0Q530 0
515 0T481 1T438 1ZM172 462Q174 485 175 506T176 549T176 595Q155 591 135 591T103 591L97 649Q108 648 130 654T175 671T208 696H268Q266 654 266 619T265 547T267 462H172Z" />
<glyph unicode="&#xbe;" horiz-adv-x="725" d="M100 7Q126 49 152 91T204 176T255 261T306 347Q332 392 356 436T405 525T452 614T500 704L628 688Q602 643 575 599T522 510T469 422T418 332Q387 276 355 220T292 107T228 -7L100 7ZM195 456Q166 456 143 461T108
482T94 525H180Q180 519 185 515T201 511Q212 511 216 515T220 527Q220 535 214 538T193 541Q188 541 181 541T164 541T144 541V581Q159 581 171 581T195 582Q205 582 212 585T223 597T227 618Q227 627 222 633T205 639Q193 639 189 633T184 617Q184 614 184 611T186
605L101 601Q100 606 100 611T99 621Q99 658 128 680T205 702Q255 702 279 682T304 629Q304 603 290 588T253 564Q276 561 288 549T300 518Q300 488 270 472T195 456ZM535 -1V40L430 39L425 98L459 166Q467 184 476 202T492 236L611 235Q611 219 611 189T610 127V99L643
100V40H611V0L535 -1ZM503 97H536V182L503 97Z" />
<glyph unicode="&#xbf;" horiz-adv-x="555" d="M215 338L343 337Q348 313 350 297T353 266Q353 224 337 198T298 154T253 117Q240 106 229 92T212 59T205 16Q205 -6 214 -21T240 -43T276 -50Q303 -50 319 -39T342 -8T350 34Q350 56 346 77T336 116L469 115Q477
93 480 71T484 26Q484 -13 472 -47T434 -108T368 -150T270 -165Q202 -165 158 -142T93 -80T72 8Q72 59 88 93T127 151T172 192Q187 204 199 215T219 238T226 265Q226 277 224 294T215 338ZM345 551L344 386L220 384L208 554L345 551Z" />
<glyph unicode="&#xc0;" horiz-adv-x="456" d="M295 -5Q289 50 283 109T270 230T254 349Q247 394 242 435T232 514T223 582T214 638L136 697L324 705Q331 662 338 619T352 533T366 448T381 365Q393 297 405 233T429 111T452 0L295 -5ZM128 114V232L324 229V121L128
114ZM158 6L8 7Q18 56 29 111T51 228T75 355Q85 410 95 467T116 582T136 697L324 705L240 630Q235 600 229 557T217 462T201 351Q192 294 185 235T172 117T158 6ZM288 726Q274 735 260 742T231 757T202 772Q187 780 172 787T140 801T106 817L156 897Q177 881 199
866T243 837Q265 824 286 811T328 786L288 726Z" />
<glyph unicode="&#xc1;" horiz-adv-x="456" d="M295 -5Q289 50 283 109T270 230T254 349Q247 394 242 435T232 514T223 582T214 638L136 697L324 705Q331 662 338 619T352 533T366 448T381 365Q393 297 405 233T429 111T452 0L295 -5ZM128 114V232L324 229V121L128
114ZM158 6L8 7Q18 56 29 111T51 228T75 355Q85 410 95 467T116 582T136 697L324 705L240 630Q235 600 229 557T217 462T201 351Q192 294 185 235T172 117T158 6ZM181 724L141 784Q161 796 182 808T226 835Q241 845 255 854T284 874T313 895L363 815Q346 807 330
800T298 785T267 770Q253 763 239 756T210 741T181 724Z" />
<glyph unicode="&#xc2;" horiz-adv-x="456" d="M295 -5Q289 50 283 109T270 230T254 349Q247 394 242 435T232 514T223 582T214 638L136 697L324 705Q331 662 338 619T352 533T366 448T381 365Q393 297 405 233T429 111T452 0L295 -5ZM128 114V232L324 229V121L128
114ZM158 6L8 7Q18 56 29 111T51 228T75 355Q85 410 95 467T116 582T136 697L324 705L240 630Q235 600 229 557T217 462T201 351Q192 294 185 235T172 117T158 6ZM355 741L237 795L116 740L83 787L181 860L293 858L384 789L355 741Z" />
<glyph unicode="&#xc3;" horiz-adv-x="456" d="M295 -5Q289 50 283 109T270 230T254 349Q247 394 242 435T232 514T223 582T214 638L136 697L324 705Q331 662 338 619T352 533T366 448T381 365Q393 297 405 233T429 111T452 0L295 -5ZM128 114V232L324 229V121L128
114ZM158 6L8 7Q18 56 29 111T51 228T75 355Q85 410 95 467T116 582T136 697L324 705L240 630Q235 600 229 557T217 462T201 351Q192 294 185 235T172 117T158 6ZM152 752H84Q83 785 97 804T131 831T172 840Q207 840 231 831T278 822Q293 822 300 826T311 840H377Q379
800 365 782T330 758T289 752Q255 752 230 761T182 770Q167 770 161 767T152 752Z" />
<glyph unicode="&#xc4;" horiz-adv-x="456" d="M295 -5Q289 50 283 109T270 230T254 349Q247 394 242 435T232 514T223 582T214 638L136 697L324 705Q331 662 338 619T352 533T366 448T381 365Q393 297 405 233T429 111T452 0L295 -5ZM128 114V232L324 229V121L128
114ZM158 6L8 7Q18 56 29 111T51 228T75 355Q85 410 95 467T116 582T136 697L324 705L240 630Q235 600 229 557T217 462T201 351Q192 294 185 235T172 117T158 6ZM69 846L177 849V747L73 752L69 846ZM273 846L381 849L382 747L277 752L273 846Z" />
<glyph unicode="&#xc5;" horiz-adv-x="456" d="M295 -5Q289 50 283 109T270 230T254 349Q247 394 242 435T232 514T223 582T214 638L136 697L324 705Q331 662 338 619T352 533T366 448T381 365Q393 297 405 233T429 111T452 0L295 -5ZM128 114V232L324 229V121L128
114ZM158 6L8 7Q18 56 29 111T51 228T75 355Q85 410 95 467T116 582T136 697L324 705L240 630Q235 600 229 557T217 462T201 351Q192 294 185 235T172 117T158 6ZM229 732Q197 732 175 740T140 765T128 803Q128 838 155 855T229 873Q274 873 300 855T327 807Q327
774 300 753T229 732ZM229 778Q233 778 240 780T254 788T261 806Q261 817 251 823T227 829Q213 829 204 824T194 804Q194 797 198 791T209 782T229 778Z" />
<glyph unicode="&#xc6;" horiz-adv-x="642" d="M-38 1Q-27 30 -11 70T23 159T61 257T100 356Q129 431 153 498T196 619T225 702L617 693V592L437 591Q437 562 437 529T436 463T435 398T435 341V295L626 293L624 184L436 181L437 99L628 95L629 0L292 -6L294 132L160
126Q150 95 139 64T117 0L-38 1ZM296 222L297 342Q297 357 297 385T296 447T294 515Q283 485 274 458T255 404T235 349Q224 318 213 287T191 224L296 222Z" />
<glyph unicode="&#xc7;" horiz-adv-x="445" d="M220 -3Q174 -3 142 13T89 58T57 127Q48 158 44 195T37 274T35 362Q35 391 36 419T41 473T48 523T60 568Q74 611 96 642T154 691T238 708Q309 708 347 682T401 607T416 489Q416 458 414 423T408 350H268Q270 384
271 412T274 465T275 510Q275 538 272 557T260 585T236 595Q216 595 205 576T189 518Q187 502 186 482T185 438T184 387T184 330Q184 283 184 247T188 184Q193 147 203 130T236 112Q251 112 259 119T272 142T276 182Q276 190 276 200T274 221L409 223Q411 210 411
197T412 173Q412 115 393 76T331 17T220 -3ZM186 -172Q165 -172 147 -170T109 -167L126 -106Q131 -107 145 -108T177 -109T210 -110Q232 -110 244 -107T256 -99Q256 -91 232 -86T160 -82L182 -32Q261 -31 302 -47T343 -98Q343 -126 320 -142T261 -165T186 -172ZM256
0L231 -82H160L184 0H256Z" />
<glyph unicode="&#xc8;" horiz-adv-x="412" d="M46 -1Q46 -1 46 18T47 71T48 148T49 241T50 342Q50 406 49 470T46 586T43 670T42 702L192 688Q192 688 192 664T191 600T191 513T190 421T189 341Q189 306 189 261T190 171T190 88T191 27T192 3L46 -1ZM46 -1L114
100L382 95L383 0L46 -1ZM110 180V296L380 293L378 184L110 180ZM101 591L42 702L371 693V592L101 591ZM273 726Q259 735 245 742T216 757T187 772Q172 780 157 787T125 801T91 817L141 897Q162 881 184 866T228 837Q250 824 271 811T313 786L273 726Z" />
<glyph unicode="&#xc9;" horiz-adv-x="412" d="M46 -1Q46 -1 46 18T47 71T48 148T49 241T50 342Q50 406 49 470T46 586T43 670T42 702L192 688Q192 688 192 664T191 600T191 513T190 421T189 341Q189 306 189 261T190 171T190 88T191 27T192 3L46 -1ZM46 -1L114
100L382 95L383 0L46 -1ZM110 180V296L380 293L378 184L110 180ZM101 591L42 702L371 693V592L101 591ZM166 724L126 784Q146 796 167 808T211 835Q226 845 240 854T269 874T298 895L348 815Q331 807 315 800T283 785T252 770Q238 763 224 756T195 741T166 724Z"
/>
<glyph unicode="&#xca;" horiz-adv-x="412" d="M46 -1Q46 -1 46 18T47 71T48 148T49 241T50 342Q50 406 49 470T46 586T43 670T42 702L192 688Q192 688 192 664T191 600T191 513T190 421T189 341Q189 306 189 261T190 171T190 88T191 27T192 3L46 -1ZM46 -1L114
100L382 95L383 0L46 -1ZM110 180V296L380 293L378 184L110 180ZM101 591L42 702L371 693V592L101 591ZM340 741L222 795L101 740L68 787L166 860L278 858L369 789L340 741Z" />
<glyph unicode="&#xcb;" horiz-adv-x="412" d="M46 -1Q46 -1 46 18T47 71T48 148T49 241T50 342Q50 406 49 470T46 586T43 670T42 702L192 688Q192 688 192 664T191 600T191 513T190 421T189 341Q189 306 189 261T190 171T190 88T191 27T192 3L46 -1ZM46 -1L114
100L382 95L383 0L46 -1ZM110 180V296L380 293L378 184L110 180ZM101 591L42 702L371 693V592L101 591ZM54 846L162 849V747L58 752L54 846ZM258 846L366 849L367 747L262 752L258 846Z" />
<glyph unicode="&#xcc;" horiz-adv-x="228" d="M40 702L194 704Q194 704 194 690T192 650T190 587T189 502T188 398Q188 342 188 286T189 178T189 87T190 24T191 1L36 0Q36 0 37 31T39 110T41 213T43 317T44 396Q44 424 44 464T43 548T41 633T40 702ZM176 726Q162
735 148 742T119 757T90 772Q75 780 60 787T28 801T-6 817L44 897Q65 881 87 866T131 837Q153 824 174 811T216 786L176 726Z" />
<glyph unicode="&#xcd;" horiz-adv-x="228" d="M40 702L194 704Q194 704 194 690T192 650T190 587T189 502T188 398Q188 342 188 286T189 178T189 87T190 24T191 1L36 0Q36 0 37 31T39 110T41 213T43 317T44 396Q44 424 44 464T43 548T41 633T40 702ZM69 724L29
784Q49 796 70 808T114 835Q129 845 143 854T172 874T201 895L251 815Q234 807 218 800T186 785T155 770Q141 763 127 756T98 741T69 724Z" />
<glyph unicode="&#xce;" horiz-adv-x="228" d="M40 702L194 704Q194 704 194 690T192 650T190 587T189 502T188 398Q188 342 188 286T189 178T189 87T190 24T191 1L36 0Q36 0 37 31T39 110T41 213T43 317T44 396Q44 424 44 464T43 548T41 633T40 702ZM243 741L125
795L4 740L-29 787L69 860L181 858L272 789L243 741Z" />
<glyph unicode="&#xcf;" horiz-adv-x="228" d="M40 702L194 704Q194 704 194 690T192 650T190 587T189 502T188 398Q188 342 188 286T189 178T189 87T190 24T191 1L36 0Q36 0 37 31T39 110T41 213T43 317T44 396Q44 424 44 464T43 548T41 633T40 702ZM-43 846L65
849V747L-39 752L-43 846ZM161 846L269 849L270 747L165 752L161 846Z" />
<glyph unicode="&#xd0;" horiz-adv-x="466" d="M-6 304L-1 400Q11 400 33 400T85 399T146 397Q180 396 210 397T257 400L259 304Q246 305 226 305T183 305T140 306Q83 306 46 306T-6 304ZM158 -11Q143 -11 124 -11T84 -9T45 -6L103 100Q119 97 138 95T176 93T205
92Q240 92 258 109T284 161T292 245T293 362Q293 423 292 468T283 543T259 587T214 602Q196 602 169 599T114 589L42 695Q83 702 124 705T196 708Q272 708 320 689T395 627T432 517T443 355Q443 276 437 216T415 112T367 42T284 2T158 -11ZM45 -6Q46 34 47 94T48
221T49 350Q49 404 48 468T46 592T42 695L192 691Q191 657 191 623T190 553T190 484T189 416T189 350Q189 325 189 291T189 219T190 141T191 64T192 -4L45 -6Z" />
<glyph unicode="&#xd1;" horiz-adv-x="498" d="M46 704H187Q190 694 199 669T220 608T247 532T274 454Q285 422 295 394T312 344T324 312Q324 329 324 351T324 398T324 450T322 505Q321 530 321 554T320 601T320 645T319 683T317 715H454Q453 688 453 654T452
582T451 502T449 416Q448 363 448 309T447 203T447 103T445 14L310 7Q304 24 294 50T272 109T247 176T222 242Q215 260 209 276T197 307T187 332T180 349Q180 330 180 311T180 272T180 235T180 199Q181 174 181 150T181 105T182 64T182 29T183 0L49 1Q49 27 49
56T50 117T51 183T51 253Q51 314 51 376T50 497T49 609T46 704ZM179 752H111Q110 785 124 804T158 831T199 840Q234 840 258 831T305 822Q320 822 327 826T338 840H404Q406 800 392 782T357 758T316 752Q282 752 257 761T209 770Q194 770 188 767T179 752Z" />
<glyph unicode="&#xd2;" horiz-adv-x="453" d="M220 -5Q169 -5 135 12T81 62T50 139Q43 169 40 203T35 277T33 357Q33 385 34 411T37 463T43 511T53 556Q71 624 113 665T232 706Q287 706 322 687T377 631T407 546Q415 506 417 458T420 356Q420 312 418 271T410
192T393 123Q373 65 332 30T220 -5ZM228 111Q240 111 247 117T260 138T268 176Q272 211 272 260T273 359Q273 400 273 440T271 508Q267 552 259 571T229 591Q207 591 196 570T183 504Q182 489 182 471T181 432T181 389T181 346Q181 297 181 251T185 173Q188 151
193 137T206 117T228 111ZM293 726Q279 735 265 742T236 757T207 772Q192 780 177 787T145 801T111 817L161 897Q182 881 204 866T248 837Q270 824 291 811T333 786L293 726Z" />
<glyph unicode="&#xd3;" horiz-adv-x="453" d="M220 -5Q169 -5 135 12T81 62T50 139Q43 169 40 203T35 277T33 357Q33 385 34 411T37 463T43 511T53 556Q71 624 113 665T232 706Q287 706 322 687T377 631T407 546Q415 506 417 458T420 356Q420 312 418 271T410
192T393 123Q373 65 332 30T220 -5ZM228 111Q240 111 247 117T260 138T268 176Q272 211 272 260T273 359Q273 400 273 440T271 508Q267 552 259 571T229 591Q207 591 196 570T183 504Q182 489 182 471T181 432T181 389T181 346Q181 297 181 251T185 173Q188 151
193 137T206 117T228 111ZM186 724L146 784Q166 796 187 808T231 835Q246 845 260 854T289 874T318 895L368 815Q351 807 335 800T303 785T272 770Q258 763 244 756T215 741T186 724Z" />
<glyph unicode="&#xd4;" horiz-adv-x="453" d="M220 -5Q169 -5 135 12T81 62T50 139Q43 169 40 203T35 277T33 357Q33 385 34 411T37 463T43 511T53 556Q71 624 113 665T232 706Q287 706 322 687T377 631T407 546Q415 506 417 458T420 356Q420 312 418 271T410
192T393 123Q373 65 332 30T220 -5ZM228 111Q240 111 247 117T260 138T268 176Q272 211 272 260T273 359Q273 400 273 440T271 508Q267 552 259 571T229 591Q207 591 196 570T183 504Q182 489 182 471T181 432T181 389T181 346Q181 297 181 251T185 173Q188 151
193 137T206 117T228 111ZM360 741L242 795L121 740L88 787L186 860L298 858L389 789L360 741Z" />
<glyph unicode="&#xd5;" horiz-adv-x="453" d="M220 -5Q169 -5 135 12T81 62T50 139Q43 169 40 203T35 277T33 357Q33 385 34 411T37 463T43 511T53 556Q71 624 113 665T232 706Q287 706 322 687T377 631T407 546Q415 506 417 458T420 356Q420 312 418 271T410
192T393 123Q373 65 332 30T220 -5ZM228 111Q240 111 247 117T260 138T268 176Q272 211 272 260T273 359Q273 400 273 440T271 508Q267 552 259 571T229 591Q207 591 196 570T183 504Q182 489 182 471T181 432T181 389T181 346Q181 297 181 251T185 173Q188 151
193 137T206 117T228 111ZM157 752H89Q88 785 102 804T136 831T177 840Q212 840 236 831T283 822Q298 822 305 826T316 840H382Q384 800 370 782T335 758T294 752Q260 752 235 761T187 770Q172 770 166 767T157 752Z" />
<glyph unicode="&#xd6;" horiz-adv-x="453" d="M220 -5Q169 -5 135 12T81 62T50 139Q43 169 40 203T35 277T33 357Q33 385 34 411T37 463T43 511T53 556Q71 624 113 665T232 706Q287 706 322 687T377 631T407 546Q415 506 417 458T420 356Q420 312 418 271T410
192T393 123Q373 65 332 30T220 -5ZM228 111Q240 111 247 117T260 138T268 176Q272 211 272 260T273 359Q273 400 273 440T271 508Q267 552 259 571T229 591Q207 591 196 570T183 504Q182 489 182 471T181 432T181 389T181 346Q181 297 181 251T185 173Q188 151
193 137T206 117T228 111ZM74 846L182 849V747L78 752L74 846ZM278 846L386 849L387 747L282 752L278 846Z" />
<glyph unicode="&#xd7;" horiz-adv-x="500" d="M422 200L348 115Q332 133 318 149T290 181T263 210T236 237T209 264Q191 282 175 297T143 326T111 354T77 385L151 468Q165 451 179 434T209 401T240 367T274 330Q289 316 303 303T330 278T358 253T389 227T422
200ZM150 115L75 187Q82 193 95 206T126 235T162 269T196 303T225 332Q237 345 250 358T276 386T303 414T328 441T352 468L425 399Q426 399 417 390T392 366T358 333T322 298T291 268Q278 255 263 239T231 205T199 171T171 140T150 115Z" />
<glyph unicode="&#xd8;" horiz-adv-x="453" d="M220 -5Q169 -5 135 12T81 62T50 139Q43 169 40 203T35 277T33 357Q33 385 34 411T37 463T43 511T53 556Q71 624 113 665T232 706Q287 706 322 687T377 631T407 546Q415 506 417 458T420 356Q420 312 418 271T410
192T393 123Q373 65 332 30T220 -5ZM228 111Q240 111 247 117T260 138T268 176Q272 211 272 260T273 359Q273 400 273 440T271 508Q267 552 259 571T229 591Q207 591 196 570T183 504Q182 489 182 471T181 432T181 389T181 346Q181 297 181 251T185 173Q188 151
193 137T206 117T228 111ZM150 -52L46 -38Q57 -13 71 20T100 91T132 171T165 254T195 335Q209 374 225 418T257 507T289 595T318 677T342 745L447 728Q433 697 418 661T386 587T353 510T322 436T295 370T274 317Q264 290 252 255T227 179T199 98T173 19T150 -52Z"
/>
<glyph unicode="&#xd9;" horiz-adv-x="474" d="M237 -10Q183 -10 147 5T89 48T56 113T45 193Q45 228 45 270T46 355T46 432Q46 477 46 520T46 606T43 696L191 695Q190 662 189 626T188 553T187 485T186 426Q186 397 186 372T185 325T185 285T185 252Q185 204 189
173T205 127T240 112Q258 112 268 122T282 151T288 192T289 239Q289 249 289 269T290 326T290 424Q290 488 289 540T286 634T284 707L433 706Q433 673 433 643T432 580T431 510T430 422Q431 337 431 278T431 195Q431 163 423 127T393 60T333 10T237 -10ZM298 726Q284
735 270 742T241 757T212 772Q197 780 182 787T150 801T116 817L166 897Q187 881 209 866T253 837Q275 824 296 811T338 786L298 726Z" />
<glyph unicode="&#xda;" horiz-adv-x="474" d="M237 -10Q183 -10 147 5T89 48T56 113T45 193Q45 228 45 270T46 355T46 432Q46 477 46 520T46 606T43 696L191 695Q190 662 189 626T188 553T187 485T186 426Q186 397 186 372T185 325T185 285T185 252Q185 204 189
173T205 127T240 112Q258 112 268 122T282 151T288 192T289 239Q289 249 289 269T290 326T290 424Q290 488 289 540T286 634T284 707L433 706Q433 673 433 643T432 580T431 510T430 422Q431 337 431 278T431 195Q431 163 423 127T393 60T333 10T237 -10ZM191 724L151
784Q171 796 192 808T236 835Q251 845 265 854T294 874T323 895L373 815Q356 807 340 800T308 785T277 770Q263 763 249 756T220 741T191 724Z" />
<glyph unicode="&#xdb;" horiz-adv-x="474" d="M237 -10Q183 -10 147 5T89 48T56 113T45 193Q45 228 45 270T46 355T46 432Q46 477 46 520T46 606T43 696L191 695Q190 662 189 626T188 553T187 485T186 426Q186 397 186 372T185 325T185 285T185 252Q185 204 189
173T205 127T240 112Q258 112 268 122T282 151T288 192T289 239Q289 249 289 269T290 326T290 424Q290 488 289 540T286 634T284 707L433 706Q433 673 433 643T432 580T431 510T430 422Q431 337 431 278T431 195Q431 163 423 127T393 60T333 10T237 -10ZM365 741L247
795L126 740L93 787L191 860L303 858L394 789L365 741Z" />
<glyph unicode="&#xdc;" horiz-adv-x="474" d="M237 -10Q183 -10 147 5T89 48T56 113T45 193Q45 228 45 270T46 355T46 432Q46 477 46 520T46 606T43 696L191 695Q190 662 189 626T188 553T187 485T186 426Q186 397 186 372T185 325T185 285T185 252Q185 204 189
173T205 127T240 112Q258 112 268 122T282 151T288 192T289 239Q289 249 289 269T290 326T290 424Q290 488 289 540T286 634T284 707L433 706Q433 673 433 643T432 580T431 510T430 422Q431 337 431 278T431 195Q431 163 423 127T393 60T333 10T237 -10ZM79 846L187
849V747L83 752L79 846ZM283 846L391 849L392 747L287 752L283 846Z" />
<glyph unicode="&#xdd;" horiz-adv-x="398" d="M124 0Q126 36 126 97T125 234L267 224Q267 189 267 159T268 103T270 52T273 1L124 0ZM-30 704H125Q130 676 136 641T150 569T166 496Q173 464 179 436T191 387T199 354Q204 372 210 395T223 447T237 505Q242 529
247 553T258 601T269 649T280 694L433 698Q427 679 419 655T401 603T381 544T361 481Q345 430 329 379T298 282T272 198T253 136L140 137Q132 166 122 202T99 278T74 362T48 448Q38 484 27 519T6 587T-13 649T-30 704ZM153 724L113 784Q133 796 154 808T198 835Q213
845 227 854T256 874T285 895L335 815Q318 807 302 800T270 785T239 770Q225 763 211 756T182 741T153 724Z" />
<glyph unicode="&#xde;" horiz-adv-x="426" d="M127 133V244Q167 239 196 242T244 261T273 303T283 373Q283 420 269 444T234 477T189 486Q173 486 156 484T117 479V594Q131 595 143 595T169 595Q228 595 275 587T357 555T409 489T427 376Q427 300 406 252T345
178T250 143T127 133ZM37 -5Q38 35 39 95T40 222T41 352Q41 415 40 482T37 611T33 712L182 702Q181 682 180 650T179 580T178 502T179 423T180 354Q180 324 180 281T181 188T182 92T183 5L37 -5Z" />
<glyph unicode="&#xdf;" horiz-adv-x="489" d="M29 -2Q31 36 33 62T36 114T37 177T38 270Q38 288 38 315T38 375T38 436T39 488T40 518Q43 555 56 588T95 646T160 686T256 701Q327 701 368 681T428 626T447 551Q447 520 437 497T411 455T379 422T353 392T342 360Q342
349 349 338T369 316T397 292Q418 275 439 255T475 209T490 150Q490 102 465 63T381 6T215 -1L223 85Q275 76 302 78T340 90T352 116T354 148Q354 163 346 175T324 200T294 224Q274 240 254 258T221 300T207 355Q207 381 217 401T244 437T276 470T302 503T313 542Q313
562 306 574T285 593T248 599Q223 599 207 589T183 561T173 523Q172 509 171 483T170 421T171 348T171 271Q171 197 173 135T176 37T178 1L29 -2Z" />
<glyph unicode="&#xe0;" horiz-adv-x="387" d="M236 0L240 85L231 384Q230 407 222 415T197 423Q179 423 169 412T158 377Q158 365 160 353T166 326L40 319Q36 334 34 349T32 377Q32 421 50 454T105 507T196 526Q246 526 277 510T327 468T351 409T357 345L354
245L356 0H236ZM144 -9Q104 -9 77 8T37 54T23 122Q23 161 36 187T70 233T118 266T171 293Q186 301 197 309T216 329T227 354T231 384L286 349Q281 314 268 289T237 247T201 218Q185 206 174 195T157 172T151 142Q151 129 154 120T164 105T181 100Q197 100 209 115T228
166T235 264L280 312Q280 245 274 187T253 85T212 16T144 -9ZM252 554Q238 563 224 570T195 585T166 600Q151 608 136 615T104 629T70 645L120 725Q141 709 163 694T207 665Q229 652 250 639T292 614L252 554Z" />
<glyph unicode="&#xe1;" horiz-adv-x="387" d="M236 0L240 85L231 384Q230 407 222 415T197 423Q179 423 169 412T158 377Q158 365 160 353T166 326L40 319Q36 334 34 349T32 377Q32 421 50 454T105 507T196 526Q246 526 277 510T327 468T351 409T357 345L354
245L356 0H236ZM144 -9Q104 -9 77 8T37 54T23 122Q23 161 36 187T70 233T118 266T171 293Q186 301 197 309T216 329T227 354T231 384L286 349Q281 314 268 289T237 247T201 218Q185 206 174 195T157 172T151 142Q151 129 154 120T164 105T181 100Q197 100 209 115T228
166T235 264L280 312Q280 245 274 187T253 85T212 16T144 -9ZM147 554L107 614Q121 622 135 630T163 647T192 665Q207 675 221 684T250 704T279 725L329 645Q312 637 296 630T264 615T233 600Q219 593 205 586T176 571T147 554Z" />
<glyph unicode="&#xe2;" horiz-adv-x="387" d="M236 0L240 85L231 384Q230 407 222 415T197 423Q179 423 169 412T158 377Q158 365 160 353T166 326L40 319Q36 334 34 349T32 377Q32 421 50 454T105 507T196 526Q246 526 277 510T327 468T351 409T357 345L354
245L356 0H236ZM144 -9Q104 -9 77 8T37 54T23 122Q23 161 36 187T70 233T118 266T171 293Q186 301 197 309T216 329T227 354T231 384L286 349Q281 314 268 289T237 247T201 218Q185 206 174 195T157 172T151 142Q151 129 154 120T164 105T181 100Q197 100 209 115T228
166T235 264L280 312Q280 245 274 187T253 85T212 16T144 -9ZM319 571L201 625L80 570L47 617L145 690L257 688L348 619L319 571Z" />
<glyph unicode="&#xe3;" horiz-adv-x="387" d="M236 0L240 85L231 384Q230 407 222 415T197 423Q179 423 169 412T158 377Q158 365 160 353T166 326L40 319Q36 334 34 349T32 377Q32 421 50 454T105 507T196 526Q246 526 277 510T327 468T351 409T357 345L354
245L356 0H236ZM144 -9Q104 -9 77 8T37 54T23 122Q23 161 36 187T70 233T118 266T171 293Q186 301 197 309T216 329T227 354T231 384L286 349Q281 314 268 289T237 247T201 218Q185 206 174 195T157 172T151 142Q151 129 154 120T164 105T181 100Q197 100 209 115T228
166T235 264L280 312Q280 245 274 187T253 85T212 16T144 -9ZM113 579H45Q44 612 58 631T92 658T133 667Q168 667 192 658T239 649Q254 649 261 653T272 667H338Q340 627 326 609T291 585T250 579Q216 579 191 588T143 597Q128 597 122 594T113 579Z" />
<glyph unicode="&#xe4;" horiz-adv-x="387" d="M236 0L240 85L231 384Q230 407 222 415T197 423Q179 423 169 412T158 377Q158 365 160 353T166 326L40 319Q36 334 34 349T32 377Q32 421 50 454T105 507T196 526Q246 526 277 510T327 468T351 409T357 345L354
245L356 0H236ZM144 -9Q104 -9 77 8T37 54T23 122Q23 161 36 187T70 233T118 266T171 293Q186 301 197 309T216 329T227 354T231 384L286 349Q281 314 268 289T237 247T201 218Q185 206 174 195T157 172T151 142Q151 129 154 120T164 105T181 100Q197 100 209 115T228
166T235 264L280 312Q280 245 274 187T253 85T212 16T144 -9ZM350 585L245 590L241 684L349 687L350 585ZM145 585L41 590L37 684L145 687V585Z" />
<glyph unicode="&#xe5;" horiz-adv-x="387" d="M236 0L240 85L231 384Q230 407 222 415T197 423Q179 423 169 412T158 377Q158 365 160 353T166 326L40 319Q36 334 34 349T32 377Q32 421 50 454T105 507T196 526Q246 526 277 510T327 468T351 409T357 345L354
245L356 0H236ZM144 -9Q104 -9 77 8T37 54T23 122Q23 161 36 187T70 233T118 266T171 293Q186 301 197 309T216 329T227 354T231 384L286 349Q281 314 268 289T237 247T201 218Q185 206 174 195T157 172T151 142Q151 129 154 120T164 105T181 100Q197 100 209 115T228
166T235 264L280 312Q280 245 274 187T253 85T212 16T144 -9ZM193 563Q161 563 139 571T104 596T92 634Q92 669 119 686T193 704Q238 704 264 686T291 638Q291 605 264 584T193 563ZM193 609Q197 609 204 611T218 619T225 637Q225 648 215 654T191 660Q177 660
168 655T158 635Q158 628 162 622T173 613T193 609Z" />
<glyph unicode="&#xe6;" horiz-adv-x="609" d="M150 -9Q110 -9 83 8T43 54T29 122Q29 161 42 187T76 233T124 266T177 293Q192 301 203 309T222 329T233 354T237 384Q236 407 227 415T203 423Q185 423 175 412T164 377Q164 365 166 353T172 326L46 319Q42 334
40 349T38 377Q38 421 56 454T109 507T192 526Q219 526 240 521T278 505T307 479Q326 502 355 513T424 525Q481 525 514 501T563 433T578 329Q578 305 576 278T570 222Q547 222 513 222T440 221T365 219Q365 198 366 180T368 147Q372 119 382 104T412 89Q425 89
432 94T444 108T448 129Q448 138 447 148T441 169H575Q577 159 577 150T578 131Q578 85 559 53T502 5T410 -12Q355 -12 325 10T279 72Q267 47 249 29T207 1T150 -9ZM187 100Q201 100 213 112T233 151T241 227Q241 230 241 233T241 240T241 246Q233 238 224 231T207
218Q191 206 180 195T163 172T157 142Q157 129 160 120T170 105T187 100ZM365 315H442Q442 325 442 334T443 352Q443 375 440 392T430 420T407 430Q390 430 382 418T369 384Q368 375 367 364T366 341T365 315Z" />
<glyph unicode="&#xe7;" horiz-adv-x="402" d="M204 -9Q138 -9 102 20T48 100Q37 132 33 172T29 256Q29 307 34 351T55 430Q69 460 90 481T141 514T213 525Q273 525 310 502T363 438T380 340Q380 327 380 314T377 287L242 290Q243 304 243 317T244 342Q244 369
241 389T230 419T208 430Q191 430 183 417T170 377Q167 357 167 328T166 264Q166 241 166 220T167 182T170 149Q173 120 182 105T210 89Q223 89 231 94T244 109T249 132Q249 140 247 149T242 169H376Q377 161 377 154T377 139Q377 91 358 58T301 8T204 -9ZM173
-172Q152 -172 134 -170T96 -167L113 -106Q118 -107 132 -108T164 -109T197 -110Q219 -110 231 -107T243 -99Q243 -91 219 -86T147 -82L169 -32Q248 -31 289 -47T330 -98Q330 -126 307 -142T248 -165T173 -172ZM243 0L218 -82H147L171 0H243Z" />
<glyph unicode="&#xe8;" horiz-adv-x="404" d="M210 -12Q153 -12 117 12T60 76Q42 111 35 157T28 256Q28 304 34 346T54 423Q74 471 112 498T214 525Q276 525 312 501T363 433T378 329Q378 305 376 278T370 222L241 304Q242 317 242 329T243 352Q243 375 240 392T230
420T207 430Q189 430 181 418T168 384Q165 363 165 335T165 272Q165 247 165 224T165 182T168 147Q172 119 181 104T212 89Q225 89 232 94T244 108T248 129Q248 138 246 148T241 169H375Q377 159 377 150T378 131Q378 85 358 53T301 5T210 -12ZM65 214L61 314L341
316L370 222Q370 222 349 222T292 222T216 220T135 218T65 214ZM265 554Q251 563 237 570T208 585T179 600Q164 608 149 615T117 629T83 645L133 725Q154 709 176 694T220 665Q242 652 263 639T305 614L265 554Z" />
<glyph unicode="&#xe9;" horiz-adv-x="404" d="M210 -12Q153 -12 117 12T60 76Q42 111 35 157T28 256Q28 304 34 346T54 423Q74 471 112 498T214 525Q276 525 312 501T363 433T378 329Q378 305 376 278T370 222L241 304Q242 317 242 329T243 352Q243 375 240 392T230
420T207 430Q189 430 181 418T168 384Q165 363 165 335T165 272Q165 247 165 224T165 182T168 147Q172 119 181 104T212 89Q225 89 232 94T244 108T248 129Q248 138 246 148T241 169H375Q377 159 377 150T378 131Q378 85 358 53T301 5T210 -12ZM65 214L61 314L341
316L370 222Q370 222 349 222T292 222T216 220T135 218T65 214ZM160 554L120 614Q134 622 148 630T176 647T205 665Q220 675 234 684T263 704T292 725L342 645Q325 637 309 630T277 615T246 600Q232 593 218 586T189 571T160 554Z" />
<glyph unicode="&#xea;" horiz-adv-x="404" d="M210 -12Q153 -12 117 12T60 76Q42 111 35 157T28 256Q28 304 34 346T54 423Q74 471 112 498T214 525Q276 525 312 501T363 433T378 329Q378 305 376 278T370 222L241 304Q242 317 242 329T243 352Q243 375 240 392T230
420T207 430Q189 430 181 418T168 384Q165 363 165 335T165 272Q165 247 165 224T165 182T168 147Q172 119 181 104T212 89Q225 89 232 94T244 108T248 129Q248 138 246 148T241 169H375Q377 159 377 150T378 131Q378 85 358 53T301 5T210 -12ZM65 214L61 314L341
316L370 222Q370 222 349 222T292 222T216 220T135 218T65 214ZM332 571L214 625L93 570L60 617L158 690L270 688L361 619L332 571Z" />
<glyph unicode="&#xeb;" horiz-adv-x="404" d="M210 -12Q153 -12 117 12T60 76Q42 111 35 157T28 256Q28 304 34 346T54 423Q74 471 112 498T214 525Q276 525 312 501T363 433T378 329Q378 305 376 278T370 222L241 304Q242 317 242 329T243 352Q243 375 240 392T230
420T207 430Q189 430 181 418T168 384Q165 363 165 335T165 272Q165 247 165 224T165 182T168 147Q172 119 181 104T212 89Q225 89 232 94T244 108T248 129Q248 138 246 148T241 169H375Q377 159 377 150T378 131Q378 85 358 53T301 5T210 -12ZM65 214L61 314L341
316L370 222Q370 222 349 222T292 222T216 220T135 218T65 214ZM363 585L258 590L254 684L362 687L363 585ZM158 585L54 590L50 684L158 687V585Z" />
<glyph unicode="&#xec;" horiz-adv-x="233" d="M191 0L43 2Q45 32 46 62T49 125T50 192T51 267Q51 327 50 374T46 456T43 516L189 515Q188 495 187 459T186 375T185 266Q185 231 185 198T186 132T188 67T191 0ZM173 554Q159 563 145 570T116 585T87 600Q72 608
57 615T25 629T-9 645L41 725Q62 709 84 694T128 665Q150 652 171 639T213 614L173 554Z" />
<glyph unicode="&#xed;" horiz-adv-x="233" d="M191 0L43 2Q45 32 46 62T49 125T50 192T51 267Q51 327 50 374T46 456T43 516L189 515Q188 495 187 459T186 375T185 266Q185 231 185 198T186 132T188 67T191 0ZM68 554L28 614Q42 622 56 630T84 647T113 665Q128
675 142 684T171 704T200 725L250 645Q233 637 217 630T185 615T154 600Q140 593 126 586T97 571T68 554Z" />
<glyph unicode="&#xee;" horiz-adv-x="233" d="M191 0L43 2Q45 32 46 62T49 125T50 192T51 267Q51 327 50 374T46 456T43 516L189 515Q188 495 187 459T186 375T185 266Q185 231 185 198T186 132T188 67T191 0ZM240 571L122 625L1 570L-32 617L66 690L178 688L269
619L240 571Z" />
<glyph unicode="&#xef;" horiz-adv-x="233" d="M191 0L43 2Q45 32 46 62T49 125T50 192T51 267Q51 327 50 374T46 456T43 516L189 515Q188 495 187 459T186 375T185 266Q185 231 185 198T186 132T188 67T191 0ZM271 585L166 590L162 684L270 687L271 585ZM66 585L-38
590L-42 684L66 687V585Z" />
<glyph unicode="&#xf0;" horiz-adv-x="442" d="M204 -10Q149 -10 114 7T61 55T35 123T28 204Q28 271 46 321T104 399T207 427Q248 427 270 411T305 369T332 316L275 231Q275 260 271 282T256 318T223 331Q202 331 189 319T170 281T163 212Q163 165 166 137T180
96T216 83Q248 83 260 105T273 161T275 231Q275 238 275 250T275 291T275 371Q275 425 265 468T236 542T190 594T129 623L180 720Q206 711 237 694T299 649T355 576T396 470T412 322Q412 268 410 219T397 128T364 55T303 7T204 -10ZM174 462L127 540Q154 553 171
562T209 582T261 612Q275 620 291 629T323 647T355 666T386 685L432 606Q415 599 399 591T367 575T336 558T305 540Q278 523 257 510T216 486T174 462Z" />
<glyph unicode="&#xf1;" horiz-adv-x="439" d="M399 0L254 1Q256 30 257 51T258 92T259 139T260 208Q260 228 260 247T260 289T260 344Q260 367 258 383T250 408T231 417Q220 417 210 407T192 367T184 277L141 267Q141 312 146 351T161 422T187 476T224 510T274
522Q307 522 334 509T378 459T394 354Q394 322 394 298T394 253T394 212Q394 172 394 144T395 95T397 52T399 0ZM44 1Q46 29 47 53T48 104T49 165T50 247Q50 312 50 363T49 452T48 516L176 523Q177 511 177 478T179 394T184 277Q184 220 185 173T187 84T188 1H44ZM147
579H79Q78 612 92 631T126 658T167 667Q202 667 226 658T273 649Q288 649 295 653T306 667H372Q374 627 360 609T325 585T284 579Q250 579 225 588T177 597Q162 597 156 594T147 579Z" />
<glyph unicode="&#xf2;" horiz-adv-x="427" d="M207 -10Q143 -10 108 20T57 103Q47 136 44 177T40 266Q40 299 42 328T51 384T67 432Q87 478 125 503T226 529Q279 529 311 506T362 441Q376 407 382 362T388 265Q388 223 384 187T372 119Q361 79 340 50T287 6T207
-10ZM215 94Q231 94 239 110T249 154Q251 168 251 184T251 218T251 259Q250 295 250 323T248 372Q245 401 238 415T215 429Q204 429 198 424T187 408T180 381Q178 367 178 349T177 308T177 259Q177 238 177 220T178 186T180 156Q183 126 191 110T215 94ZM274 554Q260
563 246 570T217 585T188 600Q173 608 158 615T126 629T92 645L142 725Q163 709 185 694T229 665Q251 652 272 639T314 614L274 554Z" />
<glyph unicode="&#xf3;" horiz-adv-x="427" d="M207 -10Q143 -10 108 20T57 103Q47 136 44 177T40 266Q40 299 42 328T51 384T67 432Q87 478 125 503T226 529Q279 529 311 506T362 441Q376 407 382 362T388 265Q388 223 384 187T372 119Q361 79 340 50T287 6T207
-10ZM215 94Q231 94 239 110T249 154Q251 168 251 184T251 218T251 259Q250 295 250 323T248 372Q245 401 238 415T215 429Q204 429 198 424T187 408T180 381Q178 367 178 349T177 308T177 259Q177 238 177 220T178 186T180 156Q183 126 191 110T215 94ZM169 554L129
614Q143 622 157 630T185 647T214 665Q229 675 243 684T272 704T301 725L351 645Q334 637 318 630T286 615T255 600Q241 593 227 586T198 571T169 554Z" />
<glyph unicode="&#xf4;" horiz-adv-x="427" d="M207 -10Q143 -10 108 20T57 103Q47 136 44 177T40 266Q40 299 42 328T51 384T67 432Q87 478 125 503T226 529Q279 529 311 506T362 441Q376 407 382 362T388 265Q388 223 384 187T372 119Q361 79 340 50T287 6T207
-10ZM215 94Q231 94 239 110T249 154Q251 168 251 184T251 218T251 259Q250 295 250 323T248 372Q245 401 238 415T215 429Q204 429 198 424T187 408T180 381Q178 367 178 349T177 308T177 259Q177 238 177 220T178 186T180 156Q183 126 191 110T215 94ZM341 571L223
625L102 570L69 617L167 690L279 688L370 619L341 571Z" />
<glyph unicode="&#xf5;" horiz-adv-x="427" d="M207 -10Q143 -10 108 20T57 103Q47 136 44 177T40 266Q40 299 42 328T51 384T67 432Q87 478 125 503T226 529Q279 529 311 506T362 441Q376 407 382 362T388 265Q388 223 384 187T372 119Q361 79 340 50T287 6T207
-10ZM215 94Q231 94 239 110T249 154Q251 168 251 184T251 218T251 259Q250 295 250 323T248 372Q245 401 238 415T215 429Q204 429 198 424T187 408T180 381Q178 367 178 349T177 308T177 259Q177 238 177 220T178 186T180 156Q183 126 191 110T215 94ZM135 579H67Q66
612 80 631T114 658T155 667Q190 667 214 658T261 649Q276 649 283 653T294 667H360Q362 627 348 609T313 585T272 579Q238 579 213 588T165 597Q150 597 144 594T135 579Z" />
<glyph unicode="&#xf6;" horiz-adv-x="427" d="M207 -10Q143 -10 108 20T57 103Q47 136 44 177T40 266Q40 299 42 328T51 384T67 432Q87 478 125 503T226 529Q279 529 311 506T362 441Q376 407 382 362T388 265Q388 223 384 187T372 119Q361 79 340 50T287 6T207
-10ZM215 94Q231 94 239 110T249 154Q251 168 251 184T251 218T251 259Q250 295 250 323T248 372Q245 401 238 415T215 429Q204 429 198 424T187 408T180 381Q178 367 178 349T177 308T177 259Q177 238 177 220T178 186T180 156Q183 126 191 110T215 94ZM372 585L267
590L263 684L371 687L372 585ZM167 585L63 590L59 684L167 687V585Z" />
<glyph unicode="&#xf7;" horiz-adv-x="500" d="M65 238L71 341Q86 341 109 341T159 340T211 340T254 338Q271 337 296 337T348 338T397 340T432 341L438 238Q420 238 394 238T339 239T286 239T246 240Q229 240 206 240T156 240T106 239T65 238ZM254 53Q222 53
199 75T176 129Q176 158 195 177T245 197Q277 197 300 176T323 123Q323 95 304 74T254 53ZM254 381Q222 381 199 403T176 457Q176 486 195 505T245 525Q277 525 300 504T323 451Q323 423 303 402T254 381Z" />
<glyph unicode="&#xf8;" horiz-adv-x="427" d="M207 -10Q143 -10 108 20T57 103Q47 136 44 177T40 266Q40 299 42 328T51 384T67 432Q87 478 125 503T226 529Q279 529 311 506T362 441Q376 407 382 362T388 265Q388 223 384 187T372 119Q361 79 340 50T287 6T207
-10ZM215 94Q231 94 239 110T249 154Q251 168 251 184T251 218T251 259Q250 295 250 323T248 372Q245 401 238 415T215 429Q204 429 198 424T187 408T180 381Q179 370 178 357T177 329T177 296T177 259Q177 227 177 202T180 156Q183 126 191 110T215 94ZM158 -60L58
-19Q72 12 92 60T134 164T177 275Q197 330 218 390T259 506T290 600L391 566Q374 529 354 483T315 389T279 300T252 231Q242 203 230 166T204 88T179 9T158 -60Z" />
<glyph unicode="&#xf9;" horiz-adv-x="422" d="M145 -10Q112 -10 88 5T52 51T39 132Q39 153 39 181T40 243T41 317Q41 344 41 367T42 414T43 463T43 520L175 526Q174 501 173 478T171 429T168 373T164 301Q163 279 162 259T161 220T160 186T160 155Q160 132 163
118T172 97T188 90Q200 90 212 100T235 134T251 201T257 309L316 311Q315 257 308 209T288 120T255 51T207 6T145 -10ZM269 0L259 112Q258 165 258 213T257 309Q257 339 257 372T257 436T257 491T257 529L390 527Q388 491 387 464T384 416T381 373T379 331T378
282Q378 257 378 222T380 148T382 76T383 22T384 0H269ZM272 554Q258 563 244 570T215 585T186 600Q171 608 156 615T124 629T90 645L140 725Q161 709 183 694T227 665Q249 652 270 639T312 614L272 554Z" />
<glyph unicode="&#xfa;" horiz-adv-x="422" d="M145 -10Q112 -10 88 5T52 51T39 132Q39 153 39 181T40 243T41 317Q41 344 41 367T42 414T43 463T43 520L175 526Q174 501 173 478T171 429T168 373T164 301Q163 279 162 259T161 220T160 186T160 155Q160 132 163
118T172 97T188 90Q200 90 212 100T235 134T251 201T257 309L316 311Q315 257 308 209T288 120T255 51T207 6T145 -10ZM269 0L259 112Q258 165 258 213T257 309Q257 339 257 372T257 436T257 491T257 529L390 527Q388 491 387 464T384 416T381 373T379 331T378
282Q378 257 378 222T380 148T382 76T383 22T384 0H269ZM167 554L127 614Q141 622 155 630T183 647T212 665Q227 675 241 684T270 704T299 725L349 645Q332 637 316 630T284 615T253 600Q239 593 225 586T196 571T167 554Z" />
<glyph unicode="&#xfb;" horiz-adv-x="422" d="M145 -10Q112 -10 88 5T52 51T39 132Q39 153 39 181T40 243T41 317Q41 344 41 367T42 414T43 463T43 520L175 526Q174 501 173 478T171 429T168 373T164 301Q163 279 162 259T161 220T160 186T160 155Q160 132 163
118T172 97T188 90Q200 90 212 100T235 134T251 201T257 309L316 311Q315 257 308 209T288 120T255 51T207 6T145 -10ZM269 0L259 112Q258 165 258 213T257 309Q257 339 257 372T257 436T257 491T257 529L390 527Q388 491 387 464T384 416T381 373T379 331T378
282Q378 257 378 222T380 148T382 76T383 22T384 0H269ZM339 571L221 625L100 570L67 617L165 690L277 688L368 619L339 571Z" />
<glyph unicode="&#xfc;" horiz-adv-x="422" d="M145 -10Q112 -10 88 5T52 51T39 132Q39 153 39 181T40 243T41 317Q41 344 41 367T42 414T43 463T43 520L175 526Q174 501 173 478T171 429T168 373T164 301Q163 279 162 259T161 220T160 186T160 155Q160 132 163
118T172 97T188 90Q200 90 212 100T235 134T251 201T257 309L316 311Q315 257 308 209T288 120T255 51T207 6T145 -10ZM269 0L259 112Q258 165 258 213T257 309Q257 339 257 372T257 436T257 491T257 529L390 527Q388 491 387 464T384 416T381 373T379 331T378
282Q378 257 378 222T380 148T382 76T383 22T384 0H269ZM370 585L265 590L261 684L369 687L370 585ZM165 585L61 590L57 684L165 687V585Z" />
<glyph unicode="&#xfd;" horiz-adv-x="398" d="M239 -164L104 -156Q115 -118 126 -80T148 -3T169 74T188 152T206 229T220 304Q228 351 233 386T242 454T250 525H393Q385 491 378 462T363 403T349 344T333 276Q322 229 312 182T292 90T273 0T256 -85T239 -164ZM159
-35Q152 -5 144 24T127 83T110 143T92 205T74 270Q65 301 57 328T40 382T22 441T0 512L148 514Q157 466 163 434T175 373T189 307Q196 273 202 240T215 173T230 101T248 23L159 -35ZM152 593L112 653Q126 661 140 669T168 686T197 704Q212 714 226 723T255 743T284
764L334 684Q317 676 301 669T269 654T238 639Q224 632 210 625T181 610T152 593Z" />
<glyph unicode="&#xfe;" horiz-adv-x="443" d="M46 -166Q48 -124 49 -81T52 7T54 102T55 204Q55 230 55 262T55 333T54 414T54 501T53 594T52 690L186 695Q186 636 186 577T185 459Q196 481 209 496T240 518T279 526Q330 526 356 496T394 414Q402 383 404 344T406
263Q406 228 404 194T394 130T375 74Q357 36 328 13T253 -10Q239 -10 228 -7T207 4T190 21L196 -160L46 -166ZM189 223Q189 177 193 146T206 98T228 82Q243 82 251 95T263 129Q268 154 269 188T270 259Q270 291 270 317T268 363Q266 391 259 405T233 420Q218 420
209 400T194 344T189 259V223Z" />
<glyph unicode="&#xff;" horiz-adv-x="398" d="M239 -164L104 -156Q115 -118 126 -80T148 -3T169 74T188 152T206 229T220 304Q228 351 233 386T242 454T250 525H393Q385 491 378 462T363 403T349 344T333 276Q322 229 312 182T292 90T273 0T256 -85T239 -164ZM159
-35Q152 -5 144 24T127 83T110 143T92 205T74 270Q65 301 57 328T40 382T22 441T0 512L148 514Q157 466 163 434T175 373T189 307Q196 273 202 240T215 173T230 101T248 23L159 -35ZM355 624L250 629L246 723L354 726L355 624ZM150 624L46 629L42 723L150 726V624Z"
/>
<glyph unicode="&#x2013;" horiz-adv-x="447" d="M60 239L66 341Q66 341 82 341T122 340T174 339T225 338Q248 338 275 338T327 339T368 340T384 341L387 239Q387 239 369 239T324 240T269 240T219 241Q197 241 170 241T117 240T76 240T60 239Z" />
<glyph unicode="&#x2014;" horiz-adv-x="771" d="M60 239L65 341Q65 341 84 341T136 341T206 340T281 340T349 339T394 338Q409 338 438 338T502 338T574 339T641 340T690 340T709 341L711 239Q711 239 692 239T640 239T570 240T496 240T430 241T387 241Q373 241
344 241T277 241T202 240T132 240T80 239T60 239Z" />
<glyph unicode="&#x2018;" horiz-adv-x="274" d="M80 474V613Q80 676 87 716T101 785L149 770Q142 741 135 710T124 646L193 642L195 471L80 474Z" />
<glyph unicode="&#x2019;" horiz-adv-x="274" d="M136 452L86 486Q115 521 123 551T132 612L82 615L80 777L195 785V630Q195 577 185 534T136 452Z" />
<glyph unicode="&#x201a;" horiz-adv-x="274" d="M173 -139L125 -124Q133 -95 140 -64T151 0L82 4L80 175L195 172V33Q195 -30 188 -70T173 -139Z" />
<glyph unicode="&#x201c;" horiz-adv-x="447" d="M253 474V613Q253 676 260 716T275 785L323 770Q315 741 308 710T297 646L366 642L368 471L253 474ZM80 474V613Q80 676 87 716T102 785L150 770Q142 741 135 710T124 646L193 642L195 471L80 474Z" />
<glyph unicode="&#x201d;" horiz-adv-x="447" d="M173 474L125 489Q133 518 140 549T151 613L82 617L80 788L195 785V646Q195 584 188 544T173 474ZM347 474L298 489Q306 518 313 549T324 613L255 617L253 788L368 785V646Q368 584 362 544T347 474Z" />
<glyph unicode="&#x201e;" horiz-adv-x="448" d="M174 -139L126 -124Q134 -95 141 -64T151 0L82 4L80 175L196 172V33Q196 -30 189 -70T174 -139ZM347 -139L299 -124Q307 -95 314 -64T325 0L256 4L254 175L369 172V33Q369 -30 362 -70T347 -139Z" />
<glyph unicode="&#x2022;" horiz-adv-x="389" d="M193 177Q141 177 111 211T80 306Q80 365 112 397T200 430Q253 430 281 396T310 300Q310 243 278 210T193 177Z" />
<glyph unicode="&#x2039;" horiz-adv-x="466" d="M327 494L387 409Q365 397 344 384T302 358T258 331Q228 313 199 293T140 254T80 215L82 321Q103 335 123 348T164 374T205 402Q226 417 246 432T286 462T327 494ZM326 34Q306 51 285 67T243 99T201 130Q182 145
162 159T121 187T80 215L82 321Q104 306 125 291T168 259T211 228T255 197Q278 182 299 168T341 140T385 113L326 34Z" />
<glyph unicode="&#x203a;" horiz-adv-x="466" d="M385 207Q363 222 342 237T299 269T256 300T212 331Q178 354 147 375T82 415L141 494Q171 469 203 445T266 398Q295 376 326 355T387 313L385 207ZM140 34L80 119Q113 138 144 157T209 197Q254 225 297 255T387
313L385 207Q354 187 323 167T262 126Q231 104 201 81T140 34Z" />
</font>
</defs>
</svg>
