<?xml version="1.0" standalone="no"?>
<!DOCTYPE svg PUBLIC "-//W3C//DTD SVG 1.1//EN" "http://www.w3.org/Graphics/SVG/1.1/DTD/svg11.dtd">
<svg xmlns="http://www.w3.org/2000/svg">
<defs >
<font id="Truculenta" horiz-adv-x="476" ><font-face
    font-family="Truculenta Medium"
    units-per-em="1000"
    panose-1="0 0 0 0 0 0 0 0 0 0"
    ascent="1050"
    descent="-340"
    alphabetic="0" />
<glyph unicode=" " horiz-adv-x="231" />
<glyph unicode="!" horiz-adv-x="287" d="M111 236Q110 247 109 275T107 344T105 435Q104 473 103 516T100 599T97 667T95 704L191 709Q191 702 190 679T187 625T185 558T182 491T179 436Q179 408 179 377T177 318T176 269T175 238L111 236ZM189 0H99L103 140L181
142L189 0Z" />
<glyph unicode="&quot;" horiz-adv-x="459" d="M260 493Q260 493 261 509T263 552T264 604Q266 642 266 672T266 702L369 700Q369 701 366 689T358 656T350 615Q347 600 344 581T339 543T335 514T333 503L260 493ZM102 490Q103 490 102 506T100 548T97 601Q96
639 93 668T90 698L193 706Q193 706 191 693T186 660T181 618Q179 603 178 584T176 546T175 517T175 505L102 490Z" />
<glyph unicode="#" horiz-adv-x="832" d="M144 0L244 386L309 697L393 699L312 373L230 2L144 0ZM70 168L72 244Q78 244 103 244T167 243T250 243T336 242T413 241Q448 241 487 241T563 242T632 242T684 243T711 244L715 170Q710 170 689 170T636 170T566 171T488
171T410 172Q374 172 331 172T244 171T163 170T101 169T70 168ZM434 -1L534 386L596 688L680 685L599 362L520 0L434 -1ZM120 455L112 531Q118 531 144 531T211 530T296 530T385 529T463 528Q498 528 536 528T612 529T681 530T734 530T761 531V456Q755 456 734
456T682 456T614 457T538 458T461 459Q425 459 382 459T295 458T214 457T151 456T120 455Z" />
<glyph unicode="$" horiz-adv-x="500" d="M247 -10Q181 -10 141 13T83 74T65 158Q65 173 67 188T72 220H153Q151 204 149 189T147 159Q147 131 155 109T184 73T243 60Q282 60 305 72T338 103T348 147Q348 171 338 189T309 222T266 250T215 279Q186 295 159 315T110
362T77 426T64 509Q64 566 86 610T150 679T255 704Q309 704 344 688T400 644T429 580T437 505Q437 486 436 467T432 430T428 394H341Q344 421 347 449T350 504Q350 539 342 568T313 615T252 632Q223 632 204 623T173 596T156 556T150 508Q150 467 165 438T205 387T262
349Q294 331 324 314T380 275T420 224T435 154Q435 106 414 69T350 11T247 -10ZM281 -112L217 -111Q218 -104 219 -68T221 29T223 164T224 322Q224 388 224 454T224 581T223 688T222 766T221 801L285 798Q284 792 283 765T281 696T278 603T275 499T273 397T272
311Q272 266 272 212T274 104T277 4T279 -74T281 -112Z" />
<glyph unicode="%" horiz-adv-x="800" d="M167 0Q187 33 212 78T267 172T323 270T372 358Q398 404 424 452T476 545T522 628T557 693H642Q627 667 604 630T554 547T499 452T443 355Q419 314 393 265T339 165T290 72T251 0H167ZM192 369Q145 369 117 391T76 452T63
536Q63 585 78 622T125 680T204 701Q249 701 277 682T319 625T333 535Q333 485 318 448T271 390T192 369ZM196 429Q223 429 238 442T259 480T266 537Q266 574 259 596T237 629T201 639Q170 639 155 625T135 586T130 532Q130 478 146 454T196 429ZM595 -1Q548 -1
520 22T480 83T467 167Q467 216 482 252T529 310T608 331Q653 331 681 312T723 255T737 165Q737 116 721 79T674 20T595 -1ZM600 59Q626 59 641 72T663 111T669 168Q669 205 662 227T641 259T604 270Q574 270 559 255T539 216T534 163Q534 109 550 84T600 59Z"
/>
<glyph unicode="&amp;" horiz-adv-x="525" d="M221 -10Q154 -10 108 13T39 78T15 174Q15 221 29 255T65 313T114 356T163 389Q183 402 207 416T253 450T291 494T306 553Q306 570 302 588T283 620T241 634Q196 634 180 608T163 540Q163 498 178 456T223 364T295
255T392 118Q403 102 416 91T446 73T482 63T526 59L516 -7Q477 -7 445 -2T385 21T333 70Q282 139 236 202T154 322T97 432T76 536Q76 585 95 623T152 682T244 704Q292 704 325 686T375 637T393 568Q393 516 372 478T321 412T260 365T209 332Q187 317 168 303T135
272T112 232T103 174Q103 130 121 106T169 71T229 60Q269 60 298 79T347 131T378 207T393 299T395 397L482 389Q482 331 474 274T449 166T401 75T327 13T221 -10Z" />
<glyph unicode="&apos;" horiz-adv-x="283" d="M102 490Q102 490 102 506T100 548T97 601Q96 639 93 668T90 698L193 706Q193 706 191 693T186 660T180 618Q179 603 178 584T176 546T175 517T174 505L102 490Z" />
<glyph unicode="(" horiz-adv-x="394" d="M279 -144Q237 -134 203 -104T145 -23T107 103T94 281Q94 384 107 459T145 585T204 666T279 707L298 646Q254 624 228 586T190 499T174 394T170 281Q170 224 174 169T191 64T229 -23T298 -83L279 -144Z" />
<glyph unicode=")" horiz-adv-x="394" d="M115 707Q157 697 191 667T249 586T287 460T300 282Q300 180 287 105T249 -22T190 -103T115 -144L95 -83Q140 -61 166 -23T204 64T220 169T224 282Q224 339 220 394T203 499T164 586T95 646L115 707Z" />
<glyph unicode="*" horiz-adv-x="576" d="M422 422Q422 422 406 434T366 465T315 502T270 531Q250 543 221 558T163 588T115 612T95 622L145 683Q150 679 166 667T205 638T250 607T292 580Q312 568 340 552T398 519T450 491T481 474L422 422ZM135 410L107 472Q113
475 132 487T179 516T233 548T280 576Q299 588 325 605T376 641T421 673T447 691L470 621Q470 621 452 612T408 588T354 558T306 531Q291 522 269 507T224 476T180 444T148 420T135 410ZM330 353L252 361Q252 360 253 374T255 412T258 463T260 516T261 561Q261
585 259 617T255 678T252 727T251 746L328 739Q328 740 327 723T323 677T318 619T316 562Q316 542 317 515T321 460T325 407T329 368T330 353Z" />
<glyph unicode="+" horiz-adv-x="500" d="M289 115L211 111Q211 117 212 138T214 188T215 247T215 301Q215 325 214 353T212 407T211 451T210 474L287 479Q287 474 286 456T284 412T281 357T280 302Q280 277 281 247T283 189T287 141T289 115ZM74 254L80 325Q83
325 103 325T152 325T210 324T260 324Q281 324 308 325T360 326T404 327T426 328L410 255Q410 255 396 256T359 257T310 259T261 260Q243 260 220 260T172 258T126 256T91 255T74 254Z" />
<glyph unicode="," horiz-adv-x="279" d="M143 -139L105 -119Q124 -88 131 -61T139 -2L97 1L95 127L184 134V5Q184 -36 174 -72T143 -139Z" />
<glyph unicode="-" horiz-adv-x="398" d="M75 255L81 325Q81 325 91 325T118 324T156 323T201 322Q224 322 245 322T284 323T311 324T321 325L324 255Q324 255 312 255T281 256T239 256T195 257Q173 257 152 257T113 256T86 256T75 255Z" />
<glyph unicode="." horiz-adv-x="277" d="M179 0H98L95 135L181 142L179 0Z" />
<glyph unicode="/" horiz-adv-x="343" d="M25 -1Q28 9 40 43T68 128T102 235T136 345Q149 387 162 432T187 522T209 603T225 665T234 698L319 696Q317 690 310 666T291 605T265 524T237 433T210 345Q194 292 177 236T145 129T120 44T107 0L25 -1Z" />
<glyph unicode="0" horiz-adv-x="521" d="M253 -10Q192 -10 155 17T100 93T76 205T70 343Q70 400 74 453T91 552T125 633T182 687T268 707Q318 707 352 688T405 635T435 554T448 454T451 342Q451 273 444 210T417 97T357 19T253 -10ZM258 59Q294 59 316 78T349
134T365 226T369 353Q369 419 366 471T352 560T321 616T265 635Q229 635 208 614T174 554T158 460T154 338Q154 230 161 169T190 84T258 59Z" />
<glyph unicode="1" horiz-adv-x="319" d="M152 0Q153 30 153 63T155 130T156 200T157 271T157 342Q157 371 157 407T157 481T157 555T155 619L204 694H247Q246 657 245 620T243 542T242 452T241 341Q241 278 241 231T242 145T244 71T246 0H152ZM29 574L24 643Q42
646 67 650T120 660T169 675T204 694L203 596Q190 591 168 587T121 580T72 576T29 574Z" />
<glyph unicode="2" horiz-adv-x="490" d="M123 47L49 71Q80 104 118 142T195 223T265 312T316 407T336 504Q336 549 326 576T295 614T244 626Q208 626 186 610T154 565T144 498Q144 479 145 458T151 416L73 415Q69 437 68 457T66 498Q66 543 77 579T111 643T168
685T249 700Q288 700 319 689T374 654T409 596T421 514Q421 458 400 402T343 292T267 192T189 108T123 47ZM47 -4L49 71Q72 71 100 71T157 71T210 71T251 72Q264 73 283 73T323 74T364 75T401 77T427 79L428 0Q421 0 401 0T356 0T305 0T262 0T240 0Q231 0 215 0T180
-1T141 -1T103 -2T70 -3T47 -4Z" />
<glyph unicode="3" horiz-adv-x="454" d="M221 -10Q168 -10 134 3T80 37T52 83T44 130L125 131Q125 117 131 105T149 82T179 67T224 61Q265 61 286 74T314 108T321 153Q321 197 305 219T260 249T190 258Q181 258 170 258T148 258T127 258T111 256L109 330Q115
330 123 330T143 329T164 328T184 328Q230 328 259 351T301 411T315 494Q315 536 308 565T280 610T219 625Q193 625 176 618T148 596T133 563T129 520H47Q46 562 58 594T92 650T148 685T221 697Q271 697 305 683T360 642T390 580T399 502Q399 466 390 427T356 355T288
301Q322 294 348 276T389 228T403 159Q404 110 385 72T326 12T221 -10Z" />
<glyph unicode="4" horiz-adv-x="493" d="M106 179L31 214Q43 239 55 265T79 317T105 372T131 430Q147 464 162 499T192 569T221 636T250 700L366 696Q367 696 356 688T330 663T307 622Q299 605 283 570T245 488T201 394Q182 351 163 310T130 235T106 179ZM47
135L31 214Q35 214 51 214T92 213T144 212T198 211T245 212Q271 213 306 214T375 217T433 220T459 221V140Q457 140 433 140T375 140T306 140T246 140Q227 140 202 140T149 138T99 137T61 136T47 135ZM275 -3Q276 33 276 70T277 144T278 218T279 289T280 355Q280
398 280 438T279 519T278 600T277 687L366 696Q366 658 365 624T364 552T363 470T362 364Q362 301 362 252T363 160T364 80T365 0L275 -3Z" />
<glyph unicode="5" d="M228 -10Q182 -10 149 2T93 37T61 89T50 155L133 159Q133 134 140 112T168 77T231 63Q271 63 297 84T335 144T348 235Q348 270 339 301T308 353T245 374Q223 374 204 367T170 343T143 300L122 367Q136 392 155 410T200 438T256 448Q308 448
342 428T395 376T423 304T432 226Q432 171 419 127T379 53T316 6T228 -10ZM143 300L61 296Q62 316 63 339T66 390T69 446T71 505Q72 537 72 572T72 636T72 684T71 702L161 696Q159 668 158 646T156 602T155 556T153 502Q152 474 151 448T148 396T145 348T143 300ZM96
621L71 701Q78 701 98 701T143 699T195 698T241 698Q261 698 288 698T342 697T387 697T408 697L404 621Q402 621 384 621T340 622T287 623T243 623Q210 623 183 623T136 622T106 622T96 621Z" />
<glyph unicode="6" horiz-adv-x="501" d="M256 -10Q183 -10 141 24T80 132T62 321Q62 431 76 506T117 627T183 693T274 713Q334 713 369 688T419 622T435 534Q435 517 434 501T429 468L346 466Q348 480 349 494T351 522Q351 553 344 580T319 624T269 641Q236 641
214 625T179 577T158 499T149 393T146 263Q146 228 148 192T162 128T195 82T257 64Q280 64 298 73T330 100T350 140T358 193Q358 254 334 284T261 315Q229 315 204 303T164 267T147 202L119 274Q130 310 150 335T199 375T267 389Q319 389 358 368T419 303T441 196Q441
148 427 110T389 45T331 4T256 -10Z" />
<glyph unicode="7" horiz-adv-x="398" d="M105 -1Q104 56 108 110T120 215T140 313T167 402Q184 453 206 497T253 578T306 646T362 700V619Q340 587 318 551T275 470T239 371Q226 324 216 268T202 145T198 0L105 -1ZM26 619L25 700Q39 699 59 699T102 698T148
698T189 698Q206 698 230 698T279 698T326 699T362 700L355 623Q342 623 319 623T270 622T218 622T176 621Q158 621 138 621T97 621T58 620T26 619Z" />
<glyph unicode="8" horiz-adv-x="479" d="M232 267Q178 267 140 293T82 365T62 469Q62 536 79 589T137 675T244 707Q308 707 346 679T400 599T417 479Q417 410 395 363T332 292T232 267ZM230 -10Q169 -10 128 11T65 70T43 154Q43 199 62 241T126 309T245 335Q315
335 357 312T417 249T436 162Q436 106 413 68T344 10T230 -10ZM239 57Q306 57 330 84T355 157Q354 216 327 242T240 267Q201 267 176 255T137 218T124 162Q124 112 149 85T239 57ZM240 335Q274 335 295 354T325 404T335 474Q335 535 327 569T298 619T243 634Q190
634 168 597T146 481Q146 438 155 405T185 354T240 335Z" />
<glyph unicode="9" horiz-adv-x="501" d="M228 -10Q176 -10 142 9T90 64T72 144Q72 151 72 159T74 175L156 177Q155 170 155 164T155 151Q155 123 163 103T189 73T234 62Q275 62 299 87T336 159T352 276T357 434Q357 473 354 509T341 574T308 621T246 639Q212
639 189 618T156 561T145 480Q145 434 154 400T184 347T241 328Q275 328 300 340T341 379T357 447L385 369Q375 334 355 308T304 268T235 254Q179 254 141 281T82 358T62 477Q62 546 83 599T146 683T247 713Q320 713 362 679T423 572T441 382Q441 272 427 197T386
76T319 10T228 -10Z" />
<glyph unicode=":" horiz-adv-x="276" d="M181 0H98L95 138L181 146V0ZM181 374H98L95 511L181 520V374Z" />
<glyph unicode=";" horiz-adv-x="280" d="M142 -139L104 -119Q124 -88 131 -61T139 -2L97 1L95 127L183 134V5Q183 -36 173 -72T142 -139ZM183 374H102L99 511L183 520V374Z" />
<glyph unicode="&lt;" horiz-adv-x="500" d="M471 480L482 391Q477 390 457 384T408 370T343 351T272 330Q238 319 197 306T118 280T53 258T16 247L23 322Q29 324 49 331T98 349T161 372T229 396Q259 406 297 419T372 446T437 468T471 480ZM477 105Q465 109 439
117T380 137T311 158T245 178Q208 189 171 200T101 221T45 239T16 247L23 322Q28 321 53 313T114 295T190 272T264 251Q297 242 332 232T399 214T452 201T478 194L477 105Z" />
<glyph unicode="=" horiz-adv-x="500" d="M81 173V244Q85 244 103 244T147 243T199 242T247 242Q268 242 295 242T349 243T395 244T419 246L414 175Q410 175 392 175T347 176T295 177T250 177Q231 177 204 176T151 175T105 174T81 173ZM81 334L88 404Q93 404 111
404T153 403T204 402T251 402Q272 402 299 402T351 404T393 405T415 406L414 336Q409 336 391 336T347 336T295 337T250 337Q231 337 204 337T151 336T105 335T81 334Z" />
<glyph unicode="&gt;" horiz-adv-x="500" d="M27 105L16 194Q21 195 41 201T91 215T156 235T226 255Q261 266 301 279T380 305T446 327T482 338L476 263Q470 261 450 254T400 236T337 213T269 189Q240 179 202 166T126 139T62 117T27 105ZM22 480Q34 476 60 468T119
448T187 427T254 407Q290 397 327 386T398 364T453 346T482 338L476 263Q471 264 446 272T384 290T308 313T234 334Q201 343 166 353T99 371T46 384T20 391L22 480Z" />
<glyph unicode="?" horiz-adv-x="547" d="M312 215L229 216Q227 229 225 247T222 283Q222 321 235 347T267 393T306 432Q323 448 337 465T360 503T369 553Q369 584 357 604T325 633T275 643Q248 643 226 632T190 596T177 535Q177 516 180 495T191 451L107 452Q100
475 97 496T94 539Q94 582 108 614T148 669T208 704T282 716Q333 716 371 698T431 644T453 559Q453 510 439 478T404 422T362 380Q338 359 321 336T304 278Q304 260 306 246T312 215ZM320 -3L229 0L230 134L311 136L320 -3Z" />
<glyph unicode="@" horiz-adv-x="938" d="M445 -172Q350 -172 278 -139T156 -49T82 84T56 243Q56 313 73 381T126 510T214 617T336 690T493 717Q598 717 672 687T792 603T860 483T882 343Q882 277 865 214T814 101T734 20T627 -10Q591 -10 570 3T537 37T523 78Q502
49 480 29T434 0T380 -10Q342 -10 313 11T268 76T252 184Q252 264 263 326T295 432T342 506T399 548T461 562Q494 562 520 545T562 498L569 553L655 563Q648 514 641 458T626 346T612 244T601 165T597 122Q597 105 599 88T611 61T640 50Q677 50 708 73T762 137T797
229T810 334Q810 396 793 453T740 557T642 629T494 656Q403 656 335 621T220 526T150 393T126 243Q126 170 146 106T208 -7T309 -84T450 -112Q516 -112 576 -101T685 -67L709 -118Q652 -146 586 -159T445 -172ZM401 59Q431 59 457 81T502 143T529 242L540 330Q546
375 542 412T519 471T465 493Q444 493 425 482T388 449T358 392T338 308T331 195Q331 149 338 119T361 74T401 59Z" />
<glyph unicode="A" horiz-adv-x="464" d="M347 -6Q337 48 327 106T305 224T282 343Q274 383 267 422T252 498T239 572T226 641L171 701L295 704Q300 671 307 631T323 546T340 454T360 359Q373 292 387 228T414 105T439 -1L347 -6ZM106 152V230L350 226V159L106
152ZM112 5L26 6Q37 51 49 108T74 228T102 357Q116 421 128 483T151 601T171 701L295 704L236 635Q227 593 217 546T198 450T178 349Q167 290 156 231T134 115T112 5Z" />
<glyph unicode="B" horiz-adv-x="459" d="M130 211L126 267Q181 267 219 277T281 309T316 371T327 468Q327 534 315 573T274 631T196 649Q176 649 152 647T100 639L69 713Q102 716 131 717T187 719Q267 719 316 698T389 623T412 471Q412 401 392 352T335 271T246
226T130 211ZM186 -10Q169 -10 149 -10T109 -8T68 -6L108 68Q138 65 166 63T220 60Q252 60 277 65T318 85T334 129Q334 151 323 167T285 191T209 200Q202 200 187 200T155 199T130 199L126 267Q237 268 301 252T392 204T419 126Q419 71 390 42T308 1T186 -10ZM68
-6Q68 -6 68 23T70 102T71 212T72 337Q72 401 72 467T71 589T70 679T69 713L162 704Q162 704 161 678T159 610T157 518T155 421T154 339Q154 303 154 259T156 170T157 88T158 27T159 4L68 -6Z" />
<glyph unicode="C" horiz-adv-x="453" d="M236 -9Q187 -9 154 9T102 60T73 139Q66 168 63 201T58 270T57 344Q57 371 57 398T60 450T66 500T76 546Q88 593 109 628T164 682T248 702Q310 702 344 676T391 605T405 502Q405 467 402 429T392 352H309Q312 376 314
400T318 448T319 496Q319 537 313 567T291 615T244 632Q206 632 185 601T154 519Q151 499 149 476T146 428T145 381T144 335Q144 285 145 241T153 162Q163 113 180 88T239 63Q271 63 287 74T311 107T318 161Q318 172 317 185T315 211H395Q397 198 398 185T400 159Q400
109 382 72T328 13T236 -9Z" />
<glyph unicode="D" horiz-adv-x="474" d="M181 -10Q165 -10 148 -10T111 -7T73 -4L120 71Q135 69 149 67T176 65T201 64Q245 64 272 81T312 134T329 225T333 356Q333 425 330 478T313 566T274 620T200 638Q180 638 156 636T102 627L70 701Q103 704 133 706T188
708Q260 708 305 691T375 633T409 526T419 358Q419 278 414 217T394 113T353 43T284 3T181 -10ZM73 -4Q74 38 75 99T76 230T77 360Q77 422 76 486T74 606T70 701L161 692Q161 667 161 635T160 568T159 496T159 424T158 359Q158 334 158 300T158 226T159 146T160
67T162 -3L73 -4Z" />
<glyph unicode="E" horiz-adv-x="420" d="M70 -4Q70 -4 70 19T71 82T72 172T73 276T74 381Q74 445 73 502T72 604T71 674T70 700L161 690Q161 690 161 670T160 616T160 541T159 459T158 383Q158 348 158 299T159 199T160 104T161 33T162 5L70 -4ZM70 -4L119 73L376
68V0L70 -4ZM114 198V276L373 273L371 202L114 198ZM107 618L70 700L364 693V619L107 618Z" />
<glyph unicode="F" horiz-adv-x="397" d="M71 -2Q71 -2 71 25T73 100T74 208T75 331Q75 395 75 461T73 584T72 674T71 709L163 698Q163 698 163 672T162 602T161 509T160 412T159 330Q159 294 159 251T160 163T161 83T162 24T163 1L71 -2ZM116 243V321L351 319L353
250L116 243ZM116 629L71 709L351 701L348 630L116 629Z" />
<glyph unicode="G" horiz-adv-x="456" d="M56 346Q56 375 57 404T60 459T66 509T77 556Q95 628 135 669T246 711Q305 711 338 688T385 622T399 520Q399 489 396 455T388 383H304Q310 426 313 462T316 527Q316 564 310 589T287 626T243 639Q204 639 184 608T154
527Q150 507 149 485T146 440T144 394T143 346Q143 310 143 278T146 219T152 169Q159 119 179 93T239 66Q270 66 289 76T317 108T327 158Q327 167 326 177T323 198L240 196V266L399 264L404 0H362L350 40Q332 22 306 8T227 -7Q179 -7 148 12T99 66T71 145Q64 175
61 208T57 275T56 346Z" />
<glyph unicode="H" horiz-adv-x="499" d="M326 0Q326 7 327 37T329 113T331 208T333 303T334 381Q334 414 334 455T333 538T332 616T332 677T330 706L429 708Q428 701 427 673T424 601T422 500T420 383Q420 321 421 257T422 137T424 44T425 0H326ZM125 259L385
266V185L125 189V259ZM74 2Q75 9 76 42T77 125T78 234T79 353Q79 414 78 472T75 579T73 658T71 694L169 698Q169 694 169 668T168 602T167 517T166 429T165 352Q165 320 165 277T166 188T167 102T168 35T169 3L74 2Z" />
<glyph unicode="I" horiz-adv-x="236" d="M72 700L168 702Q168 702 167 678T165 614T162 526T160 431T159 344Q159 304 159 258T160 166T161 83T162 22T163 -1L68 1Q68 1 69 21T70 75T72 154T73 246T74 342Q74 395 74 450T74 556T74 643T72 700Z" />
<glyph unicode="J" horiz-adv-x="415" d="M186 -9Q125 -9 91 17T43 86T29 185Q29 213 32 241T39 299L117 298Q115 276 114 256T111 218T110 182Q110 142 117 115T141 74T188 60Q213 60 228 72T252 105T263 153T266 212Q266 228 266 247T266 290T266 339T265 396Q265
422 265 459T264 538T263 621T260 695L352 697Q351 627 351 549T350 402Q350 368 350 337T350 274T350 207Q350 158 342 119T315 51T265 7T186 -9Z" />
<glyph unicode="K" horiz-adv-x="446" d="M337 1Q305 46 270 93T197 188T122 279Q155 337 187 396T249 512T303 617T346 702L442 704Q423 673 400 633T350 548T299 458T251 372T211 300Q237 266 265 230T323 157T384 82T449 5L337 1ZM70 0Q70 6 70 31T72 93T73
176T74 267T75 355Q75 408 75 466T74 576T73 663T71 703L165 701Q165 697 165 673T164 612T162 531T161 442T160 356Q160 318 160 272T161 180T162 95T163 31T164 1L70 0Z" />
<glyph unicode="L" horiz-adv-x="385" d="M70 -5Q70 22 70 65T72 160T73 268T74 374Q74 425 73 475T72 569T71 647T70 699L164 705Q163 685 162 654T160 586T159 511T158 438T158 375Q158 348 158 310T158 230T159 146T160 68T161 5L70 -5ZM70 -5L119 74L375 71V2L70 -5Z" />
<glyph unicode="M" horiz-adv-x="671" d="M70 -1Q71 32 71 72T72 157T73 250T73 347Q73 397 73 445T73 539T73 626T71 702L191 704Q199 670 207 629T226 543T248 450T270 355Q279 319 287 284T304 216T319 154T333 100Q340 127 348 157T363 221T379 290T397 362Q407
409 417 453T438 540T456 622T473 697H600Q600 670 600 634T599 554T598 462T598 364Q598 315 598 266T599 169T600 78T601 -2L515 0Q515 33 515 64T516 124T516 180T516 234T516 286T517 337Q517 379 517 415T517 486T516 555Q507 521 499 487T482 418T464 344Q455
310 447 273T428 194T406 107T381 8L284 12Q271 62 260 107T238 195T219 275T201 350Q192 387 184 421T167 487T149 550Q149 540 149 510T149 435T150 337Q150 306 150 272T151 204T151 134T151 65T152 -1H70Z" />
<glyph unicode="N" horiz-adv-x="506" d="M70 704H191Q198 676 209 639T232 559T257 471T283 380Q297 334 310 291T334 212T353 150Q353 178 353 208T353 269T352 334T352 400Q352 431 352 462T351 526T351 589T350 652T349 715H436Q435 685 434 647T433 566T432
475T431 378Q431 329 431 280T431 184T431 92T433 10L316 2Q307 36 296 75T272 158T246 245T220 332Q211 363 202 392T185 448T169 499T154 544Q154 521 154 495T154 439T155 379T155 313Q155 284 155 253T156 191T156 127T157 63T158 0L73 1Q73 33 73 71T74 151T75
239T75 330Q75 382 75 433T74 533T73 625T70 704Z" />
<glyph unicode="O" horiz-adv-x="481" d="M233 -5Q185 -5 153 13T102 64T72 143Q66 173 63 206T58 278T57 357Q57 383 58 408T61 457T66 505T75 551Q92 618 133 661T250 705Q300 705 332 685T382 629T411 547Q419 504 421 455T424 355Q424 311 422 270T414 191T398
122Q379 64 341 30T233 -5ZM237 67Q263 67 279 80T307 118T324 178Q331 215 333 261T335 360Q335 403 334 442T329 513Q322 571 303 603T245 636Q205 636 184 603T155 513Q152 495 150 475T147 434T146 391T145 345Q145 295 147 250T154 170Q160 137 170 114T196
79T237 67Z" />
<glyph unicode="P" horiz-adv-x="434" d="M130 211L127 285Q176 284 212 291T273 316T309 369T322 458Q322 530 311 570T271 626T191 643Q178 643 164 643T133 641T99 637L69 710Q88 712 105 713T140 714T172 715Q255 715 306 695T382 619T407 461Q407 367 373
312T277 234T130 211ZM69 -6Q70 36 71 96T72 225T73 356Q73 419 72 485T71 611T69 710L162 703Q161 675 161 641T159 570T158 496T158 424T157 358Q157 333 157 299T157 225T158 146T159 69T161 -1L69 -6Z" />
<glyph unicode="Q" horiz-adv-x="481" d="M233 -5Q185 -5 153 13T102 64T72 143Q66 173 63 206T58 278T57 357Q57 383 58 408T61 457T66 505T75 551Q92 618 133 661T250 705Q300 705 332 685T382 629T411 547Q419 504 421 455T424 355Q424 311 422 270T414 191T398
122Q379 64 341 30T233 -5ZM237 67Q263 67 279 80T307 118T324 178Q329 202 331 231T334 293T335 360Q335 403 334 442T329 513Q322 571 303 603T245 636Q205 636 184 603T155 513Q152 495 150 475T147 434T146 391T145 345Q145 311 146 280T149 221T154 170Q162
121 181 94T237 67ZM385 -72L213 114L252 149L449 -22L385 -72Z" />
<glyph unicode="R" horiz-adv-x="460" d="M131 221L127 295Q175 294 211 301T272 326T310 377T323 463Q323 534 311 572T270 627T191 643Q172 643 149 642T99 637L69 710Q88 712 106 713T141 714T173 715Q255 715 306 696T382 622T407 466Q407 374 374 321T278
244T131 221ZM69 -6Q70 36 71 96T72 225T73 356Q73 419 73 485T72 611T69 710L163 703Q162 676 162 643T160 572T159 497T159 424T158 358Q158 328 158 283T159 188T160 89T162 -1L69 -6ZM339 -6Q312 62 282 130T214 272L297 302Q328 229 365 153T447 -3L339 -6Z"
/>
<glyph unicode="S" horiz-adv-x="449" d="M223 -10Q175 -10 141 3T87 40T56 93T46 158Q46 173 47 188T52 220H134Q131 204 130 189T128 159Q128 131 135 109T163 73T219 60Q257 60 279 72T310 103T320 147Q320 171 310 189T281 221T240 250T191 279Q164 296 138
316T91 363T58 426T45 509Q45 566 66 610T129 679T231 704Q302 704 340 676T394 603T409 505Q409 486 408 467T404 430T400 394H313Q317 421 319 449T322 504Q322 539 315 568T287 615T228 632Q201 632 183 623T153 596T136 556T131 508Q131 467 145 438T184 388T238
349Q269 331 298 313T353 274T392 223T407 154Q407 106 386 69T324 11T223 -10Z" />
<glyph unicode="T" horiz-adv-x="403" d="M150 2Q151 18 152 49T154 120T156 205T157 294T158 374Q158 423 157 477T156 579T154 656T153 686L247 685Q247 685 247 667T246 618T245 547T244 460T244 367Q244 320 244 269T245 170T246 84T247 23T248 0L150 2ZM4
620L7 701Q7 701 27 701T76 701T135 702T184 702Q200 702 226 702T281 702T336 703T379 704T396 704L399 628Q399 628 384 628T344 628T292 627T239 626T197 626Q181 626 157 625T107 624T57 622T19 621T4 620Z" />
<glyph unicode="U" horiz-adv-x="482" d="M241 -10Q192 -10 160 5T107 47T78 111T69 191Q69 226 69 269T70 355T70 432Q70 477 70 520T70 606T67 696L159 695Q158 662 157 626T156 553T155 485T154 426Q154 397 154 367T153 307T153 255T153 216Q153 168 161 134T188
82T243 63Q270 63 287 75T313 108T326 153T329 203Q329 213 329 242T330 317T330 424Q330 488 329 540T326 634T324 707L415 706Q415 673 415 643T414 580T413 510T412 422Q413 337 413 277T413 193Q413 161 406 126T381 59T329 9T241 -10Z" />
<glyph unicode="V" horiz-adv-x="457" d="M23 710L119 711Q130 648 141 587T163 466T184 349Q192 306 200 264T216 180T232 97Q239 132 247 173T264 261T282 355Q290 399 298 444T314 533T331 621T346 703L437 707Q430 674 421 634T402 548T382 455T363 359Q353
310 343 261T324 166T307 77T291 0L170 1Q164 34 156 74T138 159T120 252T100 348Q90 398 80 447T59 544T40 633T23 710Z" />
<glyph unicode="W" horiz-adv-x="760" d="M278 -2H163Q156 37 145 91T122 211T95 343Q85 395 75 445T56 542T38 629T23 702H117Q127 646 137 588T157 474T176 362Q183 327 188 293T200 227T213 163T225 101Q231 127 237 157T251 220T265 288T279 358Q290 413 300
466T318 567T333 651L433 652Q439 614 447 566T465 463T487 351Q493 320 499 288T511 225T524 163T538 103Q544 135 552 175T569 263T587 361Q598 420 609 480T631 599T651 709L739 712Q732 678 724 637T706 549T686 452T665 352Q653 286 641 222T617 101T597 -2L478
-1Q472 34 464 74T448 159T431 248T414 335Q408 367 402 395T391 450T380 497Q377 477 372 453T361 402T350 345Q341 303 332 258T314 168T295 79T278 -2Z" />
<glyph unicode="X" horiz-adv-x="440" d="M-4 -2Q1 7 19 42T63 130T121 244T183 369Q210 427 236 482T284 582T318 657T335 692L430 691Q425 681 408 648T365 567T310 460T250 340Q221 280 195 223T147 118T112 39T94 -1L-4 -2ZM341 -11Q338 -4 325 28T292 110T246
217T192 335Q163 398 134 457T80 567T39 649T18 690L120 688Q123 682 134 656T164 587T207 493T257 385Q280 334 304 283T351 184T393 96T426 29T444 -7L341 -11Z" />
<glyph unicode="Y" horiz-adv-x="406" d="M155 0Q155 7 156 64T156 233L239 224Q240 184 241 146T243 78T244 27T245 1L155 0ZM-2 704H93Q102 669 112 628T134 542T156 455Q165 422 172 392T187 336T200 290Q207 310 214 335T230 388T247 449Q255 479 264 510T281
572T298 635T315 696L409 698Q402 675 392 646T371 583T349 512T325 438Q312 396 299 354T274 273T252 200T234 140H164Q156 170 146 204T126 276T104 353T80 433Q69 471 58 509T36 582T16 648T-2 704Z" />
<glyph unicode="Z" horiz-adv-x="390" d="M35 693Q51 692 71 692T113 691T159 691T204 692Q232 693 256 693T305 694T360 695L362 615Q340 568 317 521T272 426T227 330Q208 287 189 245T151 161T114 77Q132 77 150 77T187 77T221 77Q252 78 275 78T320 79T372
80L371 0Q349 0 328 0T286 1T243 2T195 3Q170 3 141 3T86 2T43 2T23 1L19 77Q52 147 84 215T147 350Q179 423 210 491T265 617Q252 617 237 617T206 618T176 618Q149 618 125 618T81 617T49 616T33 615L35 693Z" />
<glyph unicode="[" horiz-adv-x="445" d="M94 -137Q94 -134 95 -107T98 -36T101 65T103 182T104 304Q104 379 104 449T102 573T101 660T100 691L175 671Q174 658 174 630T174 564T174 481T174 394T174 311Q174 271 174 219T174 113T174 9T174 -78T175 -130L94
-137ZM94 -137L120 -62Q133 -62 157 -62T209 -63T266 -63T317 -63T349 -62L345 -130Q331 -130 305 -131T247 -133T185 -135T130 -136T94 -137ZM125 624L100 691Q112 691 137 691T193 691T254 693T308 694T342 695L350 626Q350 626 332 626T286 626T226 625T167
625T125 624Z" />
<glyph unicode="\" horiz-adv-x="343" d="M319 -1L236 0Q234 9 224 44T198 129T166 235T133 345Q120 387 106 433T78 523T53 604T34 665T25 696L110 698Q111 690 117 665T133 603T155 522T181 433T207 345Q223 291 241 235T275 129T303 44T319 -1Z" />
<glyph unicode="]" horiz-adv-x="445" d="M345 -134L271 -114Q271 -70 271 -22T271 73T272 165T272 246Q272 278 272 317T272 401T272 494T271 591T271 687L351 695Q349 660 348 609T345 498T342 376T341 254Q341 194 341 135T343 24T344 -69T345 -134ZM103 -137L96
-68Q112 -68 136 -68T187 -68T241 -67T288 -67T321 -66L345 -134Q336 -134 318 -134T276 -134T223 -135T164 -136T103 -137ZM96 619L100 687Q135 689 168 689T230 691T284 692T326 694T351 695L326 619Q315 620 298 620T258 620T208 620T153 620T96 619Z" />
<glyph unicode="^" horiz-adv-x="472" d="M324 369Q323 372 314 395T291 451T265 517Q255 543 243 571T218 626T198 671T188 694L260 698Q262 693 268 679T284 646T303 603T325 557Q335 536 348 508T374 450T398 400T412 372L324 369ZM144 372L61 375Q63 381 70
397T87 438T108 488T128 540Q143 575 156 610T179 670T189 694L260 698Q260 697 253 680T236 636T216 580T197 527Q189 504 181 479T164 431T151 393T144 372Z" />
<glyph unicode="_" horiz-adv-x="433" d="M47 -118L45 -45Q45 -45 60 -45T101 -46T155 -47T212 -47Q240 -47 271 -46T328 -45T372 -44T389 -43L387 -115Q387 -115 371 -115T330 -114T275 -114T218 -114Q193 -114 164 -115T108 -116T64 -117T47 -118Z" />
<glyph unicode="`" horiz-adv-x="213" d="M180 609Q169 615 156 621T130 633T102 646Q87 653 73 659T43 672T14 686L52 747Q70 734 90 721T131 695Q151 684 170 673T206 651L180 609Z" />
<glyph unicode="a" horiz-adv-x="387" d="M259 0L260 107L255 371Q254 422 236 444T189 467Q159 467 144 444T128 385Q128 373 130 360T136 332L64 328Q60 345 58 360T56 391Q56 432 71 462T117 509T191 526Q234 526 261 511T304 469T324 411T329 345L328 255L332
0H259ZM152 -7Q117 -7 93 9T55 54T42 120Q42 151 52 174T78 216T115 248T158 274Q177 285 194 295T225 317T247 341T255 371L294 358Q293 325 279 303T243 264T197 233Q176 219 158 205T128 172T117 127Q117 107 121 92T137 68T165 60Q194 60 214 80T246 139T258
230L292 290Q292 218 286 163T264 69T221 12T152 -7Z" />
<glyph unicode="b" horiz-adv-x="429" d="M233 -7Q202 -7 181 6T147 43T125 100T114 173T111 257L146 223Q146 166 156 131T183 78T222 61Q241 61 255 72T278 105T290 153Q293 176 295 198T298 242T299 288T300 337Q300 377 294 404T275 444T240 457Q216 457 195
439T160 386T147 298L112 251Q112 283 114 315T123 377T140 435T167 482T204 514T252 526Q294 526 320 505T360 446T375 359Q376 326 376 296T374 240T371 188T363 135Q352 71 319 32T233 -7ZM140 -1L65 1Q66 4 66 27T67 88T69 169T70 259T70 345Q70 396 69 453T67
561T64 648T62 694L151 699Q151 692 151 668T150 606T149 524T148 433T147 344Q147 310 147 268T146 181T145 97L140 -1Z" />
<glyph unicode="c" horiz-adv-x="402" d="M204 -12Q150 -12 119 18T72 97Q61 132 57 172T52 253Q52 303 57 347T77 427Q90 457 108 479T155 513T221 525Q269 525 298 503T340 442T353 357Q353 340 352 322T347 286L269 287Q271 309 273 329T275 367Q275 395 270
416T252 450T214 462Q185 462 169 443T144 390Q137 361 135 326T133 253Q133 232 133 211T136 171T141 134Q148 98 164 76T211 53Q236 53 251 63T273 92T280 132Q280 140 279 148T276 166L352 168Q353 160 353 153T354 137Q354 93 339 60T290 7T204 -12Z" />
<glyph unicode="d" horiz-adv-x="423" d="M54 256Q54 301 59 344T75 422Q91 469 120 498T198 527Q222 527 239 520T268 502T289 477Q289 497 289 525T288 584T287 644T286 693L371 694Q369 605 368 538T366 422T365 332Q365 299 365 267T365 204T366 139T367 72T369
0H292L291 65Q282 46 267 29T231 1T182 -10Q150 -10 128 2T91 37T69 90Q59 125 57 168T54 256ZM133 254Q133 219 133 187T137 130Q142 97 156 77T199 56Q230 56 248 82T275 147Q280 166 283 187T287 230T288 271Q288 298 286 326T279 380Q272 416 256 440T211 464Q194
464 181 455T160 429T145 392Q137 361 135 325T133 254Z" />
<glyph unicode="e" horiz-adv-x="404" d="M210 -12Q154 -12 122 16T74 92Q62 129 57 173T52 267Q52 309 57 347T73 416Q90 465 125 495T219 525Q270 525 298 503T339 442T352 354Q352 327 349 298T341 239L268 296Q271 317 272 336T274 371Q274 398 269 418T251
450T213 462Q187 462 171 444T146 397Q138 370 136 337T133 269Q133 244 133 220T135 174T140 133Q148 97 164 75T213 53Q238 53 252 64T273 93T279 133Q279 141 279 149T276 166H350Q352 156 352 146T353 127Q353 86 337 55T289 6T210 -12ZM81 232L80 299L335
301L341 239Q341 239 324 239T280 238T219 237T149 235T81 232Z" />
<glyph unicode="f" horiz-adv-x="316" d="M18 446L23 514Q23 514 37 514T74 513T123 513T174 512Q198 512 221 512T264 513T296 513T308 514L304 450Q304 450 293 450T262 450T220 450T172 449Q148 449 121 449T71 448T33 447T18 446ZM248 716Q290 716 319 700T362
655T373 593L295 596Q294 629 279 643T243 657Q220 657 208 643T190 605T182 553Q180 490 179 445T178 359T178 272Q178 200 180 138T183 38T185 0L92 -3Q92 -3 94 35T98 135T101 270Q101 316 101 347T101 405T101 461T101 532Q101 572 110 606T137 664T183 702T248
716Z" />
<glyph unicode="g" horiz-adv-x="425" d="M196 -166Q157 -166 130 -155T87 -122T72 -74Q72 -69 72 -65T73 -57L140 -46Q139 -50 139 -53T138 -59Q138 -73 146 -82T169 -97T202 -103Q224 -103 241 -95T270 -66T282 -3Q282 21 282 61T282 156T283 276Q283 311 283
342T286 401T290 458T297 516H373Q371 492 369 464T364 404T361 341T360 278Q360 224 360 183T360 112T361 58T361 15Q361 -30 351 -64T320 -121T269 -155T196 -166ZM187 -10Q142 -10 115 20T74 97Q63 134 59 177T54 262Q54 289 56 316T63 368T75 417Q91 464 121
494T201 524Q243 524 269 498T307 412T320 250L283 285Q283 336 276 375T253 437T212 460Q187 460 172 442T148 395Q139 366 136 332T133 263Q133 241 134 219T137 174T143 132Q147 110 154 93T173 66T201 56Q224 56 242 76T272 134T283 222L320 250Q320 229 319
197T311 129T291 62T252 10T187 -10Z" />
<glyph unicode="h" horiz-adv-x="434" d="M68 0Q68 6 68 37T69 115T70 218T71 326Q71 369 71 414T70 503T70 585T69 654T68 700H152Q152 686 152 650T151 566T149 463T148 357T148 263Q148 211 148 166T150 86T152 29T153 0H68ZM373 -2L280 1Q281 20 282 44T285
97T287 164T288 247Q288 262 288 279T288 317T288 362Q288 397 282 417T265 447T238 456Q217 456 196 439T162 379T148 263L109 223Q109 262 112 303T124 384T150 454T193 504T258 523Q289 523 313 509T351 460T365 368Q365 331 365 314T365 285T365 254Q365 202
366 163T368 95T370 43T373 -2Z" />
<glyph unicode="i" horiz-adv-x="233" d="M165 0L71 1Q72 7 73 29T76 88T79 169T80 267Q80 337 78 392T74 479T71 517L161 518Q161 514 160 480T158 391T157 266Q157 215 158 170T160 90T163 31T165 0ZM159 603L74 598L72 690L163 695L159 603Z" />
<glyph unicode="j" horiz-adv-x="217" d="M-15 -166L-17 -105Q7 -105 26 -98T57 -72T70 -22Q73 9 73 48T73 139T72 260Q72 328 71 383T69 474T67 516H156Q156 511 155 479T152 392T150 264Q150 220 150 189T150 134T150 89T150 45T148 -5Q147 -48 134 -79T99 -130T48
-158T-15 -166ZM69 598L67 691L154 695L152 602L69 598Z" />
<glyph unicode="k" horiz-adv-x="417" d="M334 0Q285 66 231 133T120 270Q166 327 199 369T259 448T314 522L401 520Q367 480 337 442T274 364T203 276Q256 208 310 143T429 3L334 0ZM67 0Q67 0 67 21T69 78T71 158T72 249T73 339Q73 382 73 431T72 527T72 613T71
675T70 698L155 697Q155 697 155 674T153 613T151 528T150 433T149 340Q149 296 149 249T151 158T153 79T154 22T155 1L67 0Z" />
<glyph unicode="l" horiz-adv-x="220" d="M67 2Q68 26 69 62T70 142T71 237T71 339Q71 380 71 429T71 527T70 619T68 696L155 697Q154 661 153 617T150 525T148 429T147 339Q147 286 148 225T151 107T155 10L67 2Z" />
<glyph unicode="m" horiz-adv-x="642" d="M281 1Q283 24 284 48T286 99T288 154T289 217Q289 245 289 268T289 312T289 358Q289 392 284 413T268 444T239 454Q215 454 196 434T165 373T153 275L113 230Q114 285 121 336T143 430T187 497T256 522Q283 522 302 511T334
479T352 428T362 359T364 275Q363 228 363 187T365 112T368 50T371 1H281ZM68 1Q70 24 71 47T74 99T75 163T76 247Q76 319 76 378T74 475T73 517L151 521Q151 501 151 465T151 380T153 275Q153 214 153 163T155 72T157 1H68ZM570 0L488 9Q490 46 491 76T495 135T498
197Q499 220 500 247T501 305T502 366Q502 396 497 417T481 451T453 463Q423 463 404 442T374 379T364 275L324 215Q323 281 329 337T350 436T393 502T469 526Q508 526 532 506T567 447T578 350Q578 329 578 303T577 251T576 200Q575 165 574 133T572 69T570 0Z"
/>
<glyph unicode="n" horiz-adv-x="439" d="M378 -2L285 1Q286 20 287 44T290 97T292 164T293 247Q293 262 293 279T293 317T293 362Q293 397 287 417T270 447T242 456Q222 456 201 439T166 379T152 263L113 223Q113 262 116 303T129 384T155 454T198 504T262 523Q294
523 318 509T356 460T370 368Q370 331 370 314T370 285T370 254Q370 202 370 163T372 95T375 43T378 -2ZM68 1Q69 23 70 45T73 94T75 158T76 247Q76 319 75 378T74 475T72 517L152 521Q152 501 151 462T150 371T152 263Q152 190 153 144T155 65T156 1H68Z" />
<glyph unicode="o" horiz-adv-x="427" d="M208 -10Q151 -10 119 21T73 103Q63 138 59 180T55 270Q55 300 57 328T65 383T80 431Q98 475 132 501T222 528Q276 528 307 497T354 417Q364 384 368 345T372 264Q372 221 369 182T357 110Q348 73 330 46T282 5T208 -10ZM215
58Q248 58 264 80T286 137Q290 154 291 171T292 208T293 247Q293 284 291 318T284 381Q277 417 261 439T215 461Q198 461 186 453T164 432T149 399Q143 379 140 355T135 305T134 253Q134 234 135 214T137 176T142 141Q149 104 166 81T215 58Z" />
<glyph unicode="p" horiz-adv-x="441" d="M68 -150Q68 -143 69 -118T71 -56T73 27T76 119T77 210Q77 249 77 294T76 383T74 462T70 516L154 519V449Q163 468 177 485T213 513T262 524Q316 524 341 490T378 401Q384 370 386 333T388 258Q388 226 386 195T377 135T362
82Q346 39 317 13T241 -13Q219 -13 203 -7T175 11T155 35L158 -148L68 -150ZM154 215Q154 169 161 132T186 72T232 50Q256 50 271 67T294 112Q303 143 306 182T309 260Q309 292 309 321T306 375Q302 412 289 435T244 458Q214 458 195 433T166 368T155 280L154 215Z"
/>
<glyph unicode="q" horiz-adv-x="420" d="M53 260Q53 310 58 356T76 439Q91 480 119 504T192 528Q219 528 238 517T270 489T290 452V524L373 526Q373 520 372 496T370 436T367 357T364 270T363 188Q363 151 363 108T365 21T366 -59T368 -120T369 -150L285 -149L287
46Q278 33 265 20T235 -1T193 -10Q160 -10 136 4T97 43T71 100Q61 135 57 177T53 260ZM132 265Q132 234 133 203T140 143Q147 105 162 80T208 55Q237 55 253 79T278 138Q284 164 285 193T287 249Q287 269 286 290T282 332T275 372Q266 410 249 436T204 463Q185
463 172 454T152 429T139 392Q133 365 133 332T132 265Z" />
<glyph unicode="r" horiz-adv-x="365" d="M255 228Q266 276 272 318T278 392Q278 426 268 445T232 465Q214 465 196 449T164 395T151 287L110 245Q111 278 114 317T127 395T151 464T190 513T249 532Q285 532 307 514T338 464T348 389Q348 354 343 313T328 228H255ZM65
0Q67 26 68 50T71 102T73 166T74 247Q74 294 74 334T72 408T70 469T66 518L147 522Q147 498 147 464T147 386T151 287Q151 241 151 200T152 122T153 56T155 1L65 0Z" />
<glyph unicode="s" horiz-adv-x="378" d="M188 -10Q141 -10 109 7T60 52T43 116Q43 127 44 137T48 157H123Q122 150 122 143T121 128Q121 106 127 90T148 63T190 53Q214 53 229 63T251 90T258 128Q258 150 244 165T207 192T156 219Q135 231 115 244T78 276T53
319T43 376Q43 427 63 462T118 515T193 534Q245 534 276 514T321 459T335 376Q335 366 335 355T333 332T329 308H248Q251 327 253 344T255 377Q255 417 242 442T192 468Q170 468 155 458T131 429T122 382Q122 356 130 338T155 308T190 283Q214 270 239 257T287
227T323 189T337 132Q337 87 318 56T265 7T188 -10Z" />
<glyph unicode="t" horiz-adv-x="386" d="M197 -10Q158 -10 132 2T92 37T71 90T65 155Q65 188 67 224T70 300Q73 366 75 410T79 482T82 530T83 570T82 615L176 616Q172 571 168 525T159 435T153 355T148 293Q146 257 145 226T143 168Q143 131 147 105T164 66T200
52Q225 52 239 66T260 104T266 159Q266 175 265 192T262 226T257 261H331Q334 244 335 228T338 196T339 165Q339 114 326 75T282 13T197 -10ZM23 445L29 515Q29 515 40 515T68 515T104 515T137 514T156 514Q175 514 198 514T246 515T292 516T327 516T340 517L334
454Q334 454 324 454T296 454T257 453T214 452T174 451Q151 451 125 450T75 448T38 446T23 445Z" />
<glyph unicode="u" horiz-adv-x="422" d="M162 -10Q121 -10 99 10T70 67T62 154Q62 162 62 184T64 237T65 305Q66 342 67 376T69 439T70 489T71 520L152 526Q151 501 150 474T146 417T143 355T139 287Q138 262 137 240T136 199T135 166T134 141Q134 114 138 94T151
63T176 52Q197 52 216 67T250 113T274 186T283 287L314 293Q314 244 310 199T295 116T268 50T224 6T162 -10ZM289 0L282 106Q283 152 283 197T283 287Q283 311 283 340T282 401T281 465T279 527L362 526Q361 503 361 476T359 420T358 365T357 318T357 284Q358 256
358 226T360 166T362 106T363 50T364 0H289Z" />
<glyph unicode="v" horiz-adv-x="391" d="M23 522H110Q114 496 118 469T128 413T140 348T155 270Q160 240 167 205T183 134T196 62Q201 88 206 115T217 169T229 221T239 268Q251 325 259 367T273 445T286 516L368 519Q366 511 361 488T347 428T328 349T308 258Q296
203 287 160T269 77T252 -6L140 -2Q134 31 129 59T117 117T104 180T86 259Q75 309 65 353T45 432T31 490T23 522Z" />
<glyph unicode="w" horiz-adv-x="617" d="M140 -3Q133 33 124 77T104 171T81 273Q75 306 67 337T52 399T38 459T24 516H114Q120 485 124 456T133 401T141 350T149 298Q156 261 162 224T176 149T191 71Q196 100 202 133T214 202T227 276Q233 313 238 347T249 415T258
482H363Q367 445 371 411T381 343T391 275Q398 230 404 190T415 120T422 71Q429 98 435 126T446 183T458 242T470 302Q476 331 481 358T491 413T500 466T510 520L595 518Q588 491 581 464T567 408T553 349T538 288Q527 241 517 192T496 94T473 -6L370 -2Q363 40
357 82T344 165T332 247Q326 282 321 315T309 379Q304 347 299 316T288 253Q281 209 274 168T259 87T244 0L140 -3Z" />
<glyph unicode="x" horiz-adv-x="345" d="M86 -4L-1 -2Q3 7 16 32T49 96T92 181T140 280Q164 330 184 371T219 443T243 493T255 519H339Q335 512 324 490T295 433T255 356T208 262Q183 210 162 166T126 86T100 27T86 -4ZM267 0Q264 6 254 28T228 86T190 165T143
262Q118 311 96 355T55 433T24 490T9 519H98Q101 513 110 494T133 444T166 372T211 280Q236 228 259 182T302 98T335 36T352 3L267 0Z" />
<glyph unicode="y" horiz-adv-x="398" d="M211 -151L124 -148Q135 -112 145 -77T165 -6T183 65T201 135T218 206T234 278Q243 324 250 360T265 433T280 519H369Q360 487 353 458T338 400T322 338T304 267Q294 224 284 181T265 94T246 8T228 -74T211 -151ZM172
-14Q166 12 159 38T144 93T128 150T112 209T94 270Q85 303 77 331T61 387T44 445T25 512L116 514Q127 464 134 428T150 359T168 286Q176 255 183 224T198 162T214 100T232 35L172 -14Z" />
<glyph unicode="z" horiz-adv-x="316" d="M77 10L20 72Q36 103 51 132T84 194T122 266Q140 303 157 338T192 412T232 496L295 439Q276 405 259 373T225 308T187 237Q167 197 149 160T113 86T77 10ZM21 -4L20 72Q20 72 37 72T80 72T132 71T176 71Q194 71 216 71T258
72T291 73T304 74L302 0Q302 0 288 0T251 0T204 0T161 0Q142 0 119 0T73 -2T36 -3T21 -4ZM28 439L30 513Q30 513 44 513T79 513T124 513T167 513Q188 513 209 513T250 514T280 515T292 516L295 439Q295 439 280 439T242 440T194 440T151 441Q133 441 112 441T71
440T40 440T28 439Z" />
<glyph unicode="{" horiz-adv-x="528" d="M319 -133Q258 -133 221 -99T184 1Q184 29 189 55T200 108T206 161Q206 187 196 203T169 227T135 237T102 239L94 306Q109 306 128 308T165 318T194 343T206 384Q206 404 201 428T190 477T179 526T174 572Q174 639 209
672T305 706Q330 706 358 700T418 680L399 619Q372 629 351 635T312 641Q279 641 262 621T245 560Q245 547 249 524T260 473T271 419T276 374Q276 337 255 311T194 278Q234 271 256 243T278 177Q278 159 275 136T268 89T260 45T257 12Q257 -30 275 -50T326 -70Q345
-70 367 -64T417 -47L432 -107Q402 -120 373 -126T319 -133Z" />
<glyph unicode="|" horiz-adv-x="239" d="M160 -136L79 -134Q79 -134 79 -108T80 -36T81 64T81 178T82 288Q82 339 82 395T82 505T81 600T80 668T80 693L159 694Q159 694 158 670T156 603T154 508T151 398T150 289Q150 237 151 179T153 64T156 -37T159 -110T160 -136Z" />
<glyph unicode="}" horiz-adv-x="528" d="M223 -133Q198 -133 169 -127T109 -107L129 -46Q155 -56 176 -62T216 -68Q248 -68 265 -48T283 13Q283 26 279 49T268 100T257 154T252 199Q252 237 273 262T333 295Q294 302 272 330T250 396Q250 414 253 437T260 484T268
528T271 561Q271 604 253 623T202 643Q183 643 160 637T111 620L95 680Q126 693 155 699T209 706Q270 706 307 672T344 572Q344 544 339 518T328 465T322 412Q322 386 332 370T358 346T393 336T426 334L434 267Q419 267 400 265T362 255T333 231T322 189Q322 169
327 145T338 96T349 47T354 1Q354 -65 318 -99T223 -133Z" />
<glyph unicode="~" horiz-adv-x="500" d="M75 242L71 300Q90 310 113 316T161 322Q194 322 216 318T259 310T306 305Q346 305 371 313T420 332L422 271Q410 264 383 255T314 245Q291 245 266 249T215 257T167 261Q152 261 134 258T100 251T75 242Z" />
<glyph unicode="&#xa0;" horiz-adv-x="231" />
<glyph unicode="&#xa1;" horiz-adv-x="286" d="M96 -148Q97 -141 98 -119T100 -66T102 0T104 66T106 121Q107 149 107 180T109 240T110 290T111 321L175 323Q176 312 176 284T178 214T181 120Q182 82 183 39T186 -43T189 -110T190 -146L96 -148ZM103 415L97 550L186
556L179 415H103Z" />
<glyph unicode="&#xa2;" horiz-adv-x="500" d="M242 28Q192 28 160 51T109 112Q93 144 86 185T78 270T84 355T106 429Q120 458 140 480T190 514T259 526Q315 526 348 503T395 443T410 361Q410 346 409 331T404 301L327 303Q329 318 330 334T332 365Q332 391 326
413T302 449T251 463Q222 463 203 445T174 397Q166 374 162 343T158 277T161 211T173 158Q183 130 201 112T248 93Q298 93 317 120T337 185Q337 194 336 203T333 222L410 223Q411 215 411 207T412 190Q412 143 395 107T341 49T242 28ZM281 -44L217 -43Q218 -37
219 -10T221 63T223 174T224 322Q224 388 224 435T224 513T223 563T222 592T221 607L285 604Q284 596 282 571T278 506T274 417T272 311Q272 255 273 197T275 87T278 0T281 -44Z" />
<glyph unicode="&#xa3;" horiz-adv-x="500" d="M187 55L77 70Q108 75 126 88T152 122T160 168Q160 204 149 247T123 338T97 431T86 517Q86 572 106 614T166 681T264 706Q328 706 366 682T420 617T437 531Q437 508 434 484T423 437L345 436Q350 456 353 477T357
521Q357 551 349 577T321 620T267 636Q233 636 210 622T176 582T165 519Q165 467 176 422T201 334T227 254T238 178Q238 157 233 137T217 96T187 55ZM88 -4L77 70Q76 70 86 70T113 70T153 69T205 68T265 68Q283 68 303 68T346 70T392 71T440 73L435 -1Q422 -1 403
-1T362 0T320 0T285 0T264 0Q227 0 195 0T139 -2T102 -3T88 -4ZM66 258L73 328Q75 328 94 328T141 328T190 328T219 328Q237 328 261 329T309 331T352 332T380 333L367 261Q367 261 356 261T326 263T283 264T236 265Q213 265 184 264T128 262T84 259T66 258Z" />
<glyph unicode="&#xa4;" horiz-adv-x="600" d="M293 40Q235 40 194 58T126 109T87 182T75 270Q75 340 102 395T182 484T310 517Q385 517 435 488T510 406T535 284Q535 238 521 194T478 116T402 61T293 40ZM89 0L30 52L119 145L172 97L89 0ZM130 398L34 498L93
552L173 453L130 398ZM298 113Q348 113 380 132T428 188T444 276Q444 329 430 365T386 422T306 442Q266 442 239 428T196 390T173 337T166 277Q166 232 179 195T222 136T298 113ZM515 1L434 95L479 149L575 53L515 1ZM481 409L432 457L517 551L575 498L481 409Z"
/>
<glyph unicode="&#xa5;" horiz-adv-x="500" d="M201 0L203 221Q195 250 182 287T155 368T127 456Q110 506 94 553T65 640T44 704H139Q145 679 155 644T176 570T198 492Q208 458 217 426T235 369T246 330Q253 348 261 374T280 433T301 499Q309 524 317 550T333
602T348 651T361 696L456 698Q448 675 435 639T406 559T372 466Q355 418 339 371T309 284T286 216L292 1L201 0ZM82 86L88 156Q111 156 141 156T201 156T249 156Q270 157 299 157T357 159T410 161L398 90Q380 91 354 91T301 92T252 93Q231 93 200 92T138 90T82
86ZM83 205L88 274Q112 274 142 274T201 274T250 274Q271 275 299 275T358 277T410 279L399 208Q380 209 355 210T302 211T252 212Q231 212 201 211T139 209T83 205Z" />
<glyph unicode="&#xa6;" horiz-adv-x="239" d="M82 351Q82 412 82 472T81 583T81 663T80 693L159 694Q159 695 158 665T156 584T153 473T150 351H82ZM79 -134Q80 -103 80 -55T81 55T82 186H151Q152 128 153 71T156 -34T159 -109T160 -136L79 -134Z" />
<glyph unicode="&#xa7;" horiz-adv-x="448" d="M225 702Q282 702 314 680T358 622T371 540Q371 528 371 516T369 492T366 467H285Q288 483 290 501T292 539Q292 566 286 588T265 625T222 639Q199 639 184 628T161 596T154 547Q154 522 164 504T193 471T234 444Q261
429 286 416T330 386T361 347T372 292Q372 257 359 232T323 190T274 167T220 161L214 229Q224 225 238 226T264 234T286 254T295 287Q295 307 282 320T248 344T201 370Q176 383 153 398T113 434T85 482T75 547Q75 593 93 627T145 682T225 702ZM222 -110Q166 -110
134 -88T89 -29T76 52Q76 64 76 76T78 101T81 125H162Q159 109 157 91T155 53Q155 26 161 4T182 -33T225 -47Q249 -47 264 -36T286 -4T293 45Q293 71 283 89T254 121T213 148Q186 163 161 177T117 207T86 246T75 299Q75 335 88 361T124 403T173 427T227 431L233
363Q223 367 209 366T183 359T161 339T152 305Q152 286 165 272T202 246T251 220Q281 205 308 183T354 129T372 45Q372 0 354 -35T302 -90T222 -110Z" />
<glyph unicode="&#xa8;" horiz-adv-x="315" d="M291 630H223L221 717L294 712L291 630ZM91 630H23L21 717L94 712L91 630Z" />
<glyph unicode="&#xa9;" horiz-adv-x="727" d="M352 63Q277 63 224 89T137 160T89 262T74 382Q74 446 91 505T145 609T237 681T367 708Q444 708 498 682T586 610T637 506T653 386Q653 320 635 262T580 159T486 89T352 63ZM355 189Q320 189 299 208T267 259Q257
286 254 318T250 387Q250 423 253 453T263 508Q275 545 299 567T367 589Q400 589 420 573T448 528T457 464Q457 452 456 438T453 410L398 411Q400 429 401 445T402 476Q402 497 399 512T386 536T361 544Q341 544 330 529T313 488Q310 468 309 444T307 393Q307 365
308 340T313 295Q317 268 328 253T359 237Q377 237 386 244T401 265T406 296Q406 301 406 306T405 316T403 327L457 328Q458 322 458 316T458 304Q458 269 448 244T415 204T355 189ZM358 123Q419 123 462 145T532 204T571 287T584 383Q584 434 572 481T534 566T466
626T363 648Q313 648 276 632T213 589T172 528T149 457T142 384Q142 334 153 287T190 203T256 145T358 123Z" />
<glyph unicode="&#xaa;" horiz-adv-x="374" d="M75 520Q75 543 87 556T117 577T154 591Q173 597 189 601T216 612T227 631Q227 644 218 653T184 663Q161 663 147 653T133 620L84 626Q84 661 110 682T185 703Q223 703 244 691T273 660T280 624L278 528Q277 513
283 503T296 485L252 463Q244 469 238 477T230 497Q213 480 191 472T146 463Q127 463 111 469T85 488T75 520ZM127 524Q127 514 134 509T155 503Q171 503 187 509T216 526T228 556L229 578Q219 571 201 567T166 556Q150 550 139 544T127 524Z" />
<glyph unicode="&#xab;" horiz-adv-x="749" d="M101 242L96 315Q100 317 118 329T163 357T213 391Q235 407 256 422T297 451T336 480L375 420Q370 418 350 406T301 376T244 341Q212 321 182 300T129 262T101 242ZM344 100Q332 109 314 121T272 147T220 177Q193
192 167 206T123 229T101 242L96 315Q100 312 117 303T158 280T207 254T255 228Q284 213 310 199T354 176T377 163L344 100ZM377 242L372 315Q376 317 394 329T439 357T489 391Q511 407 532 422T573 451T612 480L651 420Q646 418 626 406T577 376T520 341Q488 321
458 300T405 262T377 242ZM620 100Q608 109 590 121T549 147T496 177Q470 192 444 206T399 229T377 242L372 315Q376 312 393 303T434 280T483 254T531 228Q560 213 586 199T630 176T653 163L620 100Z" />
<glyph unicode="&#xac;" horiz-adv-x="550" d="M32 309L27 380Q40 380 62 380T113 379T169 378T223 378T267 378Q277 378 296 378T341 379T395 379T454 381T514 383L509 311Q503 311 483 311T434 312T375 313T318 313T275 313Q257 313 234 313T184 312T130 311T77
310T32 309ZM445 138Q445 159 446 177T447 217T447 267Q447 287 447 302T445 330T443 360L514 383Q514 379 514 364T514 326T513 275Q513 250 513 230T515 189T517 142L445 138Z" />
<glyph unicode="&#xad;" horiz-adv-x="398" d="M75 255L81 325Q81 325 91 325T118 324T156 323T201 322Q224 322 245 322T284 323T311 324T321 325L324 255Q324 255 312 255T281 256T239 256T195 257Q173 257 152 257T113 256T86 256T75 255Z" />
<glyph unicode="&#xae;" horiz-adv-x="470" d="M226 225Q172 225 134 244T73 297T40 373T29 462Q29 509 41 553T79 631T143 686T239 706Q295 706 334 687T396 633T431 557T442 469Q442 421 430 378T392 300T324 245T226 225ZM231 274Q275 274 305 290T353 335T379
397T387 466Q387 502 380 535T355 596T307 640T233 656Q189 656 160 638T114 592T90 530T83 464Q83 429 90 395T114 334T160 291T231 274ZM270 322Q262 345 253 368T231 416Q226 415 222 415T212 414Q213 391 213 367T214 323L171 322Q171 347 171 388T172 467Q172
492 172 519T172 570T171 610Q178 611 185 611T199 611T212 612Q261 612 283 593T305 511Q305 481 296 461T268 429Q279 403 292 377T319 323L270 322ZM212 450Q232 451 244 456T261 475T266 510Q266 536 263 550T250 571T219 577Q218 577 217 577T214 577Q214
560 214 541T213 503T212 469Q212 464 212 459T212 450Z" />
<glyph unicode="&#xaf;" horiz-adv-x="305" d="M38 643V702L263 699L268 646L38 643Z" />
<glyph unicode="&#xb0;" horiz-adv-x="354" d="M179 500Q140 500 117 511T83 538T69 570T66 594Q66 644 96 674T176 704Q227 704 257 678T288 609Q288 561 258 531T179 500ZM180 532Q205 532 219 542T239 571T246 611Q246 642 224 657T176 672Q155 672 140 662T116
636T108 603Q108 587 113 571T135 543T180 532Z" />
<glyph unicode="&#xb1;" horiz-adv-x="500" d="M298 221L220 217Q221 221 221 239T223 282T224 335T224 386Q224 411 223 436T222 484T220 522T219 541L296 545Q296 542 295 527T293 489T290 440T289 387Q289 362 290 335T293 284T296 242T298 221ZM87 99L83 171Q86
170 105 170T150 169T204 168T253 169Q275 170 304 170T361 172T409 173T432 174L428 102Q425 102 407 102T363 103T309 103T261 103Q242 103 214 103T157 101T109 100T87 99ZM82 339L86 411Q88 411 102 411T137 411T183 410T230 410T269 410Q290 410 317 410T371
412T415 413T437 414L433 340Q431 340 414 341T372 342T320 344T270 345Q252 345 229 345T181 343T135 342T99 340T82 339Z" />
<glyph unicode="&#xb2;" horiz-adv-x="321" d="M132 590L78 606Q112 625 136 642T175 681T189 728Q189 743 184 753T162 763Q147 763 141 752T134 724Q134 717 135 709T138 692L82 691Q81 699 80 706T79 720Q79 757 100 781T165 805Q208 805 227 784T246 730Q246
698 228 671T183 624T132 590ZM77 562L78 606Q80 606 90 606T114 606T144 606T169 606Q186 607 204 607T235 607T249 608L250 563Q245 563 230 563T197 563T164 563Q150 563 131 563T97 562T77 562Z" />
<glyph unicode="&#xb3;" horiz-adv-x="321" d="M152 559Q118 559 101 570T79 597T73 626L128 627Q128 618 133 609T155 599Q172 599 177 608T182 628Q182 640 175 645T149 650Q146 650 140 650T126 650T113 650V683Q123 683 130 683T145 683Q158 683 167 685T182
695T187 724Q187 739 182 750T159 762Q145 762 139 754T133 733Q133 729 133 726T135 717L79 715Q78 720 77 725T76 736Q76 765 96 785T159 806Q201 806 221 786T241 738Q241 709 230 694T202 668Q216 665 226 654T237 622Q237 598 217 579T152 559Z" />
<glyph unicode="&#xb4;" horiz-adv-x="213" d="M42 609L16 651Q28 658 40 665T66 680T92 695Q105 704 118 712T145 730T170 747L209 686Q194 679 179 673T150 660T121 646Q107 640 93 634T67 621T42 609Z" />
<glyph unicode="&#xb5;" horiz-adv-x="422" d="M58 -163Q59 -105 59 -56T60 33T61 103T61 154Q61 164 62 195T63 269T65 357T68 444T69 514T70 548L152 554Q150 520 148 477T143 386T138 290Q137 257 136 229T134 179T133 144Q133 117 137 96T150 64T177 52Q205
52 229 80T267 161T282 290Q282 314 282 348T281 419T280 494T278 566L362 564Q361 542 360 511T359 445T357 379T356 322T356 284Q357 256 357 226T359 166T361 106T362 50T364 0H288L283 82Q267 40 240 15T169 -10Q155 -10 143 -7T124 2Q125 -39 125 -80T127
-163H58Z" />
<glyph unicode="&#xb6;" horiz-adv-x="600" d="M340 207Q272 207 221 218T136 258T85 335T67 456Q67 553 85 609T142 689T245 713Q261 713 280 713T320 713T359 712T390 710L340 207ZM306 -105Q307 -94 307 -63T308 11T309 105T310 203T310 293T311 359Q311 394
311 439T309 530T307 616T306 679T305 703L390 710Q390 711 390 681T389 599T388 484T387 357Q387 306 387 244T388 122T389 11T389 -70T390 -100L306 -105ZM439 -105Q439 -94 440 -63T441 11T441 103T442 200T442 290T443 359Q443 396 443 438T442 523T440 603T439
666T438 703L521 710Q522 710 522 680T521 598T519 484T518 357Q518 306 519 245T520 123T521 12T522 -69T522 -100L439 -105Z" />
<glyph unicode="&#xb7;" horiz-adv-x="280" d="M185 233L99 235L95 371L183 376L185 233Z" />
<glyph unicode="&#xb8;" horiz-adv-x="304" d="M105 -164Q91 -164 75 -163T44 -161L56 -113Q63 -114 74 -115T98 -117T124 -118Q150 -118 170 -114T191 -99Q191 -89 170 -83T97 -77L112 -38Q191 -36 225 -53T259 -98Q259 -123 237 -137T180 -158T105 -164ZM171
0L149 -77H97L119 0H171Z" />
<glyph unicode="&#xb9;" horiz-adv-x="321" d="M155 567Q157 594 158 624T159 686T158 748L184 801H220Q218 761 218 723T217 646T219 567H155ZM84 718L80 756Q97 758 117 764T155 780T184 801L186 734Q175 729 157 725T120 719T84 718Z" />
<glyph unicode="&#xba;" horiz-adv-x="359" d="M176 469Q144 469 122 483T87 523T75 588Q75 623 88 649T125 689T183 703Q219 703 241 689T274 649T284 590Q284 555 273 528T237 485T176 469ZM178 517Q200 517 211 525T226 551T230 593Q230 628 218 643T182 658Q155
658 143 641T130 589Q130 550 143 534T178 517Z" />
<glyph unicode="&#xbb;" horiz-adv-x="749" d="M653 266Q649 268 632 277T591 300T542 328T495 353Q461 371 428 388T372 417L405 480Q423 467 455 447T530 404Q561 386 594 369T648 339L653 266ZM377 266Q373 268 356 277T315 300T266 328T219 353Q185 371 152
388T96 417L129 480Q147 467 179 447T254 404Q285 386 318 369T372 339L377 266ZM413 100L375 161Q400 176 436 197T505 239Q543 263 582 291T648 339L653 266Q630 252 598 231T537 190Q503 166 473 144T413 100ZM137 100L99 161Q124 176 160 197T229 239Q267 263
306 291T372 339L377 266Q354 252 322 231T261 190Q227 166 197 144T137 100Z" />
<glyph unicode="&#xbc;" horiz-adv-x="725" d="M120 1Q146 43 171 85T223 170T274 255T325 341Q351 386 375 430T424 519T472 608T520 698L604 694Q578 649 551 605T498 516T446 428T394 338Q363 282 331 226T268 113T204 -1L120 1ZM160 462Q162 486 163 512T164
566T164 621Q147 617 127 615T89 613L85 651Q102 653 122 659T160 675T189 696H225Q223 656 223 618T222 541T224 462H160ZM535 -1L536 47L441 46L436 91L467 156Q475 176 484 197T501 236L587 235Q587 219 587 189T586 127V92L619 93V47H586L587 0L535 -1ZM489
90H536V205L489 90Z" />
<glyph unicode="&#xbd;" horiz-adv-x="725" d="M120 1Q146 43 171 85T223 170T274 255T325 341Q351 386 375 430T424 519T472 608T520 698L604 694Q578 649 551 605T498 516T446 428T394 338Q363 282 331 226T268 113T204 -1L120 1ZM465 -1L466 43Q499 62 523
79T562 118T576 165Q576 180 571 190T549 200Q535 200 528 189T521 161Q521 154 522 146T525 129L469 128Q468 136 467 143T466 157Q466 194 487 218T552 242Q595 242 614 221T634 167Q634 140 622 118T589 76T548 43Q565 44 582 44T614 44T637 45L638 0H551Q540
0 525 0T494 -1T465 -1ZM160 462Q162 486 163 512T164 566T164 621Q147 617 127 615T89 613L85 651Q102 653 122 659T160 675T189 696H225Q223 656 223 618T222 541T224 462H160Z" />
<glyph unicode="&#xbe;" horiz-adv-x="725" d="M120 1Q146 43 171 85T223 170T274 255T325 341Q351 386 375 430T424 519T472 608T520 698L604 694Q578 649 551 605T498 516T446 428T394 338Q363 282 331 226T268 113T204 -1L120 1ZM172 455Q138 455 121 466T99
493T93 522L148 523Q148 514 153 505T175 495Q192 495 197 504T202 524Q202 536 195 541T169 546Q166 546 160 546T146 546T133 546V579Q143 579 150 579T165 579Q178 579 187 581T202 591T207 620Q207 635 202 646T179 658Q165 658 159 650T153 629Q153 625 153
622T155 613L99 611Q98 616 97 621T96 632Q96 661 116 681T179 702Q221 702 241 682T261 634Q261 605 250 590T222 564Q236 561 246 550T257 518Q257 494 237 475T172 455ZM535 -1L536 47L441 46L436 91L467 156Q475 176 484 197T501 236L587 235Q587 219 587 189T586
127V92L619 93V47H586L587 0L535 -1ZM489 90H536V205L489 90Z" />
<glyph unicode="&#xbf;" horiz-adv-x="547" d="M235 340L318 339Q320 326 322 308T325 272Q325 237 314 212T285 168T249 131Q231 114 215 96T188 56T177 2Q177 -29 189 -49T223 -78T272 -88Q301 -88 323 -76T359 -40T372 20Q372 39 369 60T358 104L440 103Q447
81 450 59T453 16Q453 -26 439 -59T399 -114T339 -149T266 -161Q214 -161 176 -143T116 -90T94 -4Q94 49 110 83T151 142T198 187Q210 200 220 213T237 241T243 277Q243 295 241 309T235 340ZM319 559L314 421L237 419L227 555L319 559Z" />
<glyph unicode="&#xc0;" horiz-adv-x="464" d="M347 -6Q337 48 327 106T305 224T282 343Q274 383 267 422T252 498T239 572T226 641L171 701L295 704Q300 671 307 631T323 546T340 454T360 359Q373 292 387 228T414 105T439 -1L347 -6ZM106 152V230L350 226V159L106
152ZM112 5L26 6Q37 51 49 108T74 228T102 357Q116 421 128 483T151 601T171 701L295 704L236 635Q227 593 217 546T198 450T178 349Q167 290 156 231T134 115T112 5ZM287 732Q275 737 262 743T236 756T208 769Q194 776 179 782T149 795T120 808L159 870Q176 857
196 843T237 818Q257 806 276 795T312 774L287 732Z" />
<glyph unicode="&#xc1;" horiz-adv-x="464" d="M347 -6Q337 48 327 106T305 224T282 343Q274 383 267 422T252 498T239 572T226 641L171 701L295 704Q300 671 307 631T323 546T340 454T360 359Q373 292 387 228T414 105T439 -1L347 -6ZM106 152V230L350 226V159L106
152ZM112 5L26 6Q37 51 49 108T74 228T102 357Q116 421 128 483T151 601T171 701L295 704L236 635Q227 593 217 546T198 450T178 349Q167 290 156 231T134 115T112 5ZM183 734L157 777Q175 786 194 797T233 821Q246 829 259 837T286 855T311 873L350 811Q335 805
320 798T291 785T262 772Q248 765 234 759T208 747T183 734Z" />
<glyph unicode="&#xc2;" horiz-adv-x="464" d="M347 -6Q337 48 327 106T305 224T282 343Q274 383 267 422T252 498T239 572T226 641L171 701L295 704Q300 671 307 631T323 546T340 454T360 359Q373 292 387 228T414 105T439 -1L347 -6ZM106 152V230L350 226V159L106
152ZM112 5L26 6Q37 51 49 108T74 228T102 357Q116 421 128 483T151 601T171 701L295 704L236 635Q227 593 217 546T198 450T178 349Q167 290 156 231T134 115T112 5ZM328 740L234 792L141 742L114 772L194 843L273 841L353 774L328 740Z" />
<glyph unicode="&#xc3;" horiz-adv-x="464" d="M347 -6Q337 48 327 106T305 224T282 343Q274 383 267 422T252 498T239 572T226 641L171 701L295 704Q300 671 307 631T323 546T340 454T360 359Q373 292 387 228T414 105T439 -1L347 -6ZM106 152V230L350 226V159L106
152ZM112 5L26 6Q37 51 49 108T74 228T102 357Q116 421 128 483T151 601T171 701L295 704L236 635Q227 593 217 546T198 450T178 349Q167 290 156 231T134 115T112 5ZM146 757H96Q97 784 109 800T138 823T176 830Q206 830 234 820T287 810Q302 810 310 814T321
830H370Q369 802 357 786T328 763T290 757Q260 757 232 767T179 777Q164 777 157 773T146 757Z" />
<glyph unicode="&#xc4;" horiz-adv-x="464" d="M347 -6Q337 48 327 106T305 224T282 343Q274 383 267 422T252 498T239 572T226 641L171 701L295 704Q300 671 307 631T323 546T340 454T360 359Q373 292 387 228T414 105T439 -1L347 -6ZM106 152V230L350 226V159L106
152ZM112 5L26 6Q37 51 49 108T74 228T102 357Q116 421 128 483T151 601T171 701L295 704L236 635Q227 593 217 546T198 450T178 349Q167 290 156 231T134 115T112 5ZM95 840L168 835L166 753H98L95 840ZM295 840L368 835L366 753H298L295 840Z" />
<glyph unicode="&#xc5;" horiz-adv-x="464" d="M347 -6Q337 48 327 106T305 224T282 343Q274 383 267 422T252 498T239 572T226 641L171 701L295 704Q300 671 307 631T323 546T340 454T360 359Q373 292 387 228T414 105T439 -1L347 -6ZM106 152V230L350 226V159L106
152ZM112 5L26 6Q37 51 49 108T74 228T102 357Q116 421 128 483T151 601T171 701L295 704L236 635Q227 593 217 546T198 450T178 349Q167 290 156 231T134 115T112 5ZM233 737Q207 737 188 743T159 762T149 791Q149 820 171 836T231 852Q268 852 290 837T313 798Q313
772 291 755T233 737ZM233 770Q241 770 248 772T261 781T267 796Q267 809 256 814T231 819Q215 819 205 814T195 796Q195 787 199 782T212 773T233 770Z" />
<glyph unicode="&#xc6;" horiz-adv-x="650" d="M17 1Q28 29 42 69T73 155T107 251T142 348Q165 414 186 481T224 605T250 699L597 693V619L393 618Q393 589 393 560T393 500T392 441T392 383V276L606 273L604 202L392 199L394 72L609 68V0L302 -4L305 154L164
151Q152 113 140 76T116 -1L17 1ZM305 218L306 381Q306 415 306 451T305 524T303 587Q292 556 279 515T252 427T222 334Q212 305 203 277T185 219L305 218Z" />
<glyph unicode="&#xc7;" horiz-adv-x="453" d="M236 -9Q187 -9 154 9T102 60T73 139Q66 168 63 201T58 270T57 344Q57 371 57 398T60 450T66 500T76 546Q88 593 109 628T164 682T248 702Q310 702 344 676T391 605T405 502Q405 467 402 429T392 352H309Q312 376
314 400T318 448T319 496Q319 537 313 567T291 615T244 632Q206 632 185 601T154 519Q151 499 149 476T146 428T145 381T144 335Q144 285 145 241T153 162Q163 113 180 88T239 63Q271 63 287 74T311 107T318 161Q318 172 317 185T315 211H395Q397 198 398 185T400
159Q400 109 382 72T328 13T236 -9ZM186 -164Q171 -164 156 -163T125 -161L136 -113Q144 -114 155 -115T179 -117T204 -118Q231 -118 251 -114T272 -99Q272 -89 251 -83T178 -77L193 -38Q271 -36 305 -53T340 -98Q340 -123 318 -137T261 -158T186 -164ZM252 0L229
-77H178L200 0H252Z" />
<glyph unicode="&#xc8;" horiz-adv-x="420" d="M70 -4Q70 -4 70 19T71 82T72 172T73 276T74 381Q74 445 73 502T72 604T71 674T70 700L161 690Q161 690 161 670T160 616T160 541T159 459T158 383Q158 348 158 299T159 199T160 104T161 33T162 5L70 -4ZM70 -4L119
73L376 68V0L70 -4ZM114 198V276L373 273L371 202L114 198ZM107 618L70 700L364 693V619L107 618ZM279 732Q267 737 254 743T228 756T200 769Q186 776 171 782T141 795T112 808L151 870Q168 857 188 843T229 818Q249 806 268 795T304 774L279 732Z" />
<glyph unicode="&#xc9;" horiz-adv-x="420" d="M70 -4Q70 -4 70 19T71 82T72 172T73 276T74 381Q74 445 73 502T72 604T71 674T70 700L161 690Q161 690 161 670T160 616T160 541T159 459T158 383Q158 348 158 299T159 199T160 104T161 33T162 5L70 -4ZM70 -4L119
73L376 68V0L70 -4ZM114 198V276L373 273L371 202L114 198ZM107 618L70 700L364 693V619L107 618ZM175 734L149 777Q167 786 186 797T225 821Q238 829 251 837T278 855T303 873L342 811Q327 805 312 798T283 785T254 772Q240 765 226 759T200 747T175 734Z" />
<glyph unicode="&#xca;" horiz-adv-x="420" d="M70 -4Q70 -4 70 19T71 82T72 172T73 276T74 381Q74 445 73 502T72 604T71 674T70 700L161 690Q161 690 161 670T160 616T160 541T159 459T158 383Q158 348 158 299T159 199T160 104T161 33T162 5L70 -4ZM70 -4L119
73L376 68V0L70 -4ZM114 198V276L373 273L371 202L114 198ZM107 618L70 700L364 693V619L107 618ZM320 740L226 792L133 742L106 772L186 843L265 841L345 774L320 740Z" />
<glyph unicode="&#xcb;" horiz-adv-x="420" d="M70 -4Q70 -4 70 19T71 82T72 172T73 276T74 381Q74 445 73 502T72 604T71 674T70 700L161 690Q161 690 161 670T160 616T160 541T159 459T158 383Q158 348 158 299T159 199T160 104T161 33T162 5L70 -4ZM70 -4L119
73L376 68V0L70 -4ZM114 198V276L373 273L371 202L114 198ZM107 618L70 700L364 693V619L107 618ZM87 840L160 835L158 753H90L87 840ZM287 840L360 835L358 753H290L287 840Z" />
<glyph unicode="&#xcc;" horiz-adv-x="236" d="M72 700L168 702Q168 702 167 678T165 614T162 526T160 431T159 344Q159 304 159 258T160 166T161 83T162 22T163 -1L68 1Q68 1 69 21T70 75T72 154T73 246T74 342Q74 395 74 450T74 556T74 643T72 700ZM173 732Q161
737 148 743T122 756T94 769Q80 776 65 782T35 795T6 808L45 870Q62 857 82 843T123 818Q143 806 162 795T198 774L173 732Z" />
<glyph unicode="&#xcd;" horiz-adv-x="236" d="M72 700L168 702Q168 702 167 678T165 614T162 526T160 431T159 344Q159 304 159 258T160 166T161 83T162 22T163 -1L68 1Q68 1 69 21T70 75T72 154T73 246T74 342Q74 395 74 450T74 556T74 643T72 700ZM69 734L43
777Q61 786 80 797T119 821Q132 829 145 837T172 855T197 873L236 811Q221 805 206 798T177 785T148 772Q134 765 120 759T94 747T69 734Z" />
<glyph unicode="&#xce;" horiz-adv-x="236" d="M72 700L168 702Q168 702 167 678T165 614T162 526T160 431T159 344Q159 304 159 258T160 166T161 83T162 22T163 -1L68 1Q68 1 69 21T70 75T72 154T73 246T74 342Q74 395 74 450T74 556T74 643T72 700ZM213 740L119
792L26 742L-1 772L79 843L158 841L238 774L213 740Z" />
<glyph unicode="&#xcf;" horiz-adv-x="236" d="M72 700L168 702Q168 702 167 678T165 614T162 526T160 431T159 344Q159 304 159 258T160 166T161 83T162 22T163 -1L68 1Q68 1 69 21T70 75T72 154T73 246T74 342Q74 395 74 450T74 556T74 643T72 700ZM-20 840L53
835L51 753H-17L-20 840ZM180 840L253 835L251 753H183L180 840Z" />
<glyph unicode="&#xd0;" horiz-adv-x="474" d="M3 314L9 378Q22 378 44 378T94 377T155 375Q189 374 229 375T294 378L297 314Q278 315 251 315T197 315T149 316Q101 316 62 316T3 314ZM181 -10Q165 -10 148 -10T111 -7T73 -4L120 71Q135 69 149 67T176 65T201
64Q245 64 272 81T312 134T329 225T333 356Q333 425 330 478T313 566T274 620T200 638Q180 638 156 636T102 627L70 701Q103 704 133 706T188 708Q260 708 305 691T375 633T409 526T419 358Q419 278 414 217T394 113T353 43T284 3T181 -10ZM73 -4Q74 38 75 99T76
230T77 360Q77 422 76 486T74 606T70 701L161 692Q161 667 161 635T160 568T159 496T159 424T158 359Q158 334 158 300T158 226T159 146T160 67T162 -3L73 -4Z" />
<glyph unicode="&#xd1;" horiz-adv-x="506" d="M70 704H191Q198 676 209 639T232 559T257 471T283 380Q297 334 310 291T334 212T353 150Q353 178 353 208T353 269T352 334T352 400Q352 431 352 462T351 526T351 589T350 652T349 715H436Q435 685 434 647T433
566T432 475T431 378Q431 329 431 280T431 184T431 92T433 10L316 2Q307 36 296 75T272 158T246 245T220 332Q211 363 202 392T185 448T169 499T154 544Q154 521 154 495T154 439T155 379T155 313Q155 284 155 253T156 191T156 127T157 63T158 0L73 1Q73 33 73
71T74 151T75 239T75 330Q75 382 75 433T74 533T73 625T70 704ZM172 757H122Q123 784 135 800T164 823T202 830Q232 830 260 820T313 810Q328 810 336 814T347 830H396Q395 802 383 786T354 763T316 757Q286 757 258 767T205 777Q190 777 183 773T172 757Z" />
<glyph unicode="&#xd2;" horiz-adv-x="481" d="M233 -5Q185 -5 153 13T102 64T72 143Q66 173 63 206T58 278T57 357Q57 383 58 408T61 457T66 505T75 551Q92 618 133 661T250 705Q300 705 332 685T382 629T411 547Q419 504 421 455T424 355Q424 311 422 270T414
191T398 122Q379 64 341 30T233 -5ZM237 67Q263 67 279 80T307 118T324 178Q331 215 333 261T335 360Q335 403 334 442T329 513Q322 571 303 603T245 636Q205 636 184 603T155 513Q152 495 150 475T147 434T146 391T145 345Q145 295 147 250T154 170Q160 137 170
114T196 79T237 67ZM300 732Q288 737 275 743T249 756T221 769Q207 776 192 782T162 795T133 808L172 870Q189 857 209 843T250 818Q270 806 289 795T325 774L300 732Z" />
<glyph unicode="&#xd3;" horiz-adv-x="481" d="M233 -5Q185 -5 153 13T102 64T72 143Q66 173 63 206T58 278T57 357Q57 383 58 408T61 457T66 505T75 551Q92 618 133 661T250 705Q300 705 332 685T382 629T411 547Q419 504 421 455T424 355Q424 311 422 270T414
191T398 122Q379 64 341 30T233 -5ZM237 67Q263 67 279 80T307 118T324 178Q331 215 333 261T335 360Q335 403 334 442T329 513Q322 571 303 603T245 636Q205 636 184 603T155 513Q152 495 150 475T147 434T146 391T145 345Q145 295 147 250T154 170Q160 137 170
114T196 79T237 67ZM196 734L170 777Q188 786 207 797T246 821Q259 829 272 837T299 855T324 873L363 811Q348 805 333 798T304 785T275 772Q261 765 247 759T221 747T196 734Z" />
<glyph unicode="&#xd4;" horiz-adv-x="481" d="M233 -5Q185 -5 153 13T102 64T72 143Q66 173 63 206T58 278T57 357Q57 383 58 408T61 457T66 505T75 551Q92 618 133 661T250 705Q300 705 332 685T382 629T411 547Q419 504 421 455T424 355Q424 311 422 270T414
191T398 122Q379 64 341 30T233 -5ZM237 67Q263 67 279 80T307 118T324 178Q331 215 333 261T335 360Q335 403 334 442T329 513Q322 571 303 603T245 636Q205 636 184 603T155 513Q152 495 150 475T147 434T146 391T145 345Q145 295 147 250T154 170Q160 137 170
114T196 79T237 67ZM341 740L247 792L154 742L127 772L207 843L286 841L366 774L341 740Z" />
<glyph unicode="&#xd5;" horiz-adv-x="481" d="M233 -5Q185 -5 153 13T102 64T72 143Q66 173 63 206T58 278T57 357Q57 383 58 408T61 457T66 505T75 551Q92 618 133 661T250 705Q300 705 332 685T382 629T411 547Q419 504 421 455T424 355Q424 311 422 270T414
191T398 122Q379 64 341 30T233 -5ZM237 67Q263 67 279 80T307 118T324 178Q331 215 333 261T335 360Q335 403 334 442T329 513Q322 571 303 603T245 636Q205 636 184 603T155 513Q152 495 150 475T147 434T146 391T145 345Q145 295 147 250T154 170Q160 137 170
114T196 79T237 67ZM159 757H109Q110 784 122 800T151 823T189 830Q219 830 247 820T300 810Q315 810 323 814T334 830H383Q382 802 370 786T341 763T303 757Q273 757 245 767T192 777Q177 777 170 773T159 757Z" />
<glyph unicode="&#xd6;" horiz-adv-x="481" d="M233 -5Q185 -5 153 13T102 64T72 143Q66 173 63 206T58 278T57 357Q57 383 58 408T61 457T66 505T75 551Q92 618 133 661T250 705Q300 705 332 685T382 629T411 547Q419 504 421 455T424 355Q424 311 422 270T414
191T398 122Q379 64 341 30T233 -5ZM237 67Q263 67 279 80T307 118T324 178Q331 215 333 261T335 360Q335 403 334 442T329 513Q322 571 303 603T245 636Q205 636 184 603T155 513Q152 495 150 475T147 434T146 391T145 345Q145 295 147 250T154 170Q160 137 170
114T196 79T237 67ZM108 840L181 835L179 753H111L108 840ZM308 840L381 835L379 753H311L308 840Z" />
<glyph unicode="&#xd7;" horiz-adv-x="500" d="M404 196L352 137Q349 141 339 152T315 178T284 211T251 245T221 275Q204 292 184 311T144 348T112 378T95 394L146 451Q149 448 161 434T190 401T227 361T266 321Q280 306 297 291T332 259T364 230T390 208T404
196ZM144 131L93 181Q95 182 106 193T134 220T171 256T207 293T237 322Q248 335 263 351T295 384T325 415T349 440T361 454L411 403Q412 403 403 395T379 372T347 341T312 308T282 278Q269 266 252 248T217 211T183 174T157 145T144 131Z" />
<glyph unicode="&#xd8;" horiz-adv-x="481" d="M233 -5Q185 -5 153 13T102 64T72 143Q66 173 63 206T58 278T57 357Q57 383 58 408T61 457T66 505T75 551Q92 618 133 661T250 705Q300 705 332 685T382 629T411 547Q419 504 421 455T424 355Q424 311 422 270T414
191T398 122Q379 64 341 30T233 -5ZM237 67Q263 67 279 80T307 118T324 178Q331 215 333 261T335 360Q335 403 334 442T329 513Q322 571 303 603T245 636Q205 636 184 603T155 513Q152 495 150 475T147 434T146 391T145 345Q145 295 147 250T154 170Q160 137 170
114T196 79T237 67ZM144 -52L74 -38Q85 -13 98 20T128 91T160 171T192 254T222 335Q236 374 252 418T284 507T316 595T345 677T369 745L441 728Q428 697 412 661T380 587T348 510T317 436T290 370T270 317Q260 290 248 255T222 179T194 98T168 19T144 -52Z" />
<glyph unicode="&#xd9;" horiz-adv-x="482" d="M241 -10Q192 -10 160 5T107 47T78 111T69 191Q69 226 69 269T70 355T70 432Q70 477 70 520T70 606T67 696L159 695Q158 662 157 626T156 553T155 485T154 426Q154 397 154 367T153 307T153 255T153 216Q153 168
161 134T188 82T243 63Q270 63 287 75T313 108T326 153T329 203Q329 213 329 242T330 317T330 424Q330 488 329 540T326 634T324 707L415 706Q415 673 415 643T414 580T413 510T412 422Q413 337 413 277T413 193Q413 161 406 126T381 59T329 9T241 -10ZM297 732Q285
737 272 743T246 756T218 769Q204 776 189 782T159 795T130 808L169 870Q186 857 206 843T247 818Q267 806 286 795T322 774L297 732Z" />
<glyph unicode="&#xda;" horiz-adv-x="482" d="M241 -10Q192 -10 160 5T107 47T78 111T69 191Q69 226 69 269T70 355T70 432Q70 477 70 520T70 606T67 696L159 695Q158 662 157 626T156 553T155 485T154 426Q154 397 154 367T153 307T153 255T153 216Q153 168
161 134T188 82T243 63Q270 63 287 75T313 108T326 153T329 203Q329 213 329 242T330 317T330 424Q330 488 329 540T326 634T324 707L415 706Q415 673 415 643T414 580T413 510T412 422Q413 337 413 277T413 193Q413 161 406 126T381 59T329 9T241 -10ZM193 734L167
777Q185 786 204 797T243 821Q256 829 269 837T296 855T321 873L360 811Q345 805 330 798T301 785T272 772Q258 765 244 759T218 747T193 734Z" />
<glyph unicode="&#xdb;" horiz-adv-x="482" d="M241 -10Q192 -10 160 5T107 47T78 111T69 191Q69 226 69 269T70 355T70 432Q70 477 70 520T70 606T67 696L159 695Q158 662 157 626T156 553T155 485T154 426Q154 397 154 367T153 307T153 255T153 216Q153 168
161 134T188 82T243 63Q270 63 287 75T313 108T326 153T329 203Q329 213 329 242T330 317T330 424Q330 488 329 540T326 634T324 707L415 706Q415 673 415 643T414 580T413 510T412 422Q413 337 413 277T413 193Q413 161 406 126T381 59T329 9T241 -10ZM338 740L244
792L151 742L124 772L204 843L283 841L363 774L338 740Z" />
<glyph unicode="&#xdc;" horiz-adv-x="482" d="M241 -10Q192 -10 160 5T107 47T78 111T69 191Q69 226 69 269T70 355T70 432Q70 477 70 520T70 606T67 696L159 695Q158 662 157 626T156 553T155 485T154 426Q154 397 154 367T153 307T153 255T153 216Q153 168
161 134T188 82T243 63Q270 63 287 75T313 108T326 153T329 203Q329 213 329 242T330 317T330 424Q330 488 329 540T326 634T324 707L415 706Q415 673 415 643T414 580T413 510T412 422Q413 337 413 277T413 193Q413 161 406 126T381 59T329 9T241 -10ZM105 840L178
835L176 753H108L105 840ZM305 840L378 835L376 753H308L305 840Z" />
<glyph unicode="&#xdd;" horiz-adv-x="406" d="M155 0Q155 7 156 64T156 233L239 224Q240 184 241 146T243 78T244 27T245 1L155 0ZM-2 704H93Q102 669 112 628T134 542T156 455Q165 422 172 392T187 336T200 290Q207 310 214 335T230 388T247 449Q255 479 264
510T281 572T298 635T315 696L409 698Q402 675 392 646T371 583T349 512T325 438Q312 396 299 354T274 273T252 200T234 140H164Q156 170 146 204T126 276T104 353T80 433Q69 471 58 509T36 582T16 648T-2 704ZM153 734L127 777Q145 786 164 797T203 821Q216 829
229 837T256 855T281 873L320 811Q305 805 290 798T261 785T232 772Q218 765 204 759T178 747T153 734Z" />
<glyph unicode="&#xde;" horiz-adv-x="434" d="M130 139L127 214Q175 213 211 218T271 239T309 284T322 358Q322 422 307 456T262 502T189 515Q173 515 156 514T119 510V584Q133 585 146 585T172 586Q228 586 271 578T345 546T391 478T407 361Q407 298 388 256T332
188T244 151T130 139ZM69 -6Q70 36 71 96T72 225T73 356Q73 419 72 485T71 611T69 710L162 703Q161 676 161 642T159 571T158 497T158 423T157 358Q157 326 157 282T158 187T159 87T161 -1L69 -6Z" />
<glyph unicode="&#xdf;" horiz-adv-x="489" d="M59 -3Q60 22 61 51T64 114T66 187T67 270Q67 309 67 337T67 387T67 429T68 468T68 511Q69 549 80 584T114 645T172 686T258 701Q323 701 360 678T413 621T429 552Q429 521 419 498T393 455T361 419T335 386T324
350Q324 336 332 325T354 302T384 278Q405 264 426 246T461 203T475 146Q475 99 451 62T373 7T227 -1L233 59Q280 51 311 55T361 72T388 103T396 144Q396 162 387 176T363 202T331 226Q311 240 291 256T259 295T246 348Q246 372 256 392T283 430T315 466T341 503T352
545Q352 572 343 592T313 625T257 637Q218 637 195 622T161 580T148 514Q147 492 146 470T145 422T144 359T143 271Q143 215 144 161T148 65T150 0L59 -3Z" />
<glyph unicode="&#xe0;" horiz-adv-x="387" d="M259 0L260 107L255 371Q254 422 236 444T189 467Q159 467 144 444T128 385Q128 373 130 360T136 332L64 328Q60 345 58 360T56 391Q56 432 71 462T117 509T191 526Q234 526 261 511T304 469T324 411T329 345L328
255L332 0H259ZM152 -7Q117 -7 93 9T55 54T42 120Q42 151 52 174T78 216T115 248T158 274Q177 285 194 295T225 317T247 341T255 371L294 358Q293 325 279 303T243 264T197 233Q176 219 158 205T128 172T117 127Q117 107 121 92T137 68T165 60Q194 60 214 80T246
139T258 230L292 290Q292 218 286 163T264 69T221 12T152 -7ZM250 570Q238 576 225 582T199 594T171 607Q157 614 142 620T113 633T83 647L122 708Q140 695 160 682T200 656Q220 645 239 634T275 612L250 570Z" />
<glyph unicode="&#xe1;" horiz-adv-x="387" d="M259 0L260 107L255 371Q254 422 236 444T189 467Q159 467 144 444T128 385Q128 373 130 360T136 332L64 328Q60 345 58 360T56 391Q56 432 71 462T117 509T191 526Q234 526 261 511T304 469T324 411T329 345L328
255L332 0H259ZM152 -7Q117 -7 93 9T55 54T42 120Q42 151 52 174T78 216T115 248T158 274Q177 285 194 295T225 317T247 341T255 371L294 358Q293 325 279 303T243 264T197 233Q176 219 158 205T128 172T117 127Q117 107 121 92T137 68T165 60Q194 60 214 80T246
139T258 230L292 290Q292 218 286 163T264 69T221 12T152 -7ZM139 570L114 612Q125 619 137 626T163 641T189 656Q203 665 216 673T242 691T267 708L306 647Q292 640 277 634T247 621T218 607Q204 601 191 595T164 582T139 570Z" />
<glyph unicode="&#xe2;" horiz-adv-x="387" d="M259 0L260 107L255 371Q254 422 236 444T189 467Q159 467 144 444T128 385Q128 373 130 360T136 332L64 328Q60 345 58 360T56 391Q56 432 71 462T117 509T191 526Q234 526 261 511T304 469T324 411T329 345L328
255L332 0H259ZM152 -7Q117 -7 93 9T55 54T42 120Q42 151 52 174T78 216T115 248T158 274Q177 285 194 295T225 317T247 341T255 371L294 358Q293 325 279 303T243 264T197 233Q176 219 158 205T128 172T117 127Q117 107 121 92T137 68T165 60Q194 60 214 80T246
139T258 230L292 290Q292 218 286 163T264 69T221 12T152 -7ZM284 578L190 630L97 580L70 610L150 681L229 679L309 612L284 578Z" />
<glyph unicode="&#xe3;" horiz-adv-x="387" d="M259 0L260 107L255 371Q254 422 236 444T189 467Q159 467 144 444T128 385Q128 373 130 360T136 332L64 328Q60 345 58 360T56 391Q56 432 71 462T117 509T191 526Q234 526 261 511T304 469T324 411T329 345L328
255L332 0H259ZM152 -7Q117 -7 93 9T55 54T42 120Q42 151 52 174T78 216T115 248T158 274Q177 285 194 295T225 317T247 341T255 371L294 358Q293 325 279 303T243 264T197 233Q176 219 158 205T128 172T117 127Q117 107 121 92T137 68T165 60Q194 60 214 80T246
139T258 230L292 290Q292 218 286 163T264 69T221 12T152 -7ZM101 593H52Q53 620 64 636T94 659T132 666Q162 666 190 656T243 646Q258 646 266 650T276 666H326Q324 637 313 621T284 599T246 593Q216 593 188 603T135 613Q120 613 113 609T101 593Z" />
<glyph unicode="&#xe4;" horiz-adv-x="387" d="M259 0L260 107L255 371Q254 422 236 444T189 467Q159 467 144 444T128 385Q128 373 130 360T136 332L64 328Q60 345 58 360T56 391Q56 432 71 462T117 509T191 526Q234 526 261 511T304 469T324 411T329 345L328
255L332 0H259ZM152 -7Q117 -7 93 9T55 54T42 120Q42 151 52 174T78 216T115 248T158 274Q177 285 194 295T225 317T247 341T255 371L294 358Q293 325 279 303T243 264T197 233Q176 219 158 205T128 172T117 127Q117 107 121 92T137 68T165 60Q194 60 214 80T246
139T258 230L292 290Q292 218 286 163T264 69T221 12T152 -7ZM322 591H254L252 678L325 673L322 591ZM122 591H54L52 678L125 673L122 591Z" />
<glyph unicode="&#xe5;" horiz-adv-x="387" d="M259 0L260 107L255 371Q254 422 236 444T189 467Q159 467 144 444T128 385Q128 373 130 360T136 332L64 328Q60 345 58 360T56 391Q56 432 71 462T117 509T191 526Q234 526 261 511T304 469T324 411T329 345L328
255L332 0H259ZM152 -7Q117 -7 93 9T55 54T42 120Q42 151 52 174T78 216T115 248T158 274Q177 285 194 295T225 317T247 341T255 371L294 358Q293 325 279 303T243 264T197 233Q176 219 158 205T128 172T117 127Q117 107 121 92T137 68T165 60Q194 60 214 80T246
139T258 230L292 290Q292 218 286 163T264 69T221 12T152 -7ZM189 576Q163 576 144 582T115 601T105 630Q105 659 127 675T187 691Q224 691 246 676T269 637Q269 611 247 594T189 576ZM189 609Q197 609 204 611T217 620T223 635Q223 648 212 653T187 658Q171 658
161 653T151 635Q151 626 155 621T168 612T189 609Z" />
<glyph unicode="&#xe6;" horiz-adv-x="609" d="M153 -7Q118 -7 94 9T56 54T43 120Q43 151 53 174T80 216T117 248T159 274Q178 285 195 295T226 317T248 341T256 371Q255 422 237 444T191 467Q160 467 145 444T129 385Q129 373 131 360T137 332L66 328Q62 345
60 360T58 391Q58 432 73 462T118 509T190 526Q220 526 241 519T278 497T304 464Q323 493 352 509T425 525Q474 525 502 503T543 442T555 354Q555 327 552 298T544 239Q521 239 486 238T412 237T336 235Q337 206 338 180T344 133Q351 97 368 75T417 53Q441 53 455
64T476 93T483 133Q483 141 483 149T479 166H553Q555 156 556 146T557 127Q557 86 541 55T492 6T413 -12Q361 -12 331 13T284 81Q273 54 255 34T212 4T153 -7ZM167 60Q193 60 214 77T247 128T259 208Q259 219 259 230T258 253T257 275Q246 263 230 253T199 233Q178
219 159 205T129 172T118 127Q118 107 123 92T138 68T167 60ZM337 299L472 301Q475 320 476 338T478 371Q478 398 473 418T454 450T416 462Q390 462 374 444T349 397Q345 383 343 367T339 334T337 299Z" />
<glyph unicode="&#xe7;" horiz-adv-x="402" d="M204 -12Q150 -12 119 18T72 97Q61 132 57 172T52 253Q52 303 57 347T77 427Q90 457 108 479T155 513T221 525Q269 525 298 503T340 442T353 357Q353 340 352 322T347 286L269 287Q271 309 273 329T275 367Q275 395
270 416T252 450T214 462Q185 462 169 443T144 390Q137 361 135 326T133 253Q133 232 133 211T136 171T141 134Q148 98 164 76T211 53Q236 53 251 63T273 92T280 132Q280 140 279 148T276 166L352 168Q353 160 353 153T354 137Q354 93 339 60T290 7T204 -12ZM169
-164Q154 -164 139 -163T108 -161L119 -113Q127 -114 138 -115T162 -117T187 -118Q214 -118 234 -114T255 -99Q255 -89 234 -83T161 -77L176 -38Q254 -36 288 -53T323 -98Q323 -123 301 -137T244 -158T169 -164ZM235 0L212 -77H161L183 0H235Z" />
<glyph unicode="&#xe8;" horiz-adv-x="404" d="M210 -12Q154 -12 122 16T74 92Q62 129 57 173T52 267Q52 309 57 347T73 416Q90 465 125 495T219 525Q270 525 298 503T339 442T352 354Q352 327 349 298T341 239L268 296Q271 317 272 336T274 371Q274 398 269 418T251
450T213 462Q187 462 171 444T146 397Q138 370 136 337T133 269Q133 244 133 220T135 174T140 133Q148 97 164 75T213 53Q238 53 252 64T273 93T279 133Q279 141 279 149T276 166H350Q352 156 352 146T353 127Q353 86 337 55T289 6T210 -12ZM81 232L80 299L335
301L341 239Q341 239 324 239T280 238T219 237T149 235T81 232ZM275 570Q263 576 250 582T224 594T196 607Q182 614 167 620T138 633T108 647L147 708Q165 695 185 682T225 656Q245 645 264 634T300 612L275 570Z" />
<glyph unicode="&#xe9;" horiz-adv-x="404" d="M210 -12Q154 -12 122 16T74 92Q62 129 57 173T52 267Q52 309 57 347T73 416Q90 465 125 495T219 525Q270 525 298 503T339 442T352 354Q352 327 349 298T341 239L268 296Q271 317 272 336T274 371Q274 398 269 418T251
450T213 462Q187 462 171 444T146 397Q138 370 136 337T133 269Q133 244 133 220T135 174T140 133Q148 97 164 75T213 53Q238 53 252 64T273 93T279 133Q279 141 279 149T276 166H350Q352 156 352 146T353 127Q353 86 337 55T289 6T210 -12ZM81 232L80 299L335
301L341 239Q341 239 324 239T280 238T219 237T149 235T81 232ZM164 570L139 612Q150 619 162 626T188 641T214 656Q228 665 241 673T267 691T292 708L331 647Q317 640 302 634T272 621T243 607Q229 601 216 595T189 582T164 570Z" />
<glyph unicode="&#xea;" horiz-adv-x="404" d="M210 -12Q154 -12 122 16T74 92Q62 129 57 173T52 267Q52 309 57 347T73 416Q90 465 125 495T219 525Q270 525 298 503T339 442T352 354Q352 327 349 298T341 239L268 296Q271 317 272 336T274 371Q274 398 269 418T251
450T213 462Q187 462 171 444T146 397Q138 370 136 337T133 269Q133 244 133 220T135 174T140 133Q148 97 164 75T213 53Q238 53 252 64T273 93T279 133Q279 141 279 149T276 166H350Q352 156 352 146T353 127Q353 86 337 55T289 6T210 -12ZM81 232L80 299L335
301L341 239Q341 239 324 239T280 238T219 237T149 235T81 232ZM309 578L215 630L122 580L95 610L175 681L254 679L334 612L309 578Z" />
<glyph unicode="&#xeb;" horiz-adv-x="404" d="M210 -12Q154 -12 122 16T74 92Q62 129 57 173T52 267Q52 309 57 347T73 416Q90 465 125 495T219 525Q270 525 298 503T339 442T352 354Q352 327 349 298T341 239L268 296Q271 317 272 336T274 371Q274 398 269 418T251
450T213 462Q187 462 171 444T146 397Q138 370 136 337T133 269Q133 244 133 220T135 174T140 133Q148 97 164 75T213 53Q238 53 252 64T273 93T279 133Q279 141 279 149T276 166H350Q352 156 352 146T353 127Q353 86 337 55T289 6T210 -12ZM81 232L80 299L335
301L341 239Q341 239 324 239T280 238T219 237T149 235T81 232ZM347 591H279L277 678L350 673L347 591ZM147 591H79L77 678L150 673L147 591Z" />
<glyph unicode="&#xec;" horiz-adv-x="233" d="M165 0L71 1Q72 7 73 29T76 88T79 169T80 267Q80 337 78 392T74 479T71 517L161 518Q161 514 160 480T158 391T157 266Q157 215 158 170T160 90T163 31T165 0ZM178 570Q166 576 153 582T127 594T99 607Q85 614 70
620T41 633T11 647L50 708Q68 695 88 682T128 656Q148 645 167 634T203 612L178 570Z" />
<glyph unicode="&#xed;" horiz-adv-x="233" d="M165 0L71 1Q72 7 73 29T76 88T79 169T80 267Q80 337 78 392T74 479T71 517L161 518Q161 514 160 480T158 391T157 266Q157 215 158 170T160 90T163 31T165 0ZM67 570L42 612Q53 619 65 626T91 641T117 656Q131 665
144 673T170 691T195 708L234 647Q220 640 205 634T175 621T146 607Q132 601 119 595T92 582T67 570Z" />
<glyph unicode="&#xee;" horiz-adv-x="233" d="M165 0L71 1Q72 7 73 29T76 88T79 169T80 267Q80 337 78 392T74 479T71 517L161 518Q161 514 160 480T158 391T157 266Q157 215 158 170T160 90T163 31T165 0ZM212 578L118 630L25 580L-2 610L78 681L157 679L237
612L212 578Z" />
<glyph unicode="&#xef;" horiz-adv-x="233" d="M165 0L71 1Q72 7 73 29T76 88T79 169T80 267Q80 337 78 392T74 479T71 517L161 518Q161 514 160 480T158 391T157 266Q157 215 158 170T160 90T163 31T165 0ZM250 591H182L180 678L253 673L250 591ZM50 591H-18L-20
678L53 673L50 591Z" />
<glyph unicode="&#xf0;" horiz-adv-x="442" d="M206 -10Q165 -10 136 4T88 47T60 114T51 203Q51 273 69 322T125 398T215 425Q245 425 270 414T313 379T341 321L304 241Q304 276 296 302T269 342T215 357Q183 357 166 339T142 289T135 211Q135 159 140 125T164
74T216 57Q251 57 270 78T296 140T304 240Q304 252 304 267T304 306T304 370Q304 419 295 464T266 548T213 613T135 650L172 719Q203 708 234 691T293 645T342 574T376 469T388 321Q388 254 384 201T367 109T335 43T283 3T206 -10ZM174 487L142 547Q148 550 165
559T207 582T264 613Q279 622 298 633T335 656T367 676T384 687L420 628Q417 627 402 619T367 600T326 577T291 557Q264 541 239 526T197 500T174 487Z" />
<glyph unicode="&#xf1;" horiz-adv-x="439" d="M378 -2L285 1Q286 20 287 44T290 97T292 164T293 247Q293 262 293 279T293 317T293 362Q293 397 287 417T270 447T242 456Q222 456 201 439T166 379T152 263L113 223Q113 262 116 303T129 384T155 454T198 504T262
523Q294 523 318 509T356 460T370 368Q370 331 370 314T370 285T370 254Q370 202 370 163T372 95T375 43T378 -2ZM68 1Q69 23 70 45T73 94T75 158T76 247Q76 319 75 378T74 475T72 517L152 521Q152 501 151 462T150 371T152 263Q152 190 153 144T155 65T156 1H68ZM142
593H93Q94 620 105 636T135 659T173 666Q203 666 231 656T284 646Q299 646 307 650T317 666H367Q365 637 354 621T325 599T287 593Q257 593 229 603T176 613Q161 613 154 609T142 593Z" />
<glyph unicode="&#xf2;" horiz-adv-x="427" d="M208 -10Q151 -10 119 21T73 103Q63 138 59 180T55 270Q55 300 57 328T65 383T80 431Q98 475 132 501T222 528Q276 528 307 497T354 417Q364 384 368 345T372 264Q372 221 369 182T357 110Q348 73 330 46T282 5T208
-10ZM215 58Q248 58 264 80T286 137Q290 154 291 171T292 208T293 247Q293 284 291 318T284 381Q277 417 261 439T215 461Q198 461 186 453T164 432T149 399Q143 379 140 355T135 305T134 253Q134 234 135 214T137 176T142 141Q149 104 166 81T215 58ZM281 570Q269
576 256 582T230 594T202 607Q188 614 173 620T144 633T114 647L153 708Q171 695 191 682T231 656Q251 645 270 634T306 612L281 570Z" />
<glyph unicode="&#xf3;" horiz-adv-x="427" d="M208 -10Q151 -10 119 21T73 103Q63 138 59 180T55 270Q55 300 57 328T65 383T80 431Q98 475 132 501T222 528Q276 528 307 497T354 417Q364 384 368 345T372 264Q372 221 369 182T357 110Q348 73 330 46T282 5T208
-10ZM215 58Q248 58 264 80T286 137Q290 154 291 171T292 208T293 247Q293 284 291 318T284 381Q277 417 261 439T215 461Q198 461 186 453T164 432T149 399Q143 379 140 355T135 305T134 253Q134 234 135 214T137 176T142 141Q149 104 166 81T215 58ZM170 570L145
612Q156 619 168 626T194 641T220 656Q234 665 247 673T273 691T298 708L337 647Q323 640 308 634T278 621T249 607Q235 601 222 595T195 582T170 570Z" />
<glyph unicode="&#xf4;" horiz-adv-x="427" d="M208 -10Q151 -10 119 21T73 103Q63 138 59 180T55 270Q55 300 57 328T65 383T80 431Q98 475 132 501T222 528Q276 528 307 497T354 417Q364 384 368 345T372 264Q372 221 369 182T357 110Q348 73 330 46T282 5T208
-10ZM215 58Q248 58 264 80T286 137Q290 154 291 171T292 208T293 247Q293 284 291 318T284 381Q277 417 261 439T215 461Q198 461 186 453T164 432T149 399Q143 379 140 355T135 305T134 253Q134 234 135 214T137 176T142 141Q149 104 166 81T215 58ZM315 578L221
630L128 580L101 610L181 681L260 679L340 612L315 578Z" />
<glyph unicode="&#xf5;" horiz-adv-x="427" d="M208 -10Q151 -10 119 21T73 103Q63 138 59 180T55 270Q55 300 57 328T65 383T80 431Q98 475 132 501T222 528Q276 528 307 497T354 417Q364 384 368 345T372 264Q372 221 369 182T357 110Q348 73 330 46T282 5T208
-10ZM215 58Q248 58 264 80T286 137Q290 154 291 171T292 208T293 247Q293 284 291 318T284 381Q277 417 261 439T215 461Q198 461 186 453T164 432T149 399Q143 379 140 355T135 305T134 253Q134 234 135 214T137 176T142 141Q149 104 166 81T215 58ZM132 593H83Q84
620 95 636T125 659T163 666Q193 666 221 656T274 646Q289 646 297 650T307 666H357Q355 637 344 621T315 599T277 593Q247 593 219 603T166 613Q151 613 144 609T132 593Z" />
<glyph unicode="&#xf6;" horiz-adv-x="427" d="M208 -10Q151 -10 119 21T73 103Q63 138 59 180T55 270Q55 300 57 328T65 383T80 431Q98 475 132 501T222 528Q276 528 307 497T354 417Q364 384 368 345T372 264Q372 221 369 182T357 110Q348 73 330 46T282 5T208
-10ZM215 58Q248 58 264 80T286 137Q290 154 291 171T292 208T293 247Q293 284 291 318T284 381Q277 417 261 439T215 461Q198 461 186 453T164 432T149 399Q143 379 140 355T135 305T134 253Q134 234 135 214T137 176T142 141Q149 104 166 81T215 58ZM353 591H285L283
678L356 673L353 591ZM153 591H85L83 678L156 673L153 591Z" />
<glyph unicode="&#xf7;" horiz-adv-x="500" d="M76 255L77 326Q80 326 99 326T145 325T199 324T248 324Q269 323 297 324T354 325T402 326T424 327L420 257Q416 257 397 257T351 258T297 258T250 258Q231 258 204 258T148 257T100 256T76 255ZM252 103Q228 103
209 119T190 163Q190 186 205 200T243 214Q270 214 287 197T305 157Q305 136 290 120T252 103ZM252 373Q228 373 209 389T190 432Q190 456 205 469T243 483Q270 483 287 466T305 426Q305 405 290 389T252 373Z" />
<glyph unicode="&#xf8;" horiz-adv-x="427" d="M208 -10Q151 -10 119 21T73 103Q63 138 59 180T55 270Q55 300 57 328T65 383T80 431Q98 475 132 501T222 528Q276 528 307 497T354 417Q364 384 368 345T372 264Q372 221 369 182T357 110Q348 73 330 46T282 5T208
-10ZM215 58Q248 58 264 80T286 137Q290 154 291 171T292 208T293 247Q293 284 291 318T284 381Q277 417 261 439T215 461Q198 461 186 453T164 432T149 399Q144 384 141 367T137 330T135 292T134 253Q134 223 135 195T142 141Q149 104 166 81T215 58ZM137 -60L66
-41Q80 -9 100 39T142 143T184 253Q204 308 225 370T266 489T299 585L370 566Q354 529 334 483T295 389T259 300T232 231Q222 203 210 166T184 88T159 9T137 -60Z" />
<glyph unicode="&#xf9;" horiz-adv-x="422" d="M162 -10Q121 -10 99 10T70 67T62 154Q62 162 62 184T64 237T65 305Q66 342 67 376T69 439T70 489T71 520L152 526Q151 501 150 474T146 417T143 355T139 287Q138 262 137 240T136 199T135 166T134 141Q134 114 138
94T151 63T176 52Q197 52 216 67T250 113T274 186T283 287L314 293Q314 244 310 199T295 116T268 50T224 6T162 -10ZM289 0L282 106Q283 152 283 197T283 287Q283 311 283 340T282 401T281 465T279 527L362 526Q361 503 361 476T359 420T358 365T357 318T357 284Q358
256 358 226T360 166T362 106T363 50T364 0H289ZM275 570Q263 576 250 582T224 594T196 607Q182 614 167 620T138 633T108 647L147 708Q165 695 185 682T225 656Q245 645 264 634T300 612L275 570Z" />
<glyph unicode="&#xfa;" horiz-adv-x="422" d="M162 -10Q121 -10 99 10T70 67T62 154Q62 162 62 184T64 237T65 305Q66 342 67 376T69 439T70 489T71 520L152 526Q151 501 150 474T146 417T143 355T139 287Q138 262 137 240T136 199T135 166T134 141Q134 114 138
94T151 63T176 52Q197 52 216 67T250 113T274 186T283 287L314 293Q314 244 310 199T295 116T268 50T224 6T162 -10ZM289 0L282 106Q283 152 283 197T283 287Q283 311 283 340T282 401T281 465T279 527L362 526Q361 503 361 476T359 420T358 365T357 318T357 284Q358
256 358 226T360 166T362 106T363 50T364 0H289ZM164 570L139 612Q150 619 162 626T188 641T214 656Q228 665 241 673T267 691T292 708L331 647Q317 640 302 634T272 621T243 607Q229 601 216 595T189 582T164 570Z" />
<glyph unicode="&#xfb;" horiz-adv-x="422" d="M162 -10Q121 -10 99 10T70 67T62 154Q62 162 62 184T64 237T65 305Q66 342 67 376T69 439T70 489T71 520L152 526Q151 501 150 474T146 417T143 355T139 287Q138 262 137 240T136 199T135 166T134 141Q134 114 138
94T151 63T176 52Q197 52 216 67T250 113T274 186T283 287L314 293Q314 244 310 199T295 116T268 50T224 6T162 -10ZM289 0L282 106Q283 152 283 197T283 287Q283 311 283 340T282 401T281 465T279 527L362 526Q361 503 361 476T359 420T358 365T357 318T357 284Q358
256 358 226T360 166T362 106T363 50T364 0H289ZM309 578L215 630L122 580L95 610L175 681L254 679L334 612L309 578Z" />
<glyph unicode="&#xfc;" horiz-adv-x="422" d="M162 -10Q121 -10 99 10T70 67T62 154Q62 162 62 184T64 237T65 305Q66 342 67 376T69 439T70 489T71 520L152 526Q151 501 150 474T146 417T143 355T139 287Q138 262 137 240T136 199T135 166T134 141Q134 114 138
94T151 63T176 52Q197 52 216 67T250 113T274 186T283 287L314 293Q314 244 310 199T295 116T268 50T224 6T162 -10ZM289 0L282 106Q283 152 283 197T283 287Q283 311 283 340T282 401T281 465T279 527L362 526Q361 503 361 476T359 420T358 365T357 318T357 284Q358
256 358 226T360 166T362 106T363 50T364 0H289ZM347 591H279L277 678L350 673L347 591ZM147 591H79L77 678L150 673L147 591Z" />
<glyph unicode="&#xfd;" horiz-adv-x="398" d="M211 -151L124 -148Q135 -112 145 -77T165 -6T183 65T201 135T218 206T234 278Q243 324 250 360T265 433T280 519H369Q360 487 353 458T338 400T322 338T304 267Q294 224 284 181T265 94T246 8T228 -74T211 -151ZM172
-14Q166 12 159 38T144 93T128 150T112 209T94 270Q85 303 77 331T61 387T44 445T25 512L116 514Q127 464 134 428T150 359T168 286Q176 255 183 224T198 162T214 100T232 35L172 -14ZM146 609L121 651Q132 658 144 665T170 680T196 695Q210 704 223 712T249 730T274
747L313 686Q299 679 284 673T254 660T225 646Q211 640 198 634T171 621T146 609Z" />
<glyph unicode="&#xfe;" horiz-adv-x="443" d="M69 -150Q71 -114 72 -69T75 24T77 120T78 210Q78 236 78 270T78 346T77 431T75 520T74 612T71 700L155 702Q155 639 155 576T155 449Q164 468 178 485T214 513T263 524Q317 524 342 490T379 401Q385 370 387 333T389
258Q389 226 387 195T378 135T363 82Q347 39 318 13T242 -13Q220 -13 204 -7T176 11T156 35L159 -148L69 -150ZM155 215Q155 169 162 132T187 72T233 50Q257 50 272 67T295 112Q304 143 307 182T310 260Q310 292 310 321T307 375Q303 412 290 435T245 458Q215 458
196 433T167 368T156 280L155 215Z" />
<glyph unicode="&#xff;" horiz-adv-x="398" d="M211 -151L124 -148Q135 -112 145 -77T165 -6T183 65T201 135T218 206T234 278Q243 324 250 360T265 433T280 519H369Q360 487 353 458T338 400T322 338T304 267Q294 224 284 181T265 94T246 8T228 -74T211 -151ZM172
-14Q166 12 159 38T144 93T128 150T112 209T94 270Q85 303 77 331T61 387T44 445T25 512L116 514Q127 464 134 428T150 359T168 286Q176 255 183 224T198 162T214 100T232 35L172 -14ZM329 630H261L259 717L332 712L329 630ZM129 630H61L59 717L132 712L129 630Z"
/>
<glyph unicode="&#x2013;" horiz-adv-x="447" d="M60 255L66 325Q66 325 82 325T122 324T174 323T225 322Q248 322 275 322T327 323T368 324T384 325L387 255Q387 255 369 255T324 256T269 256T219 257Q197 257 170 257T117 256T76 256T60 255Z" />
<glyph unicode="&#x2014;" horiz-adv-x="771" d="M60 255L65 325Q65 325 84 325T136 325T206 324T281 324T349 323T394 322Q409 322 438 322T502 322T574 323T641 324T690 324T709 325L711 255Q711 255 692 255T640 255T570 256T496 256T430 257T387 257Q373 257
344 257T277 257T202 256T132 256T80 255T60 255Z" />
<glyph unicode="&#x2018;" horiz-adv-x="279" d="M95 504V615Q95 665 100 697T113 752L151 740Q144 717 139 693T132 641L181 638L183 501L95 504Z" />
<glyph unicode="&#x2019;" horiz-adv-x="279" d="M142 471L104 492Q123 522 131 549T139 608L97 611L95 733L183 740V615Q183 574 173 538T142 471Z" />
<glyph unicode="&#x201a;" horiz-adv-x="279" d="M165 -113L128 -102Q135 -78 140 -54T147 -2L97 1L95 137L183 134V24Q183 -25 178 -57T165 -113Z" />
<glyph unicode="&#x201c;" horiz-adv-x="426" d="M243 504V615Q243 665 248 697T261 752L299 740Q291 717 286 693T279 641L329 638L331 501L243 504ZM95 504V615Q95 665 100 697T113 752L151 740Q144 717 139 693T132 641L181 638L183 501L95 504Z" />
<glyph unicode="&#x201d;" horiz-adv-x="426" d="M165 492L128 504Q135 528 140 552T147 603L97 607L95 743L183 740V630Q183 581 178 549T165 492ZM313 492L275 504Q282 528 287 552T295 603L245 607L243 743L331 740V630Q331 581 326 549T313 492Z" />
<glyph unicode="&#x201e;" horiz-adv-x="426" d="M166 -113L128 -102Q135 -78 140 -54T147 -2L97 1L95 137L184 134V24Q184 -25 179 -57T166 -113ZM313 -113L275 -102Q283 -78 288 -54T295 -2L245 1L243 137L331 134V24Q331 -25 326 -57T313 -113Z" />
<glyph unicode="&#x2022;" horiz-adv-x="389" d="M193 193Q144 193 120 224T95 306Q95 355 122 384T200 414Q245 414 269 385T294 300Q294 254 269 224T193 193Z" />
<glyph unicode="&#x2039;" horiz-adv-x="473" d="M336 480L375 420Q370 418 350 406T301 376T244 341Q212 321 182 300T129 262T101 242L96 315Q100 317 118 329T163 357T213 391Q235 407 256 422T297 451T336 480ZM344 100Q332 109 314 121T272 147T220 177Q193
192 167 206T123 229T101 242L96 315Q100 312 117 303T158 280T207 254T255 228Q284 213 310 199T354 176T377 163L344 100Z" />
<glyph unicode="&#x203a;" horiz-adv-x="473" d="M377 266Q373 268 356 277T315 300T266 328T219 353Q185 371 152 388T96 417L129 480Q147 467 179 447T254 404Q285 386 318 369T372 339L377 266ZM137 100L99 161Q124 176 160 197T229 239Q267 263 306 291T372
339L377 266Q354 252 322 231T261 190Q227 166 197 144T137 100Z" />
</font>
</defs>
</svg>
