<?xml version="1.0" standalone="no"?>
<!DOCTYPE svg PUBLIC "-//W3C//DTD SVG 1.1//EN" "http://www.w3.org/Graphics/SVG/1.1/DTD/svg11.dtd">
<svg xmlns="http://www.w3.org/2000/svg">
<defs >
<font id="Truculenta" horiz-adv-x="476" ><font-face
    font-family="Truculenta SemiBold"
    units-per-em="1000"
    panose-1="0 0 0 0 0 0 0 0 0 0"
    ascent="1050"
    descent="-340"
    alphabetic="0" />
<glyph unicode=" " horiz-adv-x="224" />
<glyph unicode="!" horiz-adv-x="288" d="M109 235Q108 257 107 289T104 361T102 448Q101 483 100 521T97 594T94 659T91 704L197 710Q196 695 195 671T192 619T189 559T186 499T183 446Q183 419 182 390T180 332T179 280T177 237L109 235ZM193 0H95L99 147L185
149L193 0Z" />
<glyph unicode="&quot;" horiz-adv-x="459" d="M256 493Q256 493 257 509T259 552T260 605Q262 643 262 673T262 702L373 699Q373 700 370 688T362 656T354 615Q351 600 348 580T343 543T339 514T337 503L256 493ZM98 490Q99 489 98 505T96 548T93 601Q92 639
89 668T86 698L197 705Q197 706 195 693T190 660T185 618Q183 603 182 584T180 546T179 517T179 505L98 490Z" />
<glyph unicode="#" horiz-adv-x="825" d="M135 1L235 387L300 697L396 698L315 372L233 2L135 1ZM66 161L68 248Q80 248 107 248T171 247T251 247T334 246T409 245Q445 245 482 245T555 246T621 246T674 247T708 248L712 163Q701 163 679 163T625 163T558 164T484
164T406 165Q370 165 328 165T245 164T167 163T105 162T66 161ZM423 0L523 387L585 688L682 684L601 361L522 0H423ZM116 448L108 535Q119 535 147 535T215 534T297 534T383 533T459 532Q495 532 531 532T603 533T669 533T723 534T758 535V449Q746 449 723 449T670
449T605 450T533 451T457 452Q421 452 379 452T296 451T218 450T155 449T116 448Z" />
<glyph unicode="$" horiz-adv-x="500" d="M246 -10Q180 -10 138 12T77 74T58 160Q58 175 59 191T65 223H159Q156 207 154 192T152 163Q152 136 160 115T189 81T242 69Q279 69 301 80T332 109T341 150Q341 173 331 189T304 219T264 245T214 272Q183 288 155 308T105
355T70 420T56 505Q56 562 78 607T145 678T254 704Q309 704 345 689T404 645T435 581T444 502Q444 484 443 466T439 430T434 395H333Q337 421 339 448T342 501Q342 536 335 564T308 608T251 624Q225 624 207 615T177 590T161 552T156 506Q156 467 170 440T209 392T266
355Q299 338 330 321T386 281T427 229T442 156Q442 109 421 72T356 12T246 -10ZM282 -111L217 -110Q218 -97 219 -60T221 35T223 166T224 322Q224 389 224 453T223 576T223 681T222 759T221 801L286 797Q285 787 284 758T282 686T279 595T276 494T274 396T273 311Q273
266 274 214T276 111T278 14T280 -65T282 -111Z" />
<glyph unicode="%" horiz-adv-x="800" d="M164 0Q184 34 209 78T263 172T318 269T369 360Q395 407 421 454T472 547T518 629T553 693H646Q630 665 607 627T557 544T502 450T446 353Q422 310 396 262T343 165T295 74T255 0H164ZM192 368Q144 368 115 390T72 451T58
537Q58 585 74 622T122 679T201 700Q248 700 277 680T320 623T334 535Q334 486 318 449T270 390T192 368ZM195 436Q220 436 234 449T254 485T260 539Q260 571 254 592T234 623T198 633Q171 633 157 620T137 585T132 534Q132 483 147 460T195 436ZM600 -1Q552 -1
523 21T480 82T466 168Q466 217 482 253T530 310T609 331Q655 331 684 311T728 254T742 166Q742 117 726 80T678 21T600 -1ZM602 67Q628 67 642 80T662 116T668 170Q668 202 662 223T641 254T606 264Q578 264 564 251T545 215T540 165Q540 114 555 91T602 67Z"
/>
<glyph unicode="&amp;" horiz-adv-x="528" d="M222 -10Q153 -10 106 13T35 77T11 175Q11 222 25 256T61 314T110 357T160 391Q183 405 207 420T252 454T286 497T299 556Q299 572 295 588T278 616T242 628Q204 628 189 606T174 542Q174 499 188 457T232 366T302
260T396 126Q410 107 424 95T454 76T490 67T534 64L523 -7Q479 -10 444 -4T380 21T328 71Q277 142 232 205T151 324T96 433T75 537Q75 588 95 626T154 685T246 706Q294 706 328 689T380 640T399 569Q399 519 380 481T331 414T269 364T212 325Q191 310 173 297T141
267T120 229T112 175Q112 134 129 111T173 77T229 67Q266 67 294 84T342 133T374 205T391 295T394 396L489 387Q489 328 481 271T455 164T405 74T329 12T222 -10Z" />
<glyph unicode="&apos;" horiz-adv-x="283" d="M98 490Q98 489 98 505T96 548T93 601Q92 639 89 668T86 698L197 705Q197 706 195 693T190 660T184 618Q183 603 182 584T180 546T179 517T178 505L98 490Z" />
<glyph unicode="(" horiz-adv-x="394" d="M282 -149Q238 -138 202 -109T141 -28T102 100T88 281Q88 386 102 462T142 590T203 671T282 712L303 641Q260 621 235 585T197 500T181 397T177 281Q177 221 181 166T198 63T236 -21T303 -78L282 -149Z" />
<glyph unicode=")" horiz-adv-x="394" d="M112 712Q157 701 192 672T253 591T292 463T306 282Q306 178 292 101T253 -27T192 -108T112 -149L91 -78Q134 -58 159 -22T197 63T214 166T218 282Q218 342 214 397T197 500T159 584T91 641L112 712Z" />
<glyph unicode="*" horiz-adv-x="579" d="M422 418Q423 417 407 430T365 462T314 500T268 529Q248 541 218 556T159 587T111 611T91 621L145 689Q156 680 173 666T211 637T253 608T293 581Q315 568 342 553T397 523T449 496T488 475L422 418ZM134 405L104 471Q115
477 134 489T179 516T229 546T276 575Q296 587 320 604T369 638T414 671T448 696L475 618Q476 619 458 610T412 586T357 556T308 529Q293 520 271 505T225 473T180 440T147 414T134 405ZM334 349L249 357Q249 356 250 371T252 410T255 462T258 516T258 561Q258
585 257 617T253 680T249 730T248 749L332 742Q332 743 331 725T326 679T321 619T319 562Q319 542 320 515T324 458T329 403T333 363T334 349Z" />
<glyph unicode="+" horiz-adv-x="500" d="M293 113L207 108Q207 120 208 142T210 192T211 249T212 301Q212 326 211 352T209 403T207 447T206 476L291 481Q291 472 290 453T287 408T284 356T283 302Q283 277 284 249T287 194T290 146T293 113ZM72 250L79 329Q84
329 104 329T153 328T210 327T260 327Q281 327 307 328T357 329T400 331T428 332L411 251Q412 251 397 252T359 254T310 256T261 257Q243 257 220 257T174 255T129 253T93 251T72 250Z" />
<glyph unicode="," horiz-adv-x="279" d="M142 -144L101 -120Q123 -89 130 -61T138 -1L93 2L91 137L187 144V8Q187 -36 177 -73T142 -144Z" />
<glyph unicode="-" horiz-adv-x="398" d="M75 251L81 329Q81 329 91 329T118 328T156 327T201 326Q224 326 245 326T284 327T311 328T321 329L324 251Q324 251 312 251T281 252T239 252T195 253Q173 253 152 253T113 252T86 252T75 251Z" />
<glyph unicode="." horiz-adv-x="278" d="M185 0H94L91 145L186 151L185 0Z" />
<glyph unicode="/" horiz-adv-x="355" d="M25 -1Q32 18 45 55T73 142T106 244T139 350Q151 391 163 433T187 516T208 593T224 656T235 698L331 696Q327 684 319 658T300 597T276 520T250 435T224 350Q208 298 192 244T160 142T134 56T118 0L25 -1Z" />
<glyph unicode="0" horiz-adv-x="521" d="M253 -10Q189 -10 152 17T95 93T69 206T63 343Q63 399 68 452T85 551T120 632T179 687T268 707Q320 707 355 688T410 635T441 554T454 454T458 342Q458 274 450 211T421 98T359 19T253 -10ZM258 70Q291 70 312 88T344
142T359 231T363 353Q363 418 360 468T346 554T317 606T265 624Q232 624 212 605T180 548T164 458T160 338Q160 234 166 176T194 94T258 70Z" />
<glyph unicode="1" horiz-adv-x="319" d="M148 0Q150 30 150 62T151 129T152 199T153 271T153 342Q153 371 153 407T153 481T153 556T151 620L205 694H256Q255 658 254 622T252 545T251 454T250 341Q250 277 250 229T251 143T253 70T255 0H148ZM26 564L21 641Q38
644 64 648T118 659T169 674T205 694L209 586Q195 580 172 576T122 569T70 565T26 564Z" />
<glyph unicode="2" horiz-adv-x="490" d="M133 54L45 81Q76 113 114 150T191 228T261 315T312 406T332 502Q332 544 322 569T293 605T245 616Q212 616 192 600T162 557T152 492Q152 473 154 452T160 408L70 407Q66 429 64 450T62 493Q62 538 73 575T107 641T166
684T251 700Q292 700 324 689T380 653T416 594T429 511Q429 455 408 399T351 292T276 195T198 114T133 54ZM43 -5L45 81Q72 81 102 81T161 81T214 81T252 82Q266 82 286 82T327 83T370 84T409 86T435 89L436 0Q430 0 410 0T364 0T311 0T266 0T241 0Q234 0 218 0T182
-1T141 -1T99 -3T65 -4T43 -5Z" />
<glyph unicode="3" horiz-adv-x="454" d="M220 -10Q167 -10 132 2T76 36T46 84T37 136L131 137Q131 123 136 111T153 90T182 76T223 71Q260 71 280 82T308 114T315 157Q315 198 300 218T256 246T187 254Q175 254 164 254T142 254T122 254T107 252L105 334Q111
334 119 334T137 333T158 332T181 332Q227 332 256 353T298 411T311 492Q311 531 304 558T277 600T221 614Q197 614 181 607T155 587T141 557T137 517L43 518Q42 559 54 591T88 648T144 684T222 697Q275 697 311 682T368 641T398 579T407 502Q407 462 397 423T362
353T297 302Q333 294 358 275T397 227T410 161Q410 112 390 73T329 12T220 -10Z" />
<glyph unicode="4" horiz-adv-x="493" d="M113 182L27 219Q39 244 51 270T75 323T101 378T127 434Q142 468 157 502T186 570T214 637T242 701L374 696Q375 696 363 687T335 662T310 620Q301 600 285 565T248 485T206 394Q188 352 170 313T138 240T113 182ZM43
129L27 219Q34 219 52 218T94 217T145 216T199 216T246 217Q272 218 306 219T375 222T433 224T463 226V134Q458 134 434 134T375 134T307 134T247 134Q228 134 202 134T148 132T96 131T57 130T43 129ZM270 -3Q271 37 271 74T272 145T273 212T274 273T275 330Q275
372 275 415T275 502T274 593T273 687L374 696Q374 659 373 623T372 547T371 459T370 349Q370 285 370 236T371 146T372 71T373 0L270 -3Z" />
<glyph unicode="5" d="M227 -10Q178 -10 143 3T86 39T53 94T43 162L138 167Q138 142 145 121T172 86T231 73Q270 73 294 94T330 152T342 235Q342 271 333 301T303 349T245 367Q224 367 206 360T174 339T149 299L120 362Q133 389 153 409T200 441T259 452Q309 452
343 434T398 384T428 313T438 229Q438 176 425 132T385 56T319 7T227 -10ZM149 299L54 295Q55 310 56 332T59 384T62 444T64 505Q65 537 65 572T65 637T65 685T64 702L166 696Q164 668 163 646T161 602T160 556T158 502Q157 473 156 445T154 389T151 340T149 299ZM91
610L64 702Q78 701 98 701T143 699T192 698T241 698Q260 698 287 698T342 697T388 697T412 697L408 611Q404 611 385 611T340 612T287 612T243 613Q209 613 181 613T132 612T102 611T91 610Z" />
<glyph unicode="6" horiz-adv-x="501" d="M256 -10Q180 -10 136 24T74 132T55 321Q55 428 68 503T109 624T177 692T271 713Q335 713 371 688T424 622T440 531Q440 513 439 497T434 462L339 460Q341 475 342 490T344 519Q344 549 337 574T314 615T266 630Q235 630
214 613T181 564T162 484T153 378T151 247Q151 216 154 185T167 130T199 90T256 75Q277 75 295 83T325 108T345 146T352 195Q352 252 329 280T260 309Q230 309 206 298T167 263T152 202L120 268Q130 309 150 336T201 378T270 393Q323 393 362 371T424 306T447 199Q447
151 434 113T396 48T336 5T256 -10Z" />
<glyph unicode="7" horiz-adv-x="398" d="M97 -1Q96 55 100 108T112 211T131 308T158 397Q175 447 197 490T245 572T300 642T362 700V611Q339 579 317 541T276 459T242 361Q229 313 220 257T206 137T204 0L97 -1ZM23 608L22 700Q36 699 56 699T100 698T146 698T187
698Q205 698 230 698T280 698T327 699T362 700L354 612Q342 612 319 612T269 612T217 611T174 610Q156 610 135 610T93 610T54 610T23 608Z" />
<glyph unicode="8" horiz-adv-x="479" d="M232 263Q175 263 136 290T76 363T55 467Q55 537 74 591T134 676T244 707Q310 707 349 679T406 599T424 477Q424 410 402 362T338 289T232 263ZM230 -10Q166 -10 123 12T58 71T36 154Q36 204 57 246T124 314T245 340Q316
340 359 317T423 253T443 162Q443 108 420 70T349 11T230 -10ZM238 66Q302 66 325 91T349 160Q348 214 323 239T240 263Q203 263 179 251T142 216T130 164Q130 118 153 92T238 66ZM240 340Q272 340 291 357T320 405T329 472Q329 530 321 563T295 611T243 625Q193
625 173 589T152 479Q152 437 161 406T189 357T240 340Z" />
<glyph unicode="9" horiz-adv-x="501" d="M228 -10Q173 -10 137 10T82 66T64 146Q64 154 64 163T67 181L162 183Q161 176 161 169T160 155Q160 129 167 111T192 83T235 73Q274 73 297 97T332 170T347 287T351 445Q351 480 348 513T334 572T302 613T246 628Q213
628 192 608T160 554T150 478Q150 434 158 402T187 352T241 334Q272 334 296 346T335 385T351 454L382 375Q373 335 352 307T301 265T231 250Q174 250 135 277T75 355T55 474Q55 542 76 596T140 682T246 713Q322 713 366 679T428 571T447 382Q447 275 433 200T392
79T324 11T228 -10Z" />
<glyph unicode=":" horiz-adv-x="277" d="M186 0H94L91 145L186 154V0ZM186 364H94L91 508L186 518V364Z" />
<glyph unicode=";" horiz-adv-x="280" d="M141 -144L100 -120Q121 -89 129 -61T137 -1L93 2L91 137L186 144V8Q186 -36 176 -73T141 -144ZM187 364H98L95 508L187 518V364Z" />
<glyph unicode="&lt;" horiz-adv-x="500" d="M476 484L483 388Q473 385 452 379T403 365T342 347T274 327Q239 317 201 305T128 282T63 261T17 249L22 331Q34 335 55 342T106 359T167 380T235 403Q264 412 299 424T369 449T433 470T476 484ZM479 106Q465 111 438
120T378 139T310 160T245 179Q209 190 174 200T108 221T53 238T17 249L22 331Q32 329 58 321T121 303T195 281T268 260Q301 251 335 242T399 224T451 211T481 203L479 106Z" />
<glyph unicode="=" horiz-adv-x="500" d="M83 157L84 236Q92 236 111 236T154 235T203 234T248 234Q268 233 293 233T343 234T387 236T416 237L413 158Q405 159 386 159T341 160T292 160T248 160Q230 160 205 160T156 159T111 158T83 157ZM83 343L90 421Q98 421
117 421T159 420T207 419T251 418Q271 419 296 419T345 420T387 421T412 422L413 344Q403 344 384 344T340 344T291 345T248 345Q230 345 205 345T156 344T111 343T83 343Z" />
<glyph unicode="&gt;" horiz-adv-x="500" d="M25 106L17 202Q28 205 48 211T97 225T159 243T227 263Q262 273 299 285T373 308T438 329T483 341L479 259Q467 255 446 248T395 231T334 210T266 187Q237 178 202 166T131 141T68 120T25 106ZM22 484Q36 479 63 470T123
451T190 430T256 411Q292 400 327 390T393 369T448 352T483 341L479 259Q469 261 443 269T380 287T306 309T232 330Q199 339 165 348T101 366T50 379T20 387L22 484Z" />
<glyph unicode="?" horiz-adv-x="549" d="M319 214L225 215Q222 231 220 248T217 283Q217 322 231 348T265 394T305 432Q321 447 334 463T356 500T364 549Q364 578 353 596T323 624T276 633Q249 633 228 621T196 586T184 531Q184 511 188 490T198 447L102 448Q95
471 92 492T88 535Q88 577 102 610T141 667T203 703T283 716Q338 716 378 697T439 641T461 555Q461 506 447 473T411 417T367 375Q344 354 327 333T310 280Q310 264 312 249T319 214ZM327 -3L224 0L225 142L317 144L327 -3Z" />
<glyph unicode="@" horiz-adv-x="938" d="M448 -180Q355 -180 281 -149T156 -60T77 74T50 243Q50 314 67 384T121 516T210 625T335 699T495 726Q600 726 674 696T796 612T866 490T888 347Q888 280 871 217T821 102T740 21T630 -10Q590 -10 568 4T535 39T522 81Q502
51 481 31T434 1T378 -10Q342 -10 313 11T267 74T250 181Q250 262 261 325T293 433T340 507T397 550T458 564Q493 564 519 546T559 496L566 551L664 561Q656 501 648 443T632 332T619 238T610 166T606 126Q606 107 608 92T619 67T646 57Q681 57 710 80T761 143T795
233T808 338Q808 399 792 456T739 558T643 630T496 657Q406 657 338 622T223 527T153 393T129 242Q129 165 151 100T215 -13T318 -87T459 -113Q521 -113 581 -102T693 -70L717 -125Q656 -153 589 -166T448 -180ZM406 68Q433 68 457 88T499 147T524 242L535 326Q541
372 537 408T517 465T466 486Q447 486 429 476T395 445T368 389T350 307T343 193Q343 151 349 123T370 82T406 68Z" />
<glyph unicode="A" horiz-adv-x="462" d="M334 -6Q325 49 316 107T296 225T275 345Q267 386 260 425T247 502T234 574T223 640L162 700L302 704Q308 669 315 628T330 543T347 453T365 360Q378 293 391 229T418 106T442 -1L334 -6ZM111 142V231L343 227V150L111
142ZM123 5L21 6Q32 52 44 108T69 228T95 357Q108 418 120 479T142 596T162 700L302 704L237 634Q229 595 220 549T202 453T184 350Q173 291 163 232T143 116T123 5Z" />
<glyph unicode="B" horiz-adv-x="457" d="M128 211L124 271Q177 271 214 280T274 310T307 370T318 467Q318 530 307 568T268 622T195 639Q175 639 151 637T97 630L59 713Q93 716 124 717T183 719Q267 719 318 698T394 623T418 470Q418 399 397 350T338 270T246
225T128 211ZM184 -10Q166 -10 145 -10T103 -8T59 -6L105 76Q136 72 164 70T218 67Q248 67 272 71T310 90T325 131Q325 154 314 168T277 188T209 195Q200 195 185 195T155 195T128 194L124 271Q238 273 303 256T397 207T425 127Q425 72 396 43T312 2T184 -10ZM59
-6Q59 -6 59 24T61 104T62 216T63 342Q63 406 63 471T61 591T60 679T59 713L166 704Q166 704 165 678T164 610T162 520T160 424T159 342Q159 307 159 262T161 172T162 89T163 28T164 4L59 -6Z" />
<glyph unicode="C" horiz-adv-x="451" d="M232 -7Q184 -7 151 10T99 60T69 136Q61 165 58 199T53 271T51 349Q51 376 52 403T55 456T62 506T72 552Q84 597 105 631T161 685T245 704Q310 704 345 678T394 606T408 499Q408 465 405 428T396 351L299 352Q301 378
303 403T307 452T308 499Q308 537 303 565T283 608T242 623Q208 623 190 595T163 519Q160 500 158 477T156 431T155 383T154 334Q154 285 155 242T162 168Q170 122 186 99T238 75Q266 75 280 85T301 116T307 166Q307 176 307 188T305 213L398 214Q400 201 401 188T403
162Q403 110 385 73T329 14T232 -7Z" />
<glyph unicode="D" horiz-adv-x="472" d="M175 -10Q159 -10 141 -10T104 -8T66 -4L116 78Q131 76 146 74T176 72T202 71Q244 71 268 88T304 140T319 230T323 357Q323 425 320 475T306 560T270 612T203 629Q184 629 159 626T105 617L63 699Q98 704 130 706T190
708Q263 708 308 690T379 632T415 524T425 357Q425 277 420 217T399 113T356 43T284 3T175 -10ZM66 -4Q67 37 68 98T69 227T70 358Q70 417 69 481T67 603T63 699L169 692Q168 664 168 632T167 564T167 492T166 422T166 357Q166 332 166 298T166 224T167 145T168
66T169 -3L66 -4Z" />
<glyph unicode="E" horiz-adv-x="418" d="M64 -3Q64 -3 64 19T65 79T66 166T67 267T68 371Q68 435 67 494T65 600T64 673T63 700L169 689Q169 689 169 668T168 611T168 534T167 449T166 372Q166 337 166 290T167 193T167 100T168 31T169 4L64 -3ZM64 -3L118 80L377
75L378 0L64 -3ZM113 194V281L375 278L373 198L113 194ZM105 611L63 700L366 693V612L105 611Z" />
<glyph unicode="F" horiz-adv-x="395" d="M65 0Q65 0 65 28T67 105T68 214T69 339Q69 403 69 468T67 587T65 675T64 708L172 697Q172 697 172 671T171 604T171 514T170 419T169 338Q169 301 169 257T170 168T170 86T171 25T172 2L65 0ZM115 244V333L355 331L357
251L115 244ZM112 619L64 708L355 700L352 620L112 619Z" />
<glyph unicode="G" horiz-adv-x="454" d="M49 344Q49 375 50 404T53 460T60 512T72 559Q91 630 132 671T245 712Q306 712 340 688T389 621T403 518Q403 487 400 453T392 381L294 382Q300 424 303 459T306 524Q306 559 300 582T280 618T240 630Q206 630 188 601T162
526Q158 507 157 486T154 443T152 398T152 350Q152 314 152 283T154 224T160 174Q166 127 185 102T240 76Q268 76 285 86T311 114T320 161Q320 169 319 178T317 197L240 195V271L403 269L408 0H360L347 40Q330 21 303 7T225 -7Q177 -7 146 11T95 63T66 141Q59 171
56 204T51 272T49 344Z" />
<glyph unicode="H" horiz-adv-x="497" d="M316 0Q316 14 317 47T319 125T321 217T323 308T324 381Q324 412 324 451T323 530T322 607T322 670T320 706L433 708Q432 695 431 665T428 591T426 495T424 383Q424 323 425 262T426 146T428 53T429 0H316ZM121 267L386
273V183L121 187V267ZM68 2Q69 16 70 51T71 136T72 241T73 353Q73 411 72 467T69 570T67 650T65 694L177 698Q177 689 177 661T176 594T175 510T174 425T173 352Q173 323 173 282T174 197T175 111T176 41T177 3L68 2Z" />
<glyph unicode="I" horiz-adv-x="234" d="M64 700L174 702Q174 702 174 681T172 623T169 541T167 449T166 357Q166 314 166 265T167 169T168 84T169 23T170 0L60 1Q60 1 61 23T62 84T64 168T65 264T66 355Q66 402 66 453T66 553T66 640T64 700Z" />
<glyph unicode="J" horiz-adv-x="413" d="M185 -7Q123 -7 88 18T38 87T23 189Q23 215 25 242T32 299L125 298Q123 277 122 257T119 219T118 185Q118 147 124 122T146 85T188 73Q211 73 225 84T247 116T257 163T260 221Q260 237 260 255T260 295T260 341T259 396Q259
422 259 459T258 538T257 622T254 696L359 698Q358 628 358 549T357 402Q357 368 357 338T357 278T357 213Q357 164 349 124T321 54T268 9T185 -7Z" />
<glyph unicode="K" horiz-adv-x="444" d="M327 1Q297 48 263 95T194 188T124 277Q155 335 185 394T244 510T297 616T338 702L448 704Q430 673 407 633T359 547T310 457T264 371T225 299Q250 265 276 230T331 159T390 84T455 5L327 1ZM63 1Q63 12 63 39T65 103T66
183T67 270T68 355Q68 406 67 462T66 569T65 656T63 703L172 700Q172 692 172 666T171 602T169 521T168 435T167 355Q167 321 167 278T168 191T169 107T170 39T171 1H63Z" />
<glyph unicode="L" horiz-adv-x="383" d="M64 -5Q64 16 64 55T66 147T67 256T68 367Q68 421 67 474T65 572T64 651T63 698L171 705Q170 689 170 660T168 592T167 514T166 435T166 367Q166 338 166 299T166 216T167 132T168 57T169 4L64 -5ZM64 -5L118 80L376 77V1L64 -5Z" />
<glyph unicode="M" horiz-adv-x="669" d="M63 -1Q64 31 64 71T65 157T66 252T66 350Q66 400 66 448T66 541T66 627T64 702L202 704Q210 668 218 626T237 539T257 446T278 354Q286 321 293 290T307 229T320 173T332 124Q339 150 346 178T359 236T373 297T388 359Q398
405 407 447T426 531T444 614T462 697H605Q605 671 605 635T604 554T603 460T603 359Q603 309 603 260T604 163T605 74T606 -2L506 0Q506 27 506 53T507 105T507 157T507 209T507 262T508 315Q508 353 508 387T508 455T507 523Q499 492 491 459T476 392T459 320Q451
287 443 252T426 178T407 97T385 9L278 13Q266 60 256 102T237 183T220 257T203 327Q195 361 187 393T172 456T156 516Q156 506 156 478T156 408T157 317Q157 286 157 253T158 186T158 120T158 57T159 -1H63Z" />
<glyph unicode="N" horiz-adv-x="504" d="M64 704H190Q196 680 206 646T229 571T254 486T281 399Q294 356 306 317T328 245T346 191Q346 216 346 244T346 301T345 362T344 426Q344 456 344 485T343 544T343 603T342 660T341 715H440Q439 686 439 649T438 570T437
482T435 388Q435 338 435 288T435 189T435 95T436 11L314 3Q306 33 295 69T272 145T246 228T220 310Q212 337 204 363T188 413T173 458T160 495Q160 473 160 449T160 398T161 343T161 285Q161 256 161 227T162 169T162 112T163 55T164 0L67 1Q67 32 67 67T68 143T69
225T69 311Q69 365 69 419T68 524T67 621T64 704Z" />
<glyph unicode="O" horiz-adv-x="474" d="M230 -5Q181 -5 149 13T97 64T67 142Q60 172 57 206T52 278T51 357Q51 383 52 408T55 459T60 507T70 552Q87 620 128 662T246 705Q297 705 329 685T381 630T410 547Q418 505 420 456T423 355Q423 311 421 270T413 191T397
122Q378 64 339 30T230 -5ZM235 78Q257 78 271 89T295 123T310 177Q316 214 318 261T320 360Q320 402 319 441T315 512Q308 566 292 595T241 625Q206 625 188 595T162 511Q160 494 158 474T156 433T155 390T154 345Q154 295 155 250T162 171Q167 141 176 120T199
89T235 78Z" />
<glyph unicode="P" horiz-adv-x="432" d="M129 211L127 294Q175 292 210 299T267 325T301 378T312 462Q312 528 302 565T265 619T193 635Q180 635 165 634T133 632T98 627L60 711Q80 712 99 713T136 715T171 716Q255 716 308 696T386 621T412 465Q412 370 377
314T279 235T129 211ZM61 -6Q62 36 63 96T64 225T65 355Q65 418 64 485T62 611T60 711L167 703Q166 676 166 643T164 572T163 498T163 424T163 357Q163 332 163 298T163 225T164 146T165 69T166 1L61 -6Z" />
<glyph unicode="Q" horiz-adv-x="474" d="M230 -5Q181 -5 149 13T97 64T67 142Q60 172 57 206T52 278T51 357Q51 383 52 408T55 459T60 507T70 552Q87 620 128 662T246 705Q297 705 329 685T381 630T410 547Q418 505 420 456T423 355Q423 311 421 270T413 191T397
122Q378 64 339 30T230 -5ZM235 78Q257 78 271 89T295 123T310 177Q315 201 316 231T319 293T320 360Q320 402 319 441T315 512Q308 566 292 595T241 625Q206 625 188 595T162 511Q160 494 158 474T156 433T155 390T154 345Q154 312 155 281T157 221T162 171Q169
126 186 102T235 78ZM368 -75L209 124L254 157L443 -21L368 -75Z" />
<glyph unicode="R" horiz-adv-x="458" d="M131 221L128 304Q174 302 208 309T266 334T302 386T314 467Q314 532 303 568T265 620T193 635Q174 635 150 633T99 627L61 711Q81 712 100 713T138 715T173 716Q256 716 309 697T387 624T413 470Q413 377 379 323T280
245T131 221ZM62 -6Q63 36 64 96T65 225T66 355Q66 418 65 485T64 611T61 711L169 703Q168 678 167 645T166 575T165 499T165 425T164 357Q164 326 164 282T165 187T166 89T168 1L62 -6ZM333 -6Q307 62 278 130T213 272L309 303Q339 229 374 154T455 -3L333 -6Z"
/>
<glyph unicode="S" horiz-adv-x="447" d="M221 -10Q172 -10 137 3T80 39T47 94T36 160Q36 175 37 191T43 223H138Q134 207 133 192T131 163Q131 136 139 115T166 81T217 69Q253 69 274 80T304 109T313 150Q313 173 303 189T276 219T237 245T189 272Q160 289 133
309T83 356T48 420T35 505Q35 562 56 607T121 678T229 704Q301 704 341 677T399 604T416 502Q416 484 415 466T411 430T406 395H305Q309 421 311 448T314 501Q314 536 307 564T281 608T226 624Q201 624 184 615T155 590T140 552T135 506Q135 467 148 440T186 393T241
355Q273 338 303 320T358 280T399 228T414 156Q414 109 393 72T329 12T221 -10Z" />
<glyph unicode="T" horiz-adv-x="401" d="M143 2Q144 18 144 47T146 114T148 194T149 281T149 367Q149 421 148 477T147 581T145 658T144 688L253 686Q253 686 253 666T252 613T251 538T250 451T250 362Q250 319 250 270T251 174T252 87T253 25T253 1L143 2ZM0
609L3 701Q3 701 23 701T72 701T132 702T183 702Q200 702 226 702T282 702T338 703T381 704T398 704L401 617Q401 617 386 617T346 617T293 616T239 615T196 615Q179 615 155 614T104 613T53 611T15 610T0 609Z" />
<glyph unicode="U" horiz-adv-x="480" d="M240 -10Q190 -10 157 5T103 47T73 112T63 192Q63 227 63 269T64 355T64 432Q64 477 64 520T64 606T61 696L167 695Q166 662 165 626T164 553T163 485T162 426Q162 397 162 368T161 312T161 262T161 225Q161 177 168 144T192
93T242 75Q267 75 282 87T305 119T316 163T319 212Q319 222 319 249T320 319T320 424Q320 488 319 540T316 634T314 707L419 706Q419 673 419 643T418 580T417 510T416 422Q417 337 417 277T417 194Q417 162 410 126T384 59T330 9T240 -10Z" />
<glyph unicode="V" horiz-adv-x="455" d="M19 709L130 708Q140 647 150 586T170 466T189 349Q197 307 204 267T218 187T232 110Q238 144 245 182T260 264T276 353Q284 396 291 441T307 531T322 619T336 702L441 707Q434 673 425 632T406 545T386 451T367 354Q358
307 348 260T330 167T313 79T297 0L163 -2Q157 34 149 75T132 160T114 251T95 344Q85 394 75 443T55 540T36 630T19 709Z" />
<glyph unicode="W" horiz-adv-x="758" d="M282 -4L157 -3Q151 31 140 85T117 204T90 340Q80 392 70 443T51 543T34 632T19 703H129Q138 651 146 595T164 481T182 366Q188 332 193 299T203 235T214 175T224 119Q230 144 236 173T248 233T261 297T275 363Q286 418
296 471T314 571T329 653H439Q446 612 454 563T472 461T492 353Q498 324 503 294T515 235T527 177T539 121Q544 150 551 189T567 274T583 369Q593 428 603 488T622 604T639 706L743 710Q737 679 729 640T712 556T693 462T673 361Q661 296 649 231T625 105T604 -4L475
-3Q470 27 463 66T447 151T430 242T412 331Q406 362 401 390T390 441T381 483Q378 465 374 443T364 394T353 340Q344 298 335 253T317 161T299 73T282 -4Z" />
<glyph unicode="X" horiz-adv-x="438" d="M-9 -2Q1 17 21 56T67 147T123 259T183 380Q208 433 232 483T275 576T308 649T328 692L437 691Q427 671 407 635T362 550T309 445T251 329Q225 275 201 223T157 126T123 48T102 -1L-9 -2ZM331 -11Q326 4 313 37T280 117T237
216T189 324Q160 385 132 444T79 553T36 639T9 690L125 688Q130 677 141 650T170 583T208 498T253 400Q276 352 299 303T344 206T387 118T422 44T448 -7L331 -11Z" />
<glyph unicode="Y" horiz-adv-x="404" d="M147 0Q148 14 149 72T148 233L246 224Q247 185 247 149T249 84T250 33T252 1L147 0ZM-9 704H101Q109 671 118 631T138 549T158 465Q167 433 174 403T187 349T200 306Q206 325 213 350T228 403T244 463Q252 491 260 520T275
580T291 639T306 695L415 698Q408 676 399 648T379 588T357 520T334 449Q320 404 306 360T280 275T257 200T239 139H158Q150 169 140 204T119 277T96 355T72 437Q61 474 50 511T28 583T9 648T-9 704Z" />
<glyph unicode="Z" horiz-adv-x="388" d="M30 693Q49 692 70 692T113 692T159 691T203 692Q229 693 253 693T305 694T361 695L363 606Q340 559 318 512T274 420T232 329Q213 287 195 247T158 166T123 86Q140 86 157 86T192 86T225 86Q257 86 280 86T324 88T374
89L373 0Q352 0 331 0T289 1T244 2T194 3Q170 3 142 3T87 2T43 2T20 1L15 86Q50 157 81 223T141 352Q170 420 199 484T253 609Q241 609 227 609T198 609T170 609Q142 609 120 609T79 608T48 607T28 606L30 693Z" />
<glyph unicode="[" horiz-adv-x="445" d="M89 -138Q89 -131 90 -103T92 -32T95 67T97 182T98 304Q98 379 98 449T96 574T95 661T94 691L181 671Q180 646 180 613T180 541T179 463T179 384T179 307Q179 268 179 222T179 126T179 30T179 -58T181 -129L89 -138ZM89
-138L115 -52Q127 -52 148 -52T195 -52T251 -52T306 -50T353 -49L348 -130Q319 -131 287 -132T223 -134T164 -136T116 -137T89 -138ZM116 616L94 691Q104 691 126 691T177 692T237 694T296 695T344 697L353 618Q354 618 335 618T285 618T221 617T160 617T116 616Z"
/>
<glyph unicode="\" horiz-adv-x="355" d="M331 -1L237 0Q232 18 221 55T195 141T164 244T131 350Q119 391 106 434T79 519T55 596T37 658T25 696L121 698Q124 684 130 657T146 594T167 517T191 433T216 350Q232 298 249 245T281 142T310 56T331 -1Z" />
<glyph unicode="]" horiz-adv-x="445" d="M351 -133L264 -112Q265 -60 265 -10T265 85T266 173T266 251Q266 284 266 321T266 400T266 488T265 584T264 688L356 697Q354 665 353 617T350 508T348 384T347 255Q347 191 347 129T349 14T350 -77T351 -133ZM100 -138L92
-59Q104 -59 127 -59T180 -59T239 -58T292 -58T329 -57L351 -133Q343 -133 326 -133T285 -133T232 -134T169 -136T100 -138ZM92 607L97 689Q141 690 178 691T246 693T299 694T336 696T356 697L330 611Q320 611 304 611T266 611T216 610T157 609T92 607Z" />
<glyph unicode="^" horiz-adv-x="472" d="M321 368Q318 374 309 397T288 453T262 515Q252 541 240 569T217 622T197 667T185 695L263 700Q269 689 275 675T290 642T307 603T328 558Q337 539 349 513T374 458T399 407T416 370L321 368ZM148 371L57 374Q61 385 68
403T85 444T105 492T126 541Q140 576 154 612T177 672T186 695L264 700Q263 697 256 679T239 635T219 579T200 526Q193 503 185 480T170 435T157 397T148 371Z" />
<glyph unicode="_" horiz-adv-x="433" d="M47 -121L45 -42Q45 -42 60 -42T101 -43T155 -44T212 -44Q240 -44 271 -43T328 -42T372 -41T389 -40L387 -118Q387 -118 371 -118T330 -117T275 -117T218 -117Q193 -117 164 -118T108 -119T64 -120T47 -121Z" />
<glyph unicode="`" horiz-adv-x="213" d="M179 605Q167 612 154 618T127 631T98 644Q84 652 69 658T39 671T8 685L50 751Q68 738 89 724T130 697Q151 686 170 674T208 652L179 605Z" />
<glyph unicode="a" horiz-adv-x="387" d="M253 0L255 102L249 374Q248 419 232 437T191 456Q164 456 150 436T136 383Q136 371 138 358T144 331L58 326Q54 342 52 357T50 388Q50 429 66 460T114 508T192 526Q237 526 265 511T310 469T331 411T336 345L335 252L338
0H253ZM150 -8Q114 -8 89 9T51 54T37 121Q37 154 48 178T77 220T117 252T161 279Q179 289 195 299T223 320T242 344T249 374L292 356Q290 323 276 300T242 260T198 229Q179 216 162 202T136 171T126 131Q126 112 130 99T144 78T169 70Q195 70 213 89T242 146T252
238L289 296Q289 225 283 169T262 74T219 13T150 -8Z" />
<glyph unicode="b" horiz-adv-x="429" d="M237 -7Q207 -7 187 6T153 43T133 101T122 173T119 257L155 227Q155 171 163 136T187 85T221 68Q238 68 250 79T270 110T281 155Q284 176 286 198T288 245T289 292T290 338Q289 375 284 399T267 436T236 449Q216 449 197
433T167 383T155 297L120 251Q120 285 122 318T131 381T148 438T173 484T209 515T256 526Q297 526 323 506T364 449T380 365Q381 333 381 303T380 244T376 188T368 134Q356 71 323 32T237 -7ZM146 -1L59 1Q60 7 60 32T61 95T63 177T64 264T64 345Q64 393 63 446T61
547T59 634T56 692L159 697Q159 684 159 657T158 594T157 515T156 429T155 344Q155 310 155 268T155 181T153 98L146 -1Z" />
<glyph unicode="c" horiz-adv-x="402" d="M204 -11Q147 -11 115 19T66 98Q55 132 51 172T46 254Q46 304 51 348T72 428Q85 458 104 479T151 513T219 525Q270 525 301 503T346 441T360 353Q360 336 359 320T354 286L262 288Q264 307 265 325T267 361Q267 388 263
409T246 442T212 454Q187 454 173 436T151 387Q145 360 143 326T141 256Q141 234 141 213T143 174T148 138Q154 104 168 83T211 62Q233 62 246 71T265 96T272 132Q272 140 271 148T267 167L358 168Q359 160 359 153T360 137Q360 93 344 60T293 8T204 -11Z" />
<glyph unicode="d" horiz-adv-x="423" d="M49 255Q49 301 54 344T71 422Q86 469 115 498T193 527Q215 527 231 521T260 504T281 480Q281 500 281 527T280 585T279 644T278 692L376 694Q374 607 373 541T371 423T370 330Q370 298 370 266T370 201T371 135T372 68T374
0L286 -1L284 64Q275 43 260 27T225 0T179 -10Q146 -10 123 2T86 36T64 89Q54 124 52 167T49 255ZM142 255Q142 222 142 192T146 137Q150 105 162 86T201 66Q228 66 244 90T267 151Q272 170 274 189T278 229T279 268Q279 295 277 323T271 376Q265 411 251 434T211
457Q196 457 185 448T166 424T153 388Q146 359 144 324T142 255Z" />
<glyph unicode="e" horiz-adv-x="404" d="M210 -12Q154 -12 121 15T70 88Q57 124 52 169T46 264Q46 308 51 347T68 418Q86 467 122 496T218 525Q271 525 301 503T345 440T358 348Q358 321 356 293T348 235L261 298Q264 317 265 334T266 366Q266 393 262 412T245
443T211 454Q187 454 173 438T151 393Q145 368 143 336T141 270Q141 245 141 221T142 176T147 136Q154 102 169 82T213 62Q235 62 247 71T265 97T271 132Q271 140 271 149T267 167H356Q358 157 358 148T359 128Q359 86 342 55T292 6T210 -12ZM77 227L75 303L336
305L348 235Q348 235 330 235T283 234T218 233T145 231T77 227Z" />
<glyph unicode="f" horiz-adv-x="316" d="M14 434L19 514Q19 514 33 514T71 513T120 513T171 512Q195 512 220 512T266 513T300 513T313 514L309 438Q309 438 297 438T264 438T218 438T169 437Q145 437 118 437T68 436T29 435T14 434ZM249 716Q293 716 322 700T366
654T378 588L288 591Q287 622 275 635T243 648Q224 648 213 636T198 603T191 557Q189 497 188 452T187 364T187 272Q187 200 189 138T192 38T194 0L87 -3Q87 -3 89 35T93 135T95 270Q95 316 95 347T95 405T96 460T96 532Q96 571 104 604T131 663T179 702T249 716Z"
/>
<glyph unicode="g" horiz-adv-x="425" d="M195 -166Q154 -166 125 -155T81 -122T65 -73Q65 -68 65 -64T66 -56L145 -44Q144 -47 144 -50T143 -57Q143 -69 150 -78T170 -92T201 -97Q222 -97 238 -89T263 -60T273 -5Q273 20 273 61T273 156T274 276Q274 314 275
346T278 406T284 461T292 516H378Q375 489 373 461T368 403T366 343T365 278Q365 227 365 189T365 120T365 65T365 16Q365 -26 356 -60T326 -118T274 -154T195 -166ZM183 -10Q138 -10 112 19T70 93Q59 131 54 174T49 262Q49 289 51 316T58 369T71 417Q87 465 117
494T198 524Q239 524 264 498T302 411T315 250L274 278Q274 329 268 367T249 428T211 451Q189 451 176 434T155 388Q148 361 146 329T143 263Q143 242 143 220T146 178T151 138Q154 117 160 101T177 75T202 65Q224 65 240 85T265 143T274 231L315 250Q315 230 313
198T305 130T284 63T246 11T183 -10Z" />
<glyph unicode="h" horiz-adv-x="434" d="M61 0Q62 12 62 41T63 113T64 204T65 307Q65 349 65 390T64 472T64 552T63 628T62 698H157Q157 668 157 628T157 543T156 449T155 355T156 267Q156 217 156 174T158 97T160 37T161 0H61ZM379 -2L273 1Q274 23 275 46T278
96T279 158T280 237Q280 253 280 271T280 310T280 358Q280 390 275 409T260 437T235 446Q217 446 199 431T168 376T156 267L116 234Q116 275 119 315T132 393T158 460T200 506T261 523Q293 523 317 509T356 460T371 365Q371 329 371 310T371 277T371 243Q371 194
372 158T374 95T376 45T379 -2Z" />
<glyph unicode="i" horiz-adv-x="233" d="M172 0L64 1Q65 13 66 38T69 97T72 175T73 267Q73 334 71 387T67 473T64 517H168Q168 509 167 475T165 387T164 266Q164 219 165 177T167 100T169 40T172 0ZM166 608L68 602L65 701L169 707L166 608Z" />
<glyph unicode="j" horiz-adv-x="217" d="M-23 -166L-25 -96Q1 -96 20 -89T50 -64T63 -17Q66 11 66 49T66 139T65 258Q65 322 64 375T61 465T58 516H161Q161 507 160 475T157 390T156 265Q156 221 156 190T156 136T156 91T156 48T154 -3Q153 -47 139 -79T100 -131T44
-159T-23 -166ZM60 602L58 702L159 707L157 607L60 602Z" />
<glyph unicode="k" horiz-adv-x="417" d="M325 0Q279 66 228 133T120 270Q165 327 196 369T254 448T306 522L407 520Q375 480 346 443T285 365T217 277Q268 209 320 144T436 3L325 0ZM60 0Q60 0 60 19T62 71T64 145T65 232T66 321Q66 364 66 414T65 515T65 606T64
671T63 696L160 695Q160 695 160 671T159 605T157 515T156 415T155 321Q155 277 155 232T157 146T159 72T160 20T160 1L60 0Z" />
<glyph unicode="l" horiz-adv-x="220" d="M60 1Q61 27 62 60T63 134T64 221T65 321Q65 364 65 415T64 519T63 616T61 695H161Q160 655 159 608T156 512T155 413T154 320Q154 268 155 210T157 99T160 10L60 1Z" />
<glyph unicode="m" horiz-adv-x="642" d="M274 1Q276 26 277 50T279 100T281 154T282 214Q282 240 282 263T282 309T282 357Q282 388 278 407T263 435T237 445Q217 445 200 427T172 371T161 276L121 230Q121 289 128 341T150 434T193 498T260 522Q290 522 311
509T344 474T362 420T370 353T372 277Q371 231 371 191T373 117T375 54T378 1H274ZM63 1Q65 25 66 49T68 100T69 163T70 247Q70 317 70 374T69 469T67 517L158 522Q158 504 158 468T158 383T161 276Q161 216 162 166T164 75T165 1H63ZM576 0L479 10Q482 48 483
78T487 137T490 201Q491 222 491 247T492 303T493 364Q493 392 489 411T475 442T450 453Q425 453 408 434T381 376T372 277L331 219Q330 287 336 343T357 441T399 504T472 526Q510 526 535 508T572 450T584 350Q584 327 584 301T583 250T582 204Q581 167 580 135T578
70T576 0Z" />
<glyph unicode="n" horiz-adv-x="439" d="M383 -2L277 1Q279 23 280 46T282 96T284 158T285 237Q285 253 285 271T285 310T285 358Q285 390 280 409T265 437T239 446Q222 446 204 431T173 376T160 267L120 234Q120 275 124 315T137 393T163 460T205 506T265 523Q297
523 322 509T361 460T376 365Q376 329 376 310T376 277T376 243Q376 194 376 158T378 95T381 45T383 -2ZM62 1Q63 25 64 47T67 97T69 160T70 247Q70 317 69 374T68 469T66 517L158 522Q158 504 158 466T158 377T160 267Q160 198 161 151T163 70T164 1H62Z" />
<glyph unicode="o" horiz-adv-x="427" d="M208 -10Q149 -10 117 21T69 103Q59 138 55 180T51 269Q51 300 53 328T62 383T77 431Q95 476 130 502T223 528Q277 528 308 499T356 423Q367 390 371 350T376 264Q376 222 373 184T361 112Q351 75 332 48T283 5T208 -10ZM215
67Q244 67 258 87T277 141Q280 157 281 174T282 211T282 250Q282 286 281 319T275 379Q269 413 255 433T215 453Q200 453 189 446T170 426T157 395Q152 376 149 353T146 305T145 254Q145 235 145 216T147 179T151 145Q157 110 172 89T215 67Z" />
<glyph unicode="p" horiz-adv-x="439" d="M61 -154Q62 -140 63 -113T65 -49T67 31T69 120T70 208Q70 247 70 292T69 380T67 459T64 516L161 520V452Q170 471 184 488T219 515T265 525Q318 525 344 491T381 404Q387 373 389 336T391 259Q391 227 389 195T380 134T364
80Q347 38 318 13T243 -12Q223 -12 208 -7T182 9T163 31L166 -151L61 -154ZM162 217Q162 171 168 135T190 79T230 58Q251 58 264 74T285 117Q293 146 295 183T298 260Q298 292 298 320T295 372Q292 407 280 428T240 449Q214 449 197 425T172 362T162 275V217Z"
/>
<glyph unicode="q" horiz-adv-x="418" d="M47 259Q47 309 52 355T70 438Q85 479 112 503T185 527Q211 527 229 517T261 491T282 453V525L376 527Q376 515 375 490T373 429T370 353T368 271T367 191Q367 154 367 112T369 27T370 -52T372 -116T373 -154L277 -152L278
43Q269 30 256 18T226 -2T187 -10Q154 -10 130 3T91 41T65 96Q55 131 51 173T47 259ZM140 264Q140 233 141 203T147 146Q153 109 167 86T208 62Q233 62 247 84T268 137Q274 163 275 193T276 252Q276 272 275 292T272 333T265 372Q257 406 242 429T204 453Q187 453
176 445T157 421T146 387Q141 361 141 329T140 264Z" />
<glyph unicode="r" horiz-adv-x="365" d="M246 223Q258 272 264 314T270 389Q270 421 261 438T229 456Q211 456 195 439T168 385T157 287L115 245Q115 286 119 328T133 406T158 471T197 516T251 532Q288 532 310 514T343 463T353 388Q353 352 347 310T331 223H246ZM57
0Q59 28 60 53T63 107T65 169T66 247Q66 294 66 334T64 409T62 470T58 519L152 524Q152 498 152 464T153 387T157 287Q157 242 157 202T158 126T159 60T161 1L57 0Z" />
<glyph unicode="s" horiz-adv-x="378" d="M187 -10Q139 -10 106 7T56 52T38 118Q38 128 39 137T43 157H133Q132 150 131 143T130 128Q130 109 135 95T154 71T190 62Q211 62 224 70T243 94T249 128Q249 150 236 164T201 190T153 216Q132 227 111 241T74 273T48
317T38 376Q38 427 59 462T115 515T194 534Q246 534 278 514T325 459T340 376Q340 367 340 357T338 337T335 315H241Q244 332 245 348T247 379Q247 415 235 437T192 460Q173 460 160 452T139 426T131 383Q131 359 138 343T160 315T193 292Q217 279 243 266T292
236T329 195T343 134Q343 89 323 57T268 7T187 -10Z" />
<glyph unicode="t" horiz-adv-x="386" d="M198 -10Q159 -10 132 2T90 36T68 88T61 155Q61 188 63 224T66 299Q69 356 71 396T75 464T78 516T79 561T79 613L186 614Q182 568 178 523T170 436T164 357T159 292Q157 255 156 223T154 162Q154 130 157 107T171 72T203
60Q225 60 237 72T255 106T260 156Q260 173 260 190T257 224T252 258H339Q342 241 343 225T346 194T347 163Q347 113 334 74T288 13T198 -10ZM19 433L26 515Q27 515 38 515T65 515T99 515T129 514T149 514Q167 514 191 514T242 515T291 516T329 516T343 517L338
442Q338 442 326 442T295 442T252 441T206 440T166 439Q144 439 119 438T71 436T34 434T19 433Z" />
<glyph unicode="u" horiz-adv-x="422" d="M158 -10Q119 -10 97 9T65 63T56 148Q56 160 56 183T58 239T59 308Q60 343 61 374T62 433T63 483T64 520L158 526Q157 501 156 475T153 420T149 360T145 290Q144 266 143 245T142 205T141 171T141 145Q141 119 144 100T156
72T179 62Q198 62 215 76T246 118T268 190T277 292L315 297Q314 247 309 201T293 117T264 50T220 6T158 -10ZM284 0L276 108Q277 155 277 201T277 292Q277 318 277 348T276 410T275 472T274 528L369 526Q368 500 367 473T365 419T364 367T363 321T362 283Q363 256
363 225T365 162T367 99T368 43T369 0H284Z" />
<glyph unicode="v" horiz-adv-x="389" d="M20 523H120Q124 496 128 469T137 413T147 351T160 276Q165 246 171 214T184 148T196 79Q200 105 204 130T214 179T224 227T233 273Q243 327 250 367T263 443T275 516L370 520Q367 504 361 477T347 415T330 341T312 261Q301
208 292 165T275 81T259 -5L131 -2Q125 33 120 63T109 123T96 187T80 263Q70 309 61 349T44 422T30 481T20 523Z" />
<glyph unicode="w" horiz-adv-x="617" d="M133 -3Q126 37 117 83T98 180T77 282Q71 315 64 345T50 404T37 461T24 516H127Q132 486 135 459T142 407T149 357T157 306Q163 269 168 234T180 162T192 89Q197 116 202 146T213 209T224 276Q229 314 234 348T244 414T252
478H372Q376 441 380 408T388 343T397 276Q403 236 408 200T418 136T424 89Q430 114 435 140T445 194T455 251T466 309Q471 337 475 364T484 416T492 467T500 520L598 518Q592 493 586 467T573 414T559 357T545 294Q534 245 524 194T503 93T482 -5L365 -2Q360 34
354 74T343 156T330 239Q325 276 320 309T310 367Q306 338 301 307T291 244Q284 197 278 158T265 82T251 1L133 -3Z" />
<glyph unicode="x" horiz-adv-x="345" d="M93 -4L-5 -2Q4 16 18 43T51 106T91 185T136 280Q160 329 178 368T211 436T234 485T249 519H343Q336 504 324 481T296 425T260 352T215 262Q191 211 172 170T137 95T111 37T93 -4ZM261 0Q255 13 244 36T218 94T181 170T136
262Q111 310 90 351T52 424T23 480T3 518L103 519Q109 506 118 486T140 437T172 369T216 280Q240 229 262 186T302 106T335 44T357 3L261 0Z" />
<glyph unicode="y" horiz-adv-x="398" d="M218 -154L119 -150Q130 -114 140 -78T161 -5T180 67T198 139T215 212T230 285Q239 331 246 366T259 438T273 521H375Q366 488 359 459T344 401T328 340T311 269Q301 225 291 181T272 93T253 7T235 -76T218 -154ZM169
-19Q162 8 155 35T139 90T123 148T107 208T89 270Q80 303 72 331T56 386T39 444T19 512L124 514Q135 464 142 429T156 362T173 291Q181 259 187 228T202 165T218 100T236 32L169 -19Z" />
<glyph unicode="z" horiz-adv-x="316" d="M85 10L19 82Q33 109 48 137T79 198T116 269Q134 305 151 341T186 415T223 496L295 428Q278 397 262 366T228 301T192 231Q171 191 153 154T117 81T85 10ZM20 -4L19 82Q19 82 36 82T80 82T132 81T176 81Q194 81 216 81T258
82T291 83T304 84L302 0Q302 0 288 0T251 0T204 0T161 0Q142 0 119 0T73 -2T35 -3T20 -4ZM26 428L28 513Q28 513 42 513T77 513T122 513T165 513Q184 513 206 513T247 514T279 515T292 516L295 428Q295 428 280 428T241 429T193 429T149 430Q131 430 110 430T69
429T38 429T26 428Z" />
<glyph unicode="{" horiz-adv-x="532" d="M321 -136Q257 -136 218 -101T178 2Q178 29 183 55T194 108T200 161Q200 186 190 201T165 224T131 234T97 235L88 310Q105 309 124 311T161 322T189 345T200 384Q200 405 195 429T184 477T173 526T168 571Q168 641 206
675T307 709Q334 709 364 702T426 681L404 609Q376 621 355 627T315 634Q284 634 268 615T251 556Q251 543 255 521T266 472T277 420T282 374Q282 336 262 312T202 278Q241 268 262 242T284 177Q284 159 281 137T274 90T266 47T263 16Q263 -25 280 -44T329 -63Q349
-63 372 -56T422 -37L440 -108Q409 -122 379 -129T321 -136Z" />
<glyph unicode="|" horiz-adv-x="238" d="M166 -136L73 -134Q73 -135 73 -109T73 -37T74 64T75 178T76 288Q76 339 76 395T75 505T75 601T74 669T74 693L165 694Q165 695 164 671T162 604T160 508T157 398T156 289Q156 237 157 178T159 63T162 -38T165 -110T166 -136Z" />
<glyph unicode="}" horiz-adv-x="532" d="M225 -136Q198 -136 168 -129T105 -108L128 -36Q155 -48 176 -54T217 -61Q247 -61 264 -42T281 17Q281 30 277 52T266 101T255 153T250 199Q250 237 270 261T329 295Q290 305 269 332T248 396Q248 414 251 436T258 483T266
526T269 557Q269 599 251 617T202 636Q182 636 159 629T109 610L91 681Q123 695 153 702T211 709Q275 709 314 674T354 571Q354 544 349 518T338 465T332 412Q332 387 341 372T366 349T400 339T434 338L443 263Q427 264 408 262T371 251T343 228T332 189Q332 168
337 144T348 96T359 47T364 2Q364 -67 326 -101T225 -136Z" />
<glyph unicode="~" horiz-adv-x="500" d="M71 236L67 302Q86 312 110 319T163 326Q196 326 218 322T260 314T305 309Q347 309 374 318T425 338L428 269Q416 262 387 252T314 241Q291 241 265 245T214 253T166 257Q149 257 130 254T96 246T71 236Z" />
<glyph unicode="&#xa0;" horiz-adv-x="224" />
<glyph unicode="&#xa1;" horiz-adv-x="288" d="M92 -151Q93 -136 94 -113T97 -61T99 -2T102 57T104 110Q105 137 106 166T108 224T109 278T111 321L179 323Q180 301 181 269T183 196T186 108Q187 73 188 35T191 -38T194 -102T196 -147L92 -151ZM102 407L95 549L192
556L186 407H102Z" />
<glyph unicode="&#xa2;" horiz-adv-x="500" d="M243 29Q189 29 155 53T102 115Q86 146 79 187T71 273T78 359T101 432Q115 460 136 481T188 513T258 525Q318 525 353 503T403 442T419 356Q419 341 418 327T413 297L322 299Q323 314 324 329T326 358Q326 385 320
407T298 442T251 455Q224 455 207 438T180 393Q173 372 170 342T166 278T169 214T179 164Q188 137 204 120T250 102Q296 102 313 126T331 183Q331 192 330 200T326 218L417 219Q418 212 418 204T419 187Q419 140 402 105T345 49T243 29ZM282 -44L217 -43Q218 -30
219 -3T221 69T223 176T224 322Q224 389 224 434T223 509T223 556T222 586T221 607L286 604Q285 588 283 562T279 498T275 414T273 311Q273 255 274 199T276 94T279 9T282 -44Z" />
<glyph unicode="&#xa3;" horiz-adv-x="500" d="M187 57L73 77Q103 83 121 96T146 128T153 172Q153 208 142 250T116 338T90 427T78 512Q78 569 98 612T160 681T264 706Q329 706 368 682T424 619T441 531Q441 509 438 485T427 437L335 436Q340 456 343 477T347
520Q347 548 340 572T314 610T265 625Q234 625 213 612T181 574T170 514Q170 462 181 417T206 331T232 253T243 179Q243 158 238 138T221 97T187 57ZM85 -4L73 77Q73 77 83 77T110 77T152 76T206 75T266 75Q286 75 307 75T350 76T395 78T441 80L435 -1Q426 -1 408
-1T369 0T327 0T288 0T262 0Q225 0 193 0T137 -2T99 -3T85 -4ZM56 254L68 331Q70 331 87 331T128 331T173 331T205 331Q223 331 246 331T293 333T340 335T381 336L367 257Q367 257 357 257T329 259T287 260T235 261Q207 261 176 260T118 258T74 255T56 254Z" />
<glyph unicode="&#xa4;" horiz-adv-x="600" d="M293 40Q235 40 194 58T126 109T87 182T75 270Q75 340 102 395T182 484T310 517Q385 517 435 488T510 406T535 284Q535 238 521 194T478 116T402 61T293 40ZM93 -3L28 55L120 149L177 96L93 -3ZM127 396L32 495L97
554L177 454L127 396ZM299 124Q345 124 375 142T420 194T435 276Q435 325 422 359T381 412T306 431Q269 431 244 418T203 383T182 334T175 277Q175 235 187 200T227 145T299 124ZM509 -3L427 95L479 152L574 55L509 -3ZM480 403L425 456L510 554L574 495L480 403Z"
/>
<glyph unicode="&#xa5;" horiz-adv-x="500" d="M194 0L196 213Q187 243 175 282T148 365T119 454Q103 504 88 551T60 638T38 704H148Q154 678 163 643T182 570T202 493Q212 459 220 428T236 373T247 336Q253 354 261 379T278 436T297 500Q305 525 312 551T327
602T340 650T353 695L462 698Q454 675 441 639T413 560T382 470Q365 420 349 372T318 281T294 208L299 1L194 0ZM75 85L83 162Q105 162 135 162T196 161T249 162Q273 163 303 163T364 165T417 167L404 89Q387 90 361 90T306 91T252 92Q227 92 195 91T131 89T75
85ZM76 207L84 283Q107 283 137 283T198 283T251 283Q275 284 305 285T365 287T418 289L406 211Q388 212 362 212T307 213T253 214Q228 214 196 213T132 211T76 207Z" />
<glyph unicode="&#xa6;" horiz-adv-x="238" d="M76 351Q76 412 76 473T75 584T75 664T74 693L165 694Q165 695 164 665T162 585T159 474T156 351H76ZM73 -134Q74 -104 74 -56T74 54T76 186H157Q158 128 159 71T162 -34T165 -109T166 -136L73 -134Z" />
<glyph unicode="&#xa7;" horiz-adv-x="448" d="M225 702Q282 702 315 681T363 622T378 538Q378 526 378 514T376 489T372 464H280Q282 479 284 497T286 534Q286 561 280 583T261 617T222 630Q201 630 187 620T166 590T159 542Q159 520 168 503T195 472T235 446Q267
429 293 415T339 383T369 343T380 288Q380 252 366 227T328 185T275 163T215 159L207 238Q216 231 229 230T257 234T280 252T290 283Q290 301 278 313T245 337T201 361Q172 376 148 392T105 429T77 478T67 543Q67 590 86 625T141 681T225 702ZM222 -110Q166 -110
132 -89T84 -30T69 54Q69 67 69 79T71 103T75 128H167Q165 113 163 95T161 58Q161 31 167 9T187 -25T225 -38Q247 -38 261 -28T281 2T288 50Q288 73 279 90T252 120T212 146Q180 163 154 178T108 211T78 250T67 303Q67 340 81 367T119 410T172 432T232 433L240
354Q231 361 218 362T190 359T167 342T157 309Q157 292 170 279T206 253T257 226Q287 212 315 190T361 134T380 49Q380 3 361 -33T306 -89T222 -110Z" />
<glyph unicode="&#xa8;" horiz-adv-x="325" d="M302 628L224 630L222 719L303 716L302 628ZM100 628L23 630L21 719L102 716L100 628Z" />
<glyph unicode="&#xa9;" horiz-adv-x="727" d="M350 58Q276 58 222 83T134 154T83 257T67 380Q67 449 86 509T143 615T237 687T368 713Q445 713 500 688T590 617T643 514T660 390Q660 319 641 258T583 153T486 83T350 58ZM356 187Q319 187 297 207T263 260Q254
287 251 319T247 387Q247 424 250 455T262 512Q274 549 299 570T367 591Q403 591 424 574T454 528T463 462Q463 450 462 437T460 410L396 411Q398 429 399 444T400 472Q400 494 397 509T385 532T362 540Q342 540 332 526T317 486Q315 468 314 446T312 400Q312 372
313 347T317 302Q321 273 330 257T360 241Q377 241 386 247T399 266T403 295Q403 300 403 305T402 315T400 326L462 327Q463 321 463 316T464 304Q464 269 453 243T419 202T356 187ZM356 124Q415 124 457 144T527 201T567 284T581 385Q581 439 569 486T530 570T463
626T364 647Q313 647 276 631T213 587T173 525T151 454T144 384Q144 330 155 283T192 200T257 144T356 124Z" />
<glyph unicode="&#xaa;" horiz-adv-x="371" d="M71 523Q71 546 83 559T113 579T151 593Q170 599 186 603T212 613T223 630Q223 643 214 652T182 661Q157 661 145 650T134 620L80 625Q80 660 107 681T184 703Q221 703 242 692T273 662T282 624L280 532Q280 519
285 508T298 489L250 465Q241 472 235 480T226 499Q209 482 187 474T143 465Q124 465 108 471T81 491T71 523ZM129 527Q129 518 136 513T155 507Q170 507 185 512T212 529T224 559V578Q215 572 198 567T163 556Q149 551 139 545T129 527Z" />
<glyph unicode="&#xab;" horiz-adv-x="753" d="M96 235L92 316Q101 322 120 334T163 361T210 394Q233 409 253 424T294 454T334 484L378 417Q369 413 348 401T301 372T247 339Q216 319 186 298T132 260T96 235ZM339 84Q325 95 306 108T264 135T215 165Q190 180
166 194T123 219T96 235L92 316Q101 311 119 300T161 275T208 247T255 220Q282 205 307 191T351 167T379 151L339 84ZM378 235L374 316Q383 322 402 334T445 361T493 394Q515 409 535 424T576 454T616 484L660 417Q651 413 630 401T583 372T529 339Q498 319 468
298T414 260T378 235ZM621 84Q607 95 588 108T547 135T497 165Q473 180 448 194T405 219T378 235L374 316Q383 311 401 300T443 275T490 247T537 220Q564 205 589 191T633 167T661 151L621 84Z" />
<glyph unicode="&#xac;" horiz-adv-x="550" d="M32 305L26 384Q44 384 67 384T118 383T171 383T223 382T267 382Q279 382 299 382T344 383T397 383T456 384T516 386L510 306Q499 306 477 306T427 307T370 308T316 308T275 309Q256 309 234 309T185 308T133 307T81
306T32 305ZM438 137Q438 158 439 176T440 216T440 267Q440 289 440 303T439 330T436 362L516 386Q516 378 516 363T515 326T514 275Q514 249 514 229T516 188T518 141L438 137Z" />
<glyph unicode="&#xad;" horiz-adv-x="398" d="M75 251L81 329Q81 329 91 329T118 328T156 327T201 326Q224 326 245 326T284 327T311 328T321 329L324 251Q324 251 312 251T281 252T239 252T195 253Q173 253 152 253T113 252T86 252T75 251Z" />
<glyph unicode="&#xae;" horiz-adv-x="470" d="M224 221Q170 221 132 240T71 292T36 369T24 459Q24 510 37 556T77 636T144 691T241 711Q296 711 335 692T398 640T434 564T446 476Q446 423 433 377T393 296T323 241T224 221ZM231 275Q273 275 302 290T350 333T376
396T384 468Q384 507 376 541T351 600T304 640T233 655Q187 655 158 637T113 590T91 528T85 464Q85 426 92 392T117 331T162 290T231 275ZM267 321Q259 344 251 367T231 416Q226 415 222 415T212 414Q213 391 213 368T214 323L168 321Q169 346 169 388T170 467Q170
492 170 519T169 571T168 611Q176 612 183 612T197 613T211 613Q261 613 284 594T307 513Q307 483 298 463T271 431Q281 405 293 378T318 322L267 321ZM212 451Q231 452 242 458T259 477T264 512Q264 537 261 551T248 570T219 576Q218 576 217 576T213 576Q213
559 213 540T212 503T212 468Q212 464 212 460T212 451Z" />
<glyph unicode="&#xaf;" horiz-adv-x="305" d="M36 640V705L265 702L270 643L36 640Z" />
<glyph unicode="&#xb0;" horiz-adv-x="349" d="M177 498Q136 498 113 509T79 538T65 570T62 594Q62 645 92 675T174 706Q225 706 256 679T287 609Q287 561 256 530T177 498ZM178 534Q201 534 215 544T235 572T241 611Q241 641 219 655T174 670Q153 670 138 660T115
635T107 603Q107 587 112 571T133 545T178 534Z" />
<glyph unicode="&#xb1;" horiz-adv-x="500" d="M301 225L215 220Q216 228 217 246T218 290T219 341T219 392Q219 416 219 441T217 488T216 527T214 549L299 553Q299 547 298 531T296 493T293 445T292 393Q292 368 293 342T296 292T299 251T301 225ZM84 96L80 175Q86
175 105 174T151 173T204 173T252 173Q274 174 302 174T358 176T407 177T434 178L430 99Q424 99 405 99T360 99T308 100T260 100Q241 100 213 100T157 98T109 97T84 96ZM79 341L82 420Q86 420 101 420T137 420T183 420T229 419T268 419Q290 419 316 420T368 421T413
422T439 423L434 342Q429 342 412 343T370 344T319 346T269 347Q251 347 228 347T181 345T135 343T98 342T79 341Z" />
<glyph unicode="&#xb2;" horiz-adv-x="321" d="M134 590L74 607Q109 625 134 642T173 679T187 725Q187 740 182 749T162 758Q149 758 143 748T137 722Q137 715 138 707T140 692L77 690Q76 698 75 705T74 719Q74 756 96 780T165 805Q211 805 231 783T252 728Q252
697 233 670T187 622T134 590ZM73 560L74 607Q77 607 88 607T114 607T144 608T169 608Q188 608 206 608T239 609T255 610L256 561Q245 561 229 561T196 561T164 561Q151 561 133 561T99 561T73 560Z" />
<glyph unicode="&#xb3;" horiz-adv-x="321" d="M153 559Q120 559 102 569T76 594T68 627H131Q131 619 136 611T156 603Q172 603 176 611T181 629Q181 640 175 644T150 649Q146 649 140 649T126 649T111 649V683Q122 683 130 683T147 684Q160 684 168 686T182 696T187
723Q187 737 182 747T160 757Q147 757 142 749T136 730Q136 726 136 723T138 715L74 713Q73 718 73 723T72 733Q72 764 94 785T160 806Q204 806 225 786T247 737Q247 708 235 693T205 668Q221 665 232 653T243 622Q243 597 221 578T153 559Z" />
<glyph unicode="&#xb4;" horiz-adv-x="213" d="M43 605L14 652Q26 659 39 666T65 682T92 697Q105 706 119 715T146 733T172 751L214 685Q198 678 183 672T153 659T124 644Q110 638 96 632T69 619T43 605Z" />
<glyph unicode="&#xb5;" horiz-adv-x="422" d="M51 -163Q52 -102 52 -53T53 34T54 100T55 148Q55 158 55 189T56 261T58 349T60 437T61 509T62 549L157 555Q155 521 153 480T149 393T144 296Q143 265 142 237T140 187T139 151Q139 124 142 104T155 73T180 62Q206
62 227 88T262 166T275 298Q275 325 275 358T274 426T273 497T272 566L368 565Q367 539 366 508T364 444T362 381T361 325T361 283Q361 256 361 225T363 162T365 99T366 43T368 0H282L277 75Q262 36 237 13T171 -10Q156 -10 145 -6T126 4Q127 -37 127 -79T129 -163H51Z"
/>
<glyph unicode="&#xb6;" horiz-adv-x="600" d="M335 204Q263 203 211 215T124 256T74 333T57 454Q57 550 74 606T130 688T232 714Q249 714 270 714T313 713T355 712T387 710L335 204ZM292 -107Q293 -85 294 -49T295 32T296 126T297 220T298 301T299 359Q299 394
299 439T297 531T295 617T294 680T293 703L387 710Q387 711 387 681T386 600T385 485T384 357Q384 306 384 244T385 121T385 10T386 -71T386 -100L292 -107ZM436 -107Q437 -84 437 -49T438 31T438 121T439 213T439 296T440 359Q440 398 440 438T439 517T438 591T437
654T436 703L528 710Q529 710 529 680T528 598T526 485T525 357Q525 306 525 245T527 123T528 12T529 -69T529 -100L436 -107Z" />
<glyph unicode="&#xb7;" horiz-adv-x="281" d="M190 229L95 231L91 374L188 380L190 229Z" />
<glyph unicode="&#xb8;" horiz-adv-x="303" d="M106 -166Q90 -166 74 -165T41 -163L54 -111Q61 -112 73 -113T99 -115T126 -116Q152 -116 170 -112T188 -99Q188 -89 166 -84T94 -78L111 -36Q189 -35 225 -51T261 -98Q261 -124 239 -138T181 -159T106 -166ZM173
0L150 -78H94L116 0H173Z" />
<glyph unicode="&#xb9;" horiz-adv-x="321" d="M151 567Q153 594 154 623T155 683T154 745L182 801H224Q222 760 222 723T221 648T223 567H151ZM81 712L76 755Q92 757 112 763T152 779T182 801L190 729Q177 724 158 720T118 713T81 712Z" />
<glyph unicode="&#xba;" horiz-adv-x="358" d="M176 469Q142 469 119 483T84 524T71 589Q71 623 84 649T122 689T182 703Q218 703 241 689T275 650T286 590Q286 554 274 527T238 484T176 469ZM177 520Q197 520 207 528T222 552T226 593Q226 626 215 640T181 655Q155
655 144 638T132 589Q132 552 144 536T177 520Z" />
<glyph unicode="&#xbb;" horiz-adv-x="753" d="M661 251Q652 257 634 268T593 293T545 321T499 347Q465 367 432 385T374 417L414 484Q435 468 467 447T539 402Q569 384 601 366T658 332L661 251ZM379 251Q370 257 352 268T311 293T263 321T217 347Q183 367 150
385T92 417L132 484Q153 468 185 447T257 402Q287 384 319 366T376 332L379 251ZM420 84L376 150Q403 166 438 187T506 229Q546 254 586 282T658 332L661 251Q636 236 604 215T543 174Q510 151 480 129T420 84ZM138 84L94 150Q121 166 156 187T224 229Q264 254
304 282T376 332L379 251Q354 236 322 215T261 174Q228 151 198 129T138 84Z" />
<glyph unicode="&#xbc;" horiz-adv-x="725" d="M115 2Q141 44 166 86T218 171T269 256T320 342Q346 387 370 431T419 521T467 610T515 700L610 692Q584 648 557 604T504 515T451 426T400 337Q369 281 337 224T274 111T210 -3L115 2ZM163 462Q165 486 166 511T167
562T167 614Q149 610 129 609T92 607L88 650Q103 652 124 658T164 674T194 696H236Q234 655 234 618T233 543T235 462H163ZM535 -1L536 45L438 44L433 93L464 158Q473 178 482 198T499 236L593 235Q593 219 593 189T592 127V94L625 95V45H592L593 0L535 -1ZM492
92H536V199L492 92Z" />
<glyph unicode="&#xbd;" horiz-adv-x="725" d="M115 2Q141 44 166 86T218 171T269 256T320 342Q346 387 370 431T419 521T467 610T515 700L610 692Q584 648 557 604T504 515T451 426T400 337Q369 281 337 224T274 111T210 -3L115 2ZM458 -1L459 46Q493 64 518
81T557 118T571 164Q571 179 566 188T547 197Q534 197 528 187T521 161Q521 154 522 146T525 131L462 129Q461 137 460 144T459 158Q459 195 481 219T549 244Q595 244 616 222T637 167Q637 142 625 120T594 79T553 47Q571 47 588 47T618 48T640 49L641 0H548Q537
0 522 0T491 0T458 -1ZM163 462Q165 486 166 511T167 562T167 614Q149 610 129 609T92 607L88 650Q103 652 124 658T164 674T194 696H236Q234 655 234 618T233 543T235 462H163Z" />
<glyph unicode="&#xbe;" horiz-adv-x="725" d="M115 2Q141 44 166 86T218 171T269 256T320 342Q346 387 370 431T419 521T467 610T515 700L610 692Q584 648 557 604T504 515T451 426T400 337Q369 281 337 224T274 111T210 -3L115 2ZM178 455Q145 455 127 465T101
490T93 523H156Q156 515 161 507T181 499Q197 499 201 507T206 525Q206 536 200 540T175 545Q171 545 165 545T151 545T136 545V579Q147 579 155 579T172 580Q185 580 193 582T207 592T212 619Q212 633 207 643T185 653Q172 653 167 645T161 626Q161 622 161 619T163
611L99 609Q98 614 98 619T97 629Q97 660 119 681T185 702Q229 702 250 682T272 633Q272 604 260 589T230 564Q246 561 257 549T268 518Q268 493 246 474T178 455ZM535 -1L536 45L438 44L433 93L464 158Q473 178 482 198T499 236L593 235Q593 219 593 189T592 127V94L625
95V45H592L593 0L535 -1ZM492 92H536V199L492 92Z" />
<glyph unicode="&#xbf;" horiz-adv-x="549" d="M230 340L324 339Q327 323 329 306T332 271Q332 234 320 209T288 165T250 127Q233 112 218 95T194 57T184 5Q184 -23 195 -42T227 -70T273 -79Q301 -79 322 -67T354 -32T366 23Q366 43 363 64T352 107L447 106Q454
84 457 62T461 19Q461 -23 447 -56T408 -113T346 -149T267 -162Q211 -162 171 -143T110 -87T88 -1Q88 52 104 86T145 144T191 188Q204 201 215 213T232 241T239 274Q239 290 237 305T230 340ZM325 557L321 412L233 410L222 555L325 557Z" />
<glyph unicode="&#xc0;" horiz-adv-x="462" d="M334 -6Q325 49 316 107T296 225T275 345Q267 386 260 425T247 502T234 574T223 640L162 700L302 704Q308 669 315 628T330 543T347 453T365 360Q378 293 391 229T418 106T442 -1L334 -6ZM111 142V231L343 227V150L111
142ZM123 5L21 6Q32 52 44 108T69 228T95 357Q108 418 120 479T142 596T162 700L302 704L237 634Q229 595 220 549T202 453T184 350Q173 291 163 232T143 116T123 5ZM287 730Q275 737 262 743T235 756T207 770Q192 777 177 783T147 797T117 810L158 877Q177 863
197 849T239 823Q259 811 279 799T316 777L287 730Z" />
<glyph unicode="&#xc1;" horiz-adv-x="462" d="M334 -6Q325 49 316 107T296 225T275 345Q267 386 260 425T247 502T234 574T223 640L162 700L302 704Q308 669 315 628T330 543T347 453T365 360Q378 293 391 229T418 106T442 -1L334 -6ZM111 142V231L343 227V150L111
142ZM123 5L21 6Q32 52 44 108T69 228T95 357Q108 418 120 479T142 596T162 700L302 704L237 634Q229 595 220 549T202 453T184 350Q173 291 163 232T143 116T123 5ZM182 732L153 779Q171 789 190 800T231 824Q244 833 258 842T285 860T311 878L353 812Q337 805
322 798T292 785T263 771Q249 765 235 759T208 745T182 732Z" />
<glyph unicode="&#xc2;" horiz-adv-x="462" d="M334 -6Q325 49 316 107T296 225T275 345Q267 386 260 425T247 502T234 574T223 640L162 700L302 704Q308 669 315 628T330 543T347 453T365 360Q378 293 391 229T418 106T442 -1L334 -6ZM111 142V231L343 227V150L111
142ZM123 5L21 6Q32 52 44 108T69 228T95 357Q108 418 120 479T142 596T162 700L302 704L237 634Q229 595 220 549T202 453T184 350Q173 291 163 232T143 116T123 5ZM334 740L234 793L135 741L106 776L191 847L278 845L361 778L334 740Z" />
<glyph unicode="&#xc3;" horiz-adv-x="462" d="M334 -6Q325 49 316 107T296 225T275 345Q267 386 260 425T247 502T234 574T223 640L162 700L302 704Q308 669 315 628T330 543T347 453T365 360Q378 293 391 229T418 106T442 -1L334 -6ZM111 142V231L343 227V150L111
142ZM123 5L21 6Q32 52 44 108T69 228T95 357Q108 418 120 479T142 596T162 700L302 704L237 634Q229 595 220 549T202 453T184 350Q173 291 163 232T143 116T123 5ZM147 756H93Q94 784 106 801T136 825T175 833Q206 833 233 823T285 813Q300 813 307 817T318 833H372Q371
801 359 785T329 762T290 756Q259 756 232 765T180 775Q165 775 158 771T147 756Z" />
<glyph unicode="&#xc4;" horiz-adv-x="462" d="M334 -6Q325 49 316 107T296 225T275 345Q267 386 260 425T247 502T234 574T223 640L162 700L302 704Q308 669 315 628T330 543T347 453T365 360Q378 293 391 229T418 106T442 -1L334 -6ZM111 142V231L343 227V150L111
142ZM123 5L21 6Q32 52 44 108T69 228T95 357Q108 418 120 479T142 596T162 700L302 704L237 634Q229 595 220 549T202 453T184 350Q173 291 163 232T143 116T123 5ZM89 842L170 839L169 751L92 753L89 842ZM290 842L371 839L370 751L293 753L290 842Z" />
<glyph unicode="&#xc5;" horiz-adv-x="462" d="M334 -6Q325 49 316 107T296 225T275 345Q267 386 260 425T247 502T234 574T223 640L162 700L302 704Q308 669 315 628T330 543T347 453T365 360Q378 293 391 229T418 106T442 -1L334 -6ZM111 142V231L343 227V150L111
142ZM123 5L21 6Q32 52 44 108T69 228T95 357Q108 418 120 479T142 596T162 700L302 704L237 634Q229 595 220 549T202 453T184 350Q173 291 163 232T143 116T123 5ZM231 736Q204 736 184 743T154 763T143 794Q143 824 167 840T230 857Q269 857 292 842T316 800Q316
772 293 754T231 736ZM231 772Q238 772 246 774T259 783T265 799Q265 811 254 816T229 822Q214 822 204 816T194 798Q194 790 198 784T211 775T231 772Z" />
<glyph unicode="&#xc6;" horiz-adv-x="648" d="M3 1Q14 29 29 69T61 156T96 253T131 350Q156 418 178 485T217 608T244 700L602 693V612L404 611Q404 582 404 552T404 491T403 430T403 372V281L611 278L609 198L403 195L405 79L614 75V0L299 -5L302 148L163 145Q151
108 140 72T116 -1L3 1ZM303 219L304 371Q304 400 304 434T303 504T301 569Q290 538 278 500T252 421T225 338Q215 308 206 279T186 220L303 219Z" />
<glyph unicode="&#xc7;" horiz-adv-x="451" d="M232 -7Q184 -7 151 10T99 60T69 136Q61 165 58 199T53 271T51 349Q51 376 52 403T55 456T62 506T72 552Q84 597 105 631T161 685T245 704Q310 704 345 678T394 606T408 499Q408 465 405 428T396 351L299 352Q301
378 303 403T307 452T308 499Q308 537 303 565T283 608T242 623Q208 623 190 595T163 519Q160 500 158 477T156 431T155 383T154 334Q154 285 155 242T162 168Q170 122 186 99T238 75Q266 75 280 85T301 116T307 166Q307 176 307 188T305 213L398 214Q400 201 401
188T403 162Q403 110 385 73T329 14T232 -7ZM186 -166Q170 -166 154 -165T121 -163L134 -111Q141 -112 152 -113T178 -115T206 -116Q231 -116 249 -112T268 -99Q268 -89 246 -84T173 -78L190 -36Q269 -35 305 -51T341 -98Q341 -124 319 -138T261 -159T186 -166ZM253
0L230 -78H173L196 0H253Z" />
<glyph unicode="&#xc8;" horiz-adv-x="418" d="M64 -3Q64 -3 64 19T65 79T66 166T67 267T68 371Q68 435 67 494T65 600T64 673T63 700L169 689Q169 689 169 668T168 611T168 534T167 449T166 372Q166 337 166 290T167 193T167 100T168 31T169 4L64 -3ZM64 -3L118
80L377 75L378 0L64 -3ZM113 194V281L375 278L373 198L113 194ZM105 611L63 700L366 693V612L105 611ZM277 730Q265 737 252 743T225 756T197 770Q182 777 167 783T137 797T107 810L148 877Q167 863 187 849T229 823Q249 811 269 799T306 777L277 730Z" />
<glyph unicode="&#xc9;" horiz-adv-x="418" d="M64 -3Q64 -3 64 19T65 79T66 166T67 267T68 371Q68 435 67 494T65 600T64 673T63 700L169 689Q169 689 169 668T168 611T168 534T167 449T166 372Q166 337 166 290T167 193T167 100T168 31T169 4L64 -3ZM64 -3L118
80L377 75L378 0L64 -3ZM113 194V281L375 278L373 198L113 194ZM105 611L63 700L366 693V612L105 611ZM173 732L144 779Q162 789 181 800T222 824Q235 833 249 842T276 860T302 878L344 812Q328 805 313 798T283 785T254 771Q240 765 226 759T199 745T173 732Z"
/>
<glyph unicode="&#xca;" horiz-adv-x="418" d="M64 -3Q64 -3 64 19T65 79T66 166T67 267T68 371Q68 435 67 494T65 600T64 673T63 700L169 689Q169 689 169 668T168 611T168 534T167 449T166 372Q166 337 166 290T167 193T167 100T168 31T169 4L64 -3ZM64 -3L118
80L377 75L378 0L64 -3ZM113 194V281L375 278L373 198L113 194ZM105 611L63 700L366 693V612L105 611ZM324 740L224 793L125 741L96 776L181 847L268 845L351 778L324 740Z" />
<glyph unicode="&#xcb;" horiz-adv-x="418" d="M64 -3Q64 -3 64 19T65 79T66 166T67 267T68 371Q68 435 67 494T65 600T64 673T63 700L169 689Q169 689 169 668T168 611T168 534T167 449T166 372Q166 337 166 290T167 193T167 100T168 31T169 4L64 -3ZM64 -3L118
80L377 75L378 0L64 -3ZM113 194V281L375 278L373 198L113 194ZM105 611L63 700L366 693V612L105 611ZM79 842L160 839L159 751L82 753L79 842ZM280 842L361 839L360 751L283 753L280 842Z" />
<glyph unicode="&#xcc;" horiz-adv-x="234" d="M64 700L174 702Q174 702 174 681T172 623T169 541T167 449T166 357Q166 314 166 265T167 169T168 84T169 23T170 0L60 1Q60 1 61 23T62 84T64 168T65 264T66 355Q66 402 66 453T66 553T66 640T64 700ZM173 730Q161
737 148 743T121 756T93 770Q78 777 63 783T33 797T3 810L44 877Q63 863 83 849T125 823Q145 811 165 799T202 777L173 730Z" />
<glyph unicode="&#xcd;" horiz-adv-x="234" d="M64 700L174 702Q174 702 174 681T172 623T169 541T167 449T166 357Q166 314 166 265T167 169T168 84T169 23T170 0L60 1Q60 1 61 23T62 84T64 168T65 264T66 355Q66 402 66 453T66 553T66 640T64 700ZM69 732L40
779Q58 789 77 800T118 824Q131 833 145 842T172 860T198 878L240 812Q224 805 209 798T179 785T150 771Q136 765 122 759T95 745T69 732Z" />
<glyph unicode="&#xce;" horiz-adv-x="234" d="M64 700L174 702Q174 702 174 681T172 623T169 541T167 449T166 357Q166 314 166 265T167 169T168 84T169 23T170 0L60 1Q60 1 61 23T62 84T64 168T65 264T66 355Q66 402 66 453T66 553T66 640T64 700ZM220 740L120
793L21 741L-8 776L77 847L164 845L247 778L220 740Z" />
<glyph unicode="&#xcf;" horiz-adv-x="234" d="M64 700L174 702Q174 702 174 681T172 623T169 541T167 449T166 357Q166 314 166 265T167 169T168 84T169 23T170 0L60 1Q60 1 61 23T62 84T64 168T65 264T66 355Q66 402 66 453T66 553T66 640T64 700ZM-25 842L56
839L55 751L-22 753L-25 842ZM176 842L257 839L256 751L179 753L176 842Z" />
<glyph unicode="&#xd0;" horiz-adv-x="472" d="M1 312L6 384Q19 384 41 384T92 383T153 381Q187 380 224 381T285 384L287 312Q270 313 245 313T194 313T147 314Q96 314 57 314T1 312ZM175 -10Q159 -10 141 -10T104 -8T66 -4L116 78Q131 76 146 74T176 72T202
71Q244 71 268 88T304 140T319 230T323 357Q323 425 320 475T306 560T270 612T203 629Q184 629 159 626T105 617L63 699Q98 704 130 706T190 708Q263 708 308 690T379 632T415 524T425 357Q425 277 420 217T399 113T356 43T284 3T175 -10ZM66 -4Q67 37 68 98T69
227T70 358Q70 417 69 481T67 603T63 699L169 692Q168 664 168 632T167 564T167 492T166 422T166 357Q166 332 166 298T166 224T167 145T168 66T169 -3L66 -4Z" />
<glyph unicode="&#xd1;" horiz-adv-x="504" d="M64 704H190Q196 680 206 646T229 571T254 486T281 399Q294 356 306 317T328 245T346 191Q346 216 346 244T346 301T345 362T344 426Q344 456 344 485T343 544T343 603T342 660T341 715H440Q439 686 439 649T438
570T437 482T435 388Q435 338 435 288T435 189T435 95T436 11L314 3Q306 33 295 69T272 145T246 228T220 310Q212 337 204 363T188 413T173 458T160 495Q160 473 160 449T160 398T161 343T161 285Q161 256 161 227T162 169T162 112T163 55T164 0L67 1Q67 32 67
67T68 143T69 225T69 311Q69 365 69 419T68 524T67 621T64 704ZM173 756H119Q120 784 132 801T162 825T201 833Q232 833 259 823T311 813Q326 813 333 817T344 833H398Q397 801 385 785T355 762T316 756Q285 756 258 765T206 775Q191 775 184 771T173 756Z" />
<glyph unicode="&#xd2;" horiz-adv-x="474" d="M230 -5Q181 -5 149 13T97 64T67 142Q60 172 57 206T52 278T51 357Q51 383 52 408T55 459T60 507T70 552Q87 620 128 662T246 705Q297 705 329 685T381 630T410 547Q418 505 420 456T423 355Q423 311 421 270T413
191T397 122Q378 64 339 30T230 -5ZM235 78Q257 78 271 89T295 123T310 177Q316 214 318 261T320 360Q320 402 319 441T315 512Q308 566 292 595T241 625Q206 625 188 595T162 511Q160 494 158 474T156 433T155 390T154 345Q154 295 155 250T162 171Q167 141 176
120T199 89T235 78ZM298 730Q286 737 273 743T246 756T218 770Q203 777 188 783T158 797T128 810L169 877Q188 863 208 849T250 823Q270 811 290 799T327 777L298 730Z" />
<glyph unicode="&#xd3;" horiz-adv-x="474" d="M230 -5Q181 -5 149 13T97 64T67 142Q60 172 57 206T52 278T51 357Q51 383 52 408T55 459T60 507T70 552Q87 620 128 662T246 705Q297 705 329 685T381 630T410 547Q418 505 420 456T423 355Q423 311 421 270T413
191T397 122Q378 64 339 30T230 -5ZM235 78Q257 78 271 89T295 123T310 177Q316 214 318 261T320 360Q320 402 319 441T315 512Q308 566 292 595T241 625Q206 625 188 595T162 511Q160 494 158 474T156 433T155 390T154 345Q154 295 155 250T162 171Q167 141 176
120T199 89T235 78ZM194 732L165 779Q183 789 202 800T243 824Q256 833 270 842T297 860T323 878L365 812Q349 805 334 798T304 785T275 771Q261 765 247 759T220 745T194 732Z" />
<glyph unicode="&#xd4;" horiz-adv-x="474" d="M230 -5Q181 -5 149 13T97 64T67 142Q60 172 57 206T52 278T51 357Q51 383 52 408T55 459T60 507T70 552Q87 620 128 662T246 705Q297 705 329 685T381 630T410 547Q418 505 420 456T423 355Q423 311 421 270T413
191T397 122Q378 64 339 30T230 -5ZM235 78Q257 78 271 89T295 123T310 177Q316 214 318 261T320 360Q320 402 319 441T315 512Q308 566 292 595T241 625Q206 625 188 595T162 511Q160 494 158 474T156 433T155 390T154 345Q154 295 155 250T162 171Q167 141 176
120T199 89T235 78ZM345 740L245 793L146 741L117 776L202 847L289 845L372 778L345 740Z" />
<glyph unicode="&#xd5;" horiz-adv-x="474" d="M230 -5Q181 -5 149 13T97 64T67 142Q60 172 57 206T52 278T51 357Q51 383 52 408T55 459T60 507T70 552Q87 620 128 662T246 705Q297 705 329 685T381 630T410 547Q418 505 420 456T423 355Q423 311 421 270T413
191T397 122Q378 64 339 30T230 -5ZM235 78Q257 78 271 89T295 123T310 177Q316 214 318 261T320 360Q320 402 319 441T315 512Q308 566 292 595T241 625Q206 625 188 595T162 511Q160 494 158 474T156 433T155 390T154 345Q154 295 155 250T162 171Q167 141 176
120T199 89T235 78ZM158 756H104Q105 784 117 801T147 825T186 833Q217 833 244 823T296 813Q311 813 318 817T329 833H383Q382 801 370 785T340 762T301 756Q270 756 243 765T191 775Q176 775 169 771T158 756Z" />
<glyph unicode="&#xd6;" horiz-adv-x="474" d="M230 -5Q181 -5 149 13T97 64T67 142Q60 172 57 206T52 278T51 357Q51 383 52 408T55 459T60 507T70 552Q87 620 128 662T246 705Q297 705 329 685T381 630T410 547Q418 505 420 456T423 355Q423 311 421 270T413
191T397 122Q378 64 339 30T230 -5ZM235 78Q257 78 271 89T295 123T310 177Q316 214 318 261T320 360Q320 402 319 441T315 512Q308 566 292 595T241 625Q206 625 188 595T162 511Q160 494 158 474T156 433T155 390T154 345Q154 295 155 250T162 171Q167 141 176
120T199 89T235 78ZM100 842L181 839L180 751L103 753L100 842ZM301 842L382 839L381 751L304 753L301 842Z" />
<glyph unicode="&#xd7;" horiz-adv-x="500" d="M409 197L351 132Q345 139 334 151T309 179T279 211T248 243T218 272Q201 290 182 308T144 342T111 372T90 392L147 455Q153 449 165 434T195 401T230 362T268 323Q282 309 298 294T331 264T363 236T390 213T409
197ZM146 127L89 182Q92 185 103 196T132 224T168 260T204 295T234 325Q245 337 260 352T290 384T319 415T343 441T359 457L415 402Q415 402 406 394T382 371T349 339T314 306T284 276Q271 263 255 246T221 209T187 173T160 144T146 127Z" />
<glyph unicode="&#xd8;" horiz-adv-x="474" d="M230 -5Q181 -5 149 13T97 64T67 142Q60 172 57 206T52 278T51 357Q51 383 52 408T55 459T60 507T70 552Q87 620 128 662T246 705Q297 705 329 685T381 630T410 547Q418 505 420 456T423 355Q423 311 421 270T413
191T397 122Q378 64 339 30T230 -5ZM235 78Q257 78 271 89T295 123T310 177Q316 214 318 261T320 360Q320 402 319 441T315 512Q308 566 292 595T241 625Q206 625 188 595T162 511Q160 494 158 474T156 433T155 390T154 345Q154 295 155 250T162 171Q167 141 176
120T199 89T235 78ZM146 -52L67 -38Q78 -13 91 20T121 91T153 171T185 254T215 335Q229 374 245 418T277 507T309 595T338 677T362 745L443 728Q429 697 414 661T382 587T349 510T318 436T291 370T271 317Q261 290 249 255T223 179T195 98T169 19T146 -52Z" />
<glyph unicode="&#xd9;" horiz-adv-x="480" d="M240 -10Q190 -10 157 5T103 47T73 112T63 192Q63 227 63 269T64 355T64 432Q64 477 64 520T64 606T61 696L167 695Q166 662 165 626T164 553T163 485T162 426Q162 397 162 368T161 312T161 262T161 225Q161 177
168 144T192 93T242 75Q267 75 282 87T305 119T316 163T319 212Q319 222 319 249T320 319T320 424Q320 488 319 540T316 634T314 707L419 706Q419 673 419 643T418 580T417 510T416 422Q417 337 417 277T417 194Q417 162 410 126T384 59T330 9T240 -10ZM297 730Q285
737 272 743T245 756T217 770Q202 777 187 783T157 797T127 810L168 877Q187 863 207 849T249 823Q269 811 289 799T326 777L297 730Z" />
<glyph unicode="&#xda;" horiz-adv-x="480" d="M240 -10Q190 -10 157 5T103 47T73 112T63 192Q63 227 63 269T64 355T64 432Q64 477 64 520T64 606T61 696L167 695Q166 662 165 626T164 553T163 485T162 426Q162 397 162 368T161 312T161 262T161 225Q161 177
168 144T192 93T242 75Q267 75 282 87T305 119T316 163T319 212Q319 222 319 249T320 319T320 424Q320 488 319 540T316 634T314 707L419 706Q419 673 419 643T418 580T417 510T416 422Q417 337 417 277T417 194Q417 162 410 126T384 59T330 9T240 -10ZM192 732L163
779Q181 789 200 800T241 824Q254 833 268 842T295 860T321 878L363 812Q347 805 332 798T302 785T273 771Q259 765 245 759T218 745T192 732Z" />
<glyph unicode="&#xdb;" horiz-adv-x="480" d="M240 -10Q190 -10 157 5T103 47T73 112T63 192Q63 227 63 269T64 355T64 432Q64 477 64 520T64 606T61 696L167 695Q166 662 165 626T164 553T163 485T162 426Q162 397 162 368T161 312T161 262T161 225Q161 177
168 144T192 93T242 75Q267 75 282 87T305 119T316 163T319 212Q319 222 319 249T320 319T320 424Q320 488 319 540T316 634T314 707L419 706Q419 673 419 643T418 580T417 510T416 422Q417 337 417 277T417 194Q417 162 410 126T384 59T330 9T240 -10ZM344 740L244
793L145 741L116 776L201 847L288 845L371 778L344 740Z" />
<glyph unicode="&#xdc;" horiz-adv-x="480" d="M240 -10Q190 -10 157 5T103 47T73 112T63 192Q63 227 63 269T64 355T64 432Q64 477 64 520T64 606T61 696L167 695Q166 662 165 626T164 553T163 485T162 426Q162 397 162 368T161 312T161 262T161 225Q161 177
168 144T192 93T242 75Q267 75 282 87T305 119T316 163T319 212Q319 222 319 249T320 319T320 424Q320 488 319 540T316 634T314 707L419 706Q419 673 419 643T418 580T417 510T416 422Q417 337 417 277T417 194Q417 162 410 126T384 59T330 9T240 -10ZM99 842L180
839L179 751L102 753L99 842ZM300 842L381 839L380 751L303 753L300 842Z" />
<glyph unicode="&#xdd;" horiz-adv-x="404" d="M147 0Q148 14 149 72T148 233L246 224Q247 185 247 149T249 84T250 33T252 1L147 0ZM-9 704H101Q109 671 118 631T138 549T158 465Q167 433 174 403T187 349T200 306Q206 325 213 350T228 403T244 463Q252 491 260
520T275 580T291 639T306 695L415 698Q408 676 399 648T379 588T357 520T334 449Q320 404 306 360T280 275T257 200T239 139H158Q150 169 140 204T119 277T96 355T72 437Q61 474 50 511T28 583T9 648T-9 704ZM153 732L124 779Q142 789 161 800T202 824Q215 833
229 842T256 860T282 878L324 812Q308 805 293 798T263 785T234 771Q220 765 206 759T179 745T153 732Z" />
<glyph unicode="&#xde;" horiz-adv-x="432" d="M129 138L127 221Q173 219 207 224T264 244T300 288T312 362Q312 422 297 453T255 496T189 508Q173 508 156 507T118 502V587Q132 588 145 588T171 588Q228 588 272 580T348 548T395 481T412 365Q412 299 392 255T335
186T245 149T129 138ZM61 -6Q62 36 63 96T64 225T65 355Q65 418 64 485T62 611T60 711L167 703Q166 678 166 645T164 574T163 498T163 423T163 357Q163 326 163 282T164 187T165 89T166 1L61 -6Z" />
<glyph unicode="&#xdf;" horiz-adv-x="489" d="M52 -3Q53 25 54 53T57 114T59 184T60 270Q60 304 60 332T60 384T60 431T61 473T61 513Q63 551 74 585T109 645T169 686T258 701Q324 701 362 679T417 622T434 552Q434 521 424 498T398 455T366 420T340 387T329
352Q329 339 337 328T358 305T387 282Q408 267 429 248T465 205T479 147Q479 100 455 63T375 7T224 -1L231 65Q279 57 309 60T356 76T379 107T386 145Q386 162 377 175T353 201T322 225Q302 240 282 257T249 296T236 350Q236 374 246 394T273 432T305 467T331 503T342
544Q342 569 334 588T306 617T255 628Q219 628 198 614T166 575T154 516Q153 496 152 473T151 422T151 356T150 271Q150 210 151 154T155 58T157 0L52 -3Z" />
<glyph unicode="&#xe0;" horiz-adv-x="387" d="M253 0L255 102L249 374Q248 419 232 437T191 456Q164 456 150 436T136 383Q136 371 138 358T144 331L58 326Q54 342 52 357T50 388Q50 429 66 460T114 508T192 526Q237 526 265 511T310 469T331 411T336 345L335
252L338 0H253ZM150 -8Q114 -8 89 9T51 54T37 121Q37 154 48 178T77 220T117 252T161 279Q179 289 195 299T223 320T242 344T249 374L292 356Q290 323 276 300T242 260T198 229Q179 216 162 202T136 171T126 131Q126 112 130 99T144 78T169 70Q195 70 213 89T242
146T252 238L289 296Q289 225 283 169T262 74T219 13T150 -8ZM251 566Q238 573 225 579T198 592T170 605Q156 613 141 619T111 632T80 646L122 712Q140 699 161 685T202 658Q223 647 242 635T280 613L251 566Z" />
<glyph unicode="&#xe1;" horiz-adv-x="387" d="M253 0L255 102L249 374Q248 419 232 437T191 456Q164 456 150 436T136 383Q136 371 138 358T144 331L58 326Q54 342 52 357T50 388Q50 429 66 460T114 508T192 526Q237 526 265 511T310 469T331 411T336 345L335
252L338 0H253ZM150 -8Q114 -8 89 9T51 54T37 121Q37 154 48 178T77 220T117 252T161 279Q179 289 195 299T223 320T242 344T249 374L292 356Q290 323 276 300T242 260T198 229Q179 216 162 202T136 171T126 131Q126 112 130 99T144 78T169 70Q195 70 213 89T242
146T252 238L289 296Q289 225 283 169T262 74T219 13T150 -8ZM142 566L113 613Q125 620 137 627T163 643T190 658Q204 667 217 676T245 694T271 712L312 646Q297 639 282 633T252 620T222 605Q208 599 195 593T168 580T142 566Z" />
<glyph unicode="&#xe2;" horiz-adv-x="387" d="M253 0L255 102L249 374Q248 419 232 437T191 456Q164 456 150 436T136 383Q136 371 138 358T144 331L58 326Q54 342 52 357T50 388Q50 429 66 460T114 508T192 526Q237 526 265 511T310 469T331 411T336 345L335
252L338 0H253ZM150 -8Q114 -8 89 9T51 54T37 121Q37 154 48 178T77 220T117 252T161 279Q179 289 195 299T223 320T242 344T249 374L292 356Q290 323 276 300T242 260T198 229Q179 216 162 202T136 171T126 131Q126 112 130 99T144 78T169 70Q195 70 213 89T242
146T252 238L289 296Q289 225 283 169T262 74T219 13T150 -8ZM292 576L192 629L93 577L64 612L149 683L236 681L319 614L292 576Z" />
<glyph unicode="&#xe3;" horiz-adv-x="387" d="M253 0L255 102L249 374Q248 419 232 437T191 456Q164 456 150 436T136 383Q136 371 138 358T144 331L58 326Q54 342 52 357T50 388Q50 429 66 460T114 508T192 526Q237 526 265 511T310 469T331 411T336 345L335
252L338 0H253ZM150 -8Q114 -8 89 9T51 54T37 121Q37 154 48 178T77 220T117 252T161 279Q179 289 195 299T223 320T242 344T249 374L292 356Q290 323 276 300T242 260T198 229Q179 216 162 202T136 171T126 131Q126 112 130 99T144 78T169 70Q195 70 213 89T242
146T252 238L289 296Q289 225 283 169T262 74T219 13T150 -8ZM105 589H51Q51 618 63 635T94 659T133 666Q164 666 191 657T242 647Q257 647 265 651T276 666H329Q329 635 317 618T286 595T247 589Q216 589 189 599T137 609Q122 609 116 605T105 589Z" />
<glyph unicode="&#xe4;" horiz-adv-x="387" d="M253 0L255 102L249 374Q248 419 232 437T191 456Q164 456 150 436T136 383Q136 371 138 358T144 331L58 326Q54 342 52 357T50 388Q50 429 66 460T114 508T192 526Q237 526 265 511T310 469T331 411T336 345L335
252L338 0H253ZM150 -8Q114 -8 89 9T51 54T37 121Q37 154 48 178T77 220T117 252T161 279Q179 289 195 299T223 320T242 344T249 374L292 356Q290 323 276 300T242 260T198 229Q179 216 162 202T136 171T126 131Q126 112 130 99T144 78T169 70Q195 70 213 89T242
146T252 238L289 296Q289 225 283 169T262 74T219 13T150 -8ZM330 589L252 591L250 680L331 677L330 589ZM128 589L51 591L49 680L130 677L128 589Z" />
<glyph unicode="&#xe5;" horiz-adv-x="387" d="M253 0L255 102L249 374Q248 419 232 437T191 456Q164 456 150 436T136 383Q136 371 138 358T144 331L58 326Q54 342 52 357T50 388Q50 429 66 460T114 508T192 526Q237 526 265 511T310 469T331 411T336 345L335
252L338 0H253ZM150 -8Q114 -8 89 9T51 54T37 121Q37 154 48 178T77 220T117 252T161 279Q179 289 195 299T223 320T242 344T249 374L292 356Q290 323 276 300T242 260T198 229Q179 216 162 202T136 171T126 131Q126 112 130 99T144 78T169 70Q195 70 213 89T242
146T252 238L289 296Q289 225 283 169T262 74T219 13T150 -8ZM190 573Q163 573 143 580T113 600T102 631Q102 661 126 677T189 694Q228 694 251 679T275 637Q275 609 252 591T190 573ZM190 609Q197 609 205 611T218 620T224 636Q224 648 213 653T188 659Q173 659
163 653T153 635Q153 627 157 621T170 612T190 609Z" />
<glyph unicode="&#xe6;" horiz-adv-x="609" d="M152 -8Q116 -8 91 9T53 54T40 121Q40 154 50 178T79 220T119 252T163 279Q181 289 197 299T225 320T244 344T251 374Q250 419 234 437T194 456Q166 456 152 436T138 383Q138 371 140 358T146 331L61 326Q57 342
55 357T53 388Q53 429 69 460T116 508T191 526Q220 526 241 519T278 499T305 468Q324 495 353 510T424 525Q476 525 505 503T548 440T561 348Q561 321 558 293T551 235Q528 235 493 234T418 233T343 231Q344 204 345 180T350 136Q356 102 371 82T415 62Q437 62
450 71T468 97T474 132Q474 140 473 149T470 167H559Q561 157 561 148T562 128Q562 86 545 55T495 6T412 -12Q360 -12 330 12T283 79Q272 52 254 33T210 3T152 -8ZM172 70Q195 70 214 86T244 134T255 213Q255 222 255 231T254 250T253 268Q242 257 228 248T201
229Q181 216 164 202T138 171T128 131Q128 112 132 99T146 78T172 70ZM344 303L465 305Q466 321 467 337T469 366Q469 393 465 412T448 443T414 454Q390 454 376 438T354 393Q351 381 349 366T346 336T344 303Z" />
<glyph unicode="&#xe7;" horiz-adv-x="402" d="M204 -11Q147 -11 115 19T66 98Q55 132 51 172T46 254Q46 304 51 348T72 428Q85 458 104 479T151 513T219 525Q270 525 301 503T346 441T360 353Q360 336 359 320T354 286L262 288Q264 307 265 325T267 361Q267 388
263 409T246 442T212 454Q187 454 173 436T151 387Q145 360 143 326T141 256Q141 234 141 213T143 174T148 138Q154 104 168 83T211 62Q233 62 246 71T265 96T272 132Q272 140 271 148T267 167L358 168Q359 160 359 153T360 137Q360 93 344 60T293 8T204 -11ZM170
-166Q154 -166 138 -165T105 -163L118 -111Q125 -112 136 -113T162 -115T190 -116Q215 -116 233 -112T252 -99Q252 -89 230 -84T157 -78L174 -36Q253 -35 289 -51T325 -98Q325 -124 303 -138T245 -159T170 -166ZM237 0L214 -78H157L180 0H237Z" />
<glyph unicode="&#xe8;" horiz-adv-x="404" d="M210 -12Q154 -12 121 15T70 88Q57 124 52 169T46 264Q46 308 51 347T68 418Q86 467 122 496T218 525Q271 525 301 503T345 440T358 348Q358 321 356 293T348 235L261 298Q264 317 265 334T266 366Q266 393 262 412T245
443T211 454Q187 454 173 438T151 393Q145 368 143 336T141 270Q141 245 141 221T142 176T147 136Q154 102 169 82T213 62Q235 62 247 71T265 97T271 132Q271 140 271 149T267 167H356Q358 157 358 148T359 128Q359 86 342 55T292 6T210 -12ZM77 227L75 303L336
305L348 235Q348 235 330 235T283 234T218 233T145 231T77 227ZM273 566Q260 573 247 579T220 592T192 605Q178 613 163 619T133 632T102 646L144 712Q162 699 183 685T224 658Q245 647 264 635T302 613L273 566Z" />
<glyph unicode="&#xe9;" horiz-adv-x="404" d="M210 -12Q154 -12 121 15T70 88Q57 124 52 169T46 264Q46 308 51 347T68 418Q86 467 122 496T218 525Q271 525 301 503T345 440T358 348Q358 321 356 293T348 235L261 298Q264 317 265 334T266 366Q266 393 262 412T245
443T211 454Q187 454 173 438T151 393Q145 368 143 336T141 270Q141 245 141 221T142 176T147 136Q154 102 169 82T213 62Q235 62 247 71T265 97T271 132Q271 140 271 149T267 167H356Q358 157 358 148T359 128Q359 86 342 55T292 6T210 -12ZM77 227L75 303L336
305L348 235Q348 235 330 235T283 234T218 233T145 231T77 227ZM163 566L134 613Q146 620 158 627T184 643T211 658Q225 667 238 676T266 694T292 712L333 646Q318 639 303 633T273 620T243 605Q229 599 216 593T189 580T163 566Z" />
<glyph unicode="&#xea;" horiz-adv-x="404" d="M210 -12Q154 -12 121 15T70 88Q57 124 52 169T46 264Q46 308 51 347T68 418Q86 467 122 496T218 525Q271 525 301 503T345 440T358 348Q358 321 356 293T348 235L261 298Q264 317 265 334T266 366Q266 393 262 412T245
443T211 454Q187 454 173 438T151 393Q145 368 143 336T141 270Q141 245 141 221T142 176T147 136Q154 102 169 82T213 62Q235 62 247 71T265 97T271 132Q271 140 271 149T267 167H356Q358 157 358 148T359 128Q359 86 342 55T292 6T210 -12ZM77 227L75 303L336
305L348 235Q348 235 330 235T283 234T218 233T145 231T77 227ZM314 576L214 629L115 577L86 612L171 683L258 681L341 614L314 576Z" />
<glyph unicode="&#xeb;" horiz-adv-x="404" d="M210 -12Q154 -12 121 15T70 88Q57 124 52 169T46 264Q46 308 51 347T68 418Q86 467 122 496T218 525Q271 525 301 503T345 440T358 348Q358 321 356 293T348 235L261 298Q264 317 265 334T266 366Q266 393 262 412T245
443T211 454Q187 454 173 438T151 393Q145 368 143 336T141 270Q141 245 141 221T142 176T147 136Q154 102 169 82T213 62Q235 62 247 71T265 97T271 132Q271 140 271 149T267 167H356Q358 157 358 148T359 128Q359 86 342 55T292 6T210 -12ZM77 227L75 303L336
305L348 235Q348 235 330 235T283 234T218 233T145 231T77 227ZM351 589L273 591L271 680L352 677L351 589ZM149 589L72 591L70 680L151 677L149 589Z" />
<glyph unicode="&#xec;" horiz-adv-x="233" d="M172 0L64 1Q65 13 66 38T69 97T72 175T73 267Q73 334 71 387T67 473T64 517H168Q168 509 167 475T165 387T164 266Q164 219 165 177T167 100T169 40T172 0ZM177 566Q164 573 151 579T124 592T96 605Q82 613 67 619T37
632T6 646L48 712Q66 699 87 685T128 658Q149 647 168 635T206 613L177 566Z" />
<glyph unicode="&#xed;" horiz-adv-x="233" d="M172 0L64 1Q65 13 66 38T69 97T72 175T73 267Q73 334 71 387T67 473T64 517H168Q168 509 167 475T165 387T164 266Q164 219 165 177T167 100T169 40T172 0ZM68 566L39 613Q51 620 63 627T89 643T116 658Q130 667
143 676T171 694T197 712L238 646Q223 639 208 633T178 620T148 605Q134 599 121 593T94 580T68 566Z" />
<glyph unicode="&#xee;" horiz-adv-x="233" d="M172 0L64 1Q65 13 66 38T69 97T72 175T73 267Q73 334 71 387T67 473T64 517H168Q168 509 167 475T165 387T164 266Q164 219 165 177T167 100T169 40T172 0ZM218 576L118 629L19 577L-10 612L75 683L162 681L245
614L218 576Z" />
<glyph unicode="&#xef;" horiz-adv-x="233" d="M172 0L64 1Q65 13 66 38T69 97T72 175T73 267Q73 334 71 387T67 473T64 517H168Q168 509 167 475T165 387T164 266Q164 219 165 177T167 100T169 40T172 0ZM256 589L178 591L176 680L257 677L256 589ZM54 589L-23
591L-25 680L56 677L54 589Z" />
<glyph unicode="&#xf0;" horiz-adv-x="442" d="M205 -10Q161 -10 130 5T81 49T54 116T45 203Q45 272 63 322T119 399T212 426Q246 426 270 413T311 376T339 320L297 238Q297 272 290 297T266 336T217 351Q188 351 172 335T149 287T142 211Q142 161 147 128T168
79T216 63Q250 63 267 85T291 146T297 238Q297 249 297 263T297 302T297 370Q297 420 288 465T258 546T207 608T133 643L174 719Q204 709 235 692T294 646T345 575T381 469T394 321Q394 258 390 206T375 114T342 46T288 4T205 -10ZM174 481L138 545Q149 551 166
560T208 582T263 613Q278 621 296 632T332 654T364 674T384 686L423 623Q416 620 401 612T367 594T328 572T294 553Q267 536 243 522T201 496T174 481Z" />
<glyph unicode="&#xf1;" horiz-adv-x="439" d="M383 -2L277 1Q279 23 280 46T282 96T284 158T285 237Q285 253 285 271T285 310T285 358Q285 390 280 409T265 437T239 446Q222 446 204 431T173 376T160 267L120 234Q120 275 124 315T137 393T163 460T205 506T265
523Q297 523 322 509T361 460T376 365Q376 329 376 310T376 277T376 243Q376 194 376 158T378 95T381 45T383 -2ZM62 1Q63 25 64 47T67 97T69 160T70 247Q70 317 69 374T68 469T66 517L158 522Q158 504 158 466T158 377T160 267Q160 198 161 151T163 70T164 1H62ZM144
589H90Q90 618 102 635T133 659T172 666Q203 666 230 657T281 647Q296 647 304 651T315 666H368Q368 635 356 618T325 595T286 589Q255 589 228 599T176 609Q161 609 155 605T144 589Z" />
<glyph unicode="&#xf2;" horiz-adv-x="427" d="M208 -10Q149 -10 117 21T69 103Q59 138 55 180T51 269Q51 300 53 328T62 383T77 431Q95 476 130 502T223 528Q277 528 308 499T356 423Q367 390 371 350T376 264Q376 222 373 184T361 112Q351 75 332 48T283 5T208
-10ZM215 67Q244 67 258 87T277 141Q280 157 281 174T282 211T282 250Q282 286 281 319T275 379Q269 413 255 433T215 453Q200 453 189 446T170 426T157 395Q152 376 149 353T146 305T145 254Q145 235 145 216T147 179T151 145Q157 110 172 89T215 67ZM279 566Q266
573 253 579T226 592T198 605Q184 613 169 619T139 632T108 646L150 712Q168 699 189 685T230 658Q251 647 270 635T308 613L279 566Z" />
<glyph unicode="&#xf3;" horiz-adv-x="427" d="M208 -10Q149 -10 117 21T69 103Q59 138 55 180T51 269Q51 300 53 328T62 383T77 431Q95 476 130 502T223 528Q277 528 308 499T356 423Q367 390 371 350T376 264Q376 222 373 184T361 112Q351 75 332 48T283 5T208
-10ZM215 67Q244 67 258 87T277 141Q280 157 281 174T282 211T282 250Q282 286 281 319T275 379Q269 413 255 433T215 453Q200 453 189 446T170 426T157 395Q152 376 149 353T146 305T145 254Q145 235 145 216T147 179T151 145Q157 110 172 89T215 67ZM170 566L141
613Q153 620 165 627T191 643T218 658Q232 667 245 676T273 694T299 712L340 646Q325 639 310 633T280 620T250 605Q236 599 223 593T196 580T170 566Z" />
<glyph unicode="&#xf4;" horiz-adv-x="427" d="M208 -10Q149 -10 117 21T69 103Q59 138 55 180T51 269Q51 300 53 328T62 383T77 431Q95 476 130 502T223 528Q277 528 308 499T356 423Q367 390 371 350T376 264Q376 222 373 184T361 112Q351 75 332 48T283 5T208
-10ZM215 67Q244 67 258 87T277 141Q280 157 281 174T282 211T282 250Q282 286 281 319T275 379Q269 413 255 433T215 453Q200 453 189 446T170 426T157 395Q152 376 149 353T146 305T145 254Q145 235 145 216T147 179T151 145Q157 110 172 89T215 67ZM321 576L221
629L122 577L93 612L178 683L265 681L348 614L321 576Z" />
<glyph unicode="&#xf5;" horiz-adv-x="427" d="M208 -10Q149 -10 117 21T69 103Q59 138 55 180T51 269Q51 300 53 328T62 383T77 431Q95 476 130 502T223 528Q277 528 308 499T356 423Q367 390 371 350T376 264Q376 222 373 184T361 112Q351 75 332 48T283 5T208
-10ZM215 67Q244 67 258 87T277 141Q280 157 281 174T282 211T282 250Q282 286 281 319T275 379Q269 413 255 433T215 453Q200 453 189 446T170 426T157 395Q152 376 149 353T146 305T145 254Q145 235 145 216T147 179T151 145Q157 110 172 89T215 67ZM133 589H79Q79
618 91 635T122 659T161 666Q192 666 219 657T270 647Q285 647 293 651T304 666H357Q357 635 345 618T314 595T275 589Q244 589 217 599T165 609Q150 609 144 605T133 589Z" />
<glyph unicode="&#xf6;" horiz-adv-x="427" d="M208 -10Q149 -10 117 21T69 103Q59 138 55 180T51 269Q51 300 53 328T62 383T77 431Q95 476 130 502T223 528Q277 528 308 499T356 423Q367 390 371 350T376 264Q376 222 373 184T361 112Q351 75 332 48T283 5T208
-10ZM215 67Q244 67 258 87T277 141Q280 157 281 174T282 211T282 250Q282 286 281 319T275 379Q269 413 255 433T215 453Q200 453 189 446T170 426T157 395Q152 376 149 353T146 305T145 254Q145 235 145 216T147 179T151 145Q157 110 172 89T215 67ZM358 589L280
591L278 680L359 677L358 589ZM156 589L79 591L77 680L158 677L156 589Z" />
<glyph unicode="&#xf7;" horiz-adv-x="500" d="M73 251L75 330Q81 330 101 330T148 329T202 328T249 327Q269 327 297 327T352 328T400 330T426 331L424 252Q417 252 396 252T348 253T295 253T249 254Q231 254 204 254T150 253T101 252T73 251ZM252 91Q226 91
207 109T187 154Q187 179 203 194T243 210Q272 210 290 192T309 148Q309 126 294 109T252 91ZM252 375Q226 375 207 393T187 438Q187 463 203 478T243 494Q272 494 290 476T309 432Q309 410 293 393T252 375Z" />
<glyph unicode="&#xf8;" horiz-adv-x="427" d="M208 -10Q149 -10 117 21T69 103Q59 138 55 180T51 269Q51 300 53 328T62 383T77 431Q95 476 130 502T223 528Q277 528 308 499T356 423Q367 390 371 350T376 264Q376 222 373 184T361 112Q351 75 332 48T283 5T208
-10ZM215 67Q244 67 258 87T277 141Q280 157 281 174T282 211T282 250Q282 286 281 319T275 379Q269 413 255 433T215 453Q200 453 189 446T170 426T157 395Q153 380 151 364T147 330T145 293T145 254Q145 224 146 196T151 145Q157 110 172 89T215 67ZM143 -60L64
-35Q78 -4 98 44T140 148T182 258Q202 313 223 374T264 493T296 589L375 566Q359 529 339 483T300 389T264 300T237 231Q227 203 215 166T189 88T164 9T143 -60Z" />
<glyph unicode="&#xf9;" horiz-adv-x="422" d="M158 -10Q119 -10 97 9T65 63T56 148Q56 160 56 183T58 239T59 308Q60 343 61 374T62 433T63 483T64 520L158 526Q157 501 156 475T153 420T149 360T145 290Q144 266 143 245T142 205T141 171T141 145Q141 119 144
100T156 72T179 62Q198 62 215 76T246 118T268 190T277 292L315 297Q314 247 309 201T293 117T264 50T220 6T158 -10ZM284 0L276 108Q277 155 277 201T277 292Q277 318 277 348T276 410T275 472T274 528L369 526Q368 500 367 473T365 419T364 367T363 321T362 283Q363
256 363 225T365 162T367 99T368 43T369 0H284ZM275 566Q262 573 249 579T222 592T194 605Q180 613 165 619T135 632T104 646L146 712Q164 699 185 685T226 658Q247 647 266 635T304 613L275 566Z" />
<glyph unicode="&#xfa;" horiz-adv-x="422" d="M158 -10Q119 -10 97 9T65 63T56 148Q56 160 56 183T58 239T59 308Q60 343 61 374T62 433T63 483T64 520L158 526Q157 501 156 475T153 420T149 360T145 290Q144 266 143 245T142 205T141 171T141 145Q141 119 144
100T156 72T179 62Q198 62 215 76T246 118T268 190T277 292L315 297Q314 247 309 201T293 117T264 50T220 6T158 -10ZM284 0L276 108Q277 155 277 201T277 292Q277 318 277 348T276 410T275 472T274 528L369 526Q368 500 367 473T365 419T364 367T363 321T362 283Q363
256 363 225T365 162T367 99T368 43T369 0H284ZM165 566L136 613Q148 620 160 627T186 643T213 658Q227 667 240 676T268 694T294 712L335 646Q320 639 305 633T275 620T245 605Q231 599 218 593T191 580T165 566Z" />
<glyph unicode="&#xfb;" horiz-adv-x="422" d="M158 -10Q119 -10 97 9T65 63T56 148Q56 160 56 183T58 239T59 308Q60 343 61 374T62 433T63 483T64 520L158 526Q157 501 156 475T153 420T149 360T145 290Q144 266 143 245T142 205T141 171T141 145Q141 119 144
100T156 72T179 62Q198 62 215 76T246 118T268 190T277 292L315 297Q314 247 309 201T293 117T264 50T220 6T158 -10ZM284 0L276 108Q277 155 277 201T277 292Q277 318 277 348T276 410T275 472T274 528L369 526Q368 500 367 473T365 419T364 367T363 321T362 283Q363
256 363 225T365 162T367 99T368 43T369 0H284ZM316 576L216 629L117 577L88 612L173 683L260 681L343 614L316 576Z" />
<glyph unicode="&#xfc;" horiz-adv-x="422" d="M158 -10Q119 -10 97 9T65 63T56 148Q56 160 56 183T58 239T59 308Q60 343 61 374T62 433T63 483T64 520L158 526Q157 501 156 475T153 420T149 360T145 290Q144 266 143 245T142 205T141 171T141 145Q141 119 144
100T156 72T179 62Q198 62 215 76T246 118T268 190T277 292L315 297Q314 247 309 201T293 117T264 50T220 6T158 -10ZM284 0L276 108Q277 155 277 201T277 292Q277 318 277 348T276 410T275 472T274 528L369 526Q368 500 367 473T365 419T364 367T363 321T362 283Q363
256 363 225T365 162T367 99T368 43T369 0H284ZM353 589L275 591L273 680L354 677L353 589ZM151 589L74 591L72 680L153 677L151 589Z" />
<glyph unicode="&#xfd;" horiz-adv-x="398" d="M218 -154L119 -150Q130 -114 140 -78T161 -5T180 67T198 139T215 212T230 285Q239 331 246 366T259 438T273 521H375Q366 488 359 459T344 401T328 340T311 269Q301 225 291 181T272 93T253 7T235 -76T218 -154ZM169
-19Q162 8 155 35T139 90T123 148T107 208T89 270Q80 303 72 331T56 386T39 444T19 512L124 514Q135 464 142 429T156 362T173 291Q181 259 187 228T202 165T218 100T236 32L169 -19ZM148 605L119 652Q131 659 143 666T169 682T196 697Q210 706 223 715T251 733T277
751L318 685Q303 678 288 672T258 659T228 644Q214 638 201 632T174 619T148 605Z" />
<glyph unicode="&#xfe;" horiz-adv-x="443" d="M63 -154Q65 -116 66 -72T69 19T71 115T72 208Q72 234 72 268T72 343T71 426T70 516T69 608T66 697L163 700Q163 639 163 577T163 452Q172 471 186 488T221 515T267 525Q320 525 346 491T383 404Q389 373 391 336T393
259Q393 227 391 195T382 134T366 80Q349 38 320 13T245 -12Q225 -12 210 -7T184 9T165 31L168 -151L63 -154ZM164 217Q164 171 170 135T192 79T232 58Q253 58 266 74T287 117Q295 146 297 183T300 260Q300 292 300 320T297 372Q294 407 282 428T242 449Q216 449
199 425T174 362T164 275V217Z" />
<glyph unicode="&#xff;" horiz-adv-x="398" d="M218 -154L119 -150Q130 -114 140 -78T161 -5T180 67T198 139T215 212T230 285Q239 331 246 366T259 438T273 521H375Q366 488 359 459T344 401T328 340T311 269Q301 225 291 181T272 93T253 7T235 -76T218 -154ZM169
-19Q162 8 155 35T139 90T123 148T107 208T89 270Q80 303 72 331T56 386T39 444T19 512L124 514Q135 464 142 429T156 362T173 291Q181 259 187 228T202 165T218 100T236 32L169 -19ZM336 628L258 630L256 719L337 716L336 628ZM134 628L57 630L55 719L136 716L134
628Z" />
<glyph unicode="&#x2013;" horiz-adv-x="447" d="M60 251L66 329Q66 329 82 329T122 328T174 327T225 326Q248 326 275 326T327 327T368 328T384 329L387 251Q387 251 369 251T324 252T269 252T219 253Q197 253 170 253T117 252T76 252T60 251Z" />
<glyph unicode="&#x2014;" horiz-adv-x="771" d="M60 251L65 329Q65 329 84 329T136 329T206 328T281 328T349 327T394 326Q409 326 438 326T502 326T574 327T641 328T690 328T709 329L711 251Q711 251 692 251T640 251T570 252T496 252T430 253T387 253Q373 253
344 253T277 253T202 252T132 252T80 251T60 251Z" />
<glyph unicode="&#x2018;" horiz-adv-x="278" d="M91 497V614Q91 668 97 702T110 760L150 748Q143 723 138 697T129 642L184 639L186 494L91 497Z" />
<glyph unicode="&#x2019;" horiz-adv-x="278" d="M140 466L99 490Q121 522 128 550T137 609L93 612L91 744L186 751V619Q186 575 176 537T140 466Z" />
<glyph unicode="&#x201a;" horiz-adv-x="278" d="M167 -120L127 -107Q134 -82 139 -57T148 -2L93 2L91 147L186 144V26Q186 -26 181 -60T167 -120Z" />
<glyph unicode="&#x201c;" horiz-adv-x="431" d="M245 497V614Q245 668 251 702T264 760L305 748Q297 723 292 697T283 642L338 639L340 494L245 497ZM91 497V614Q91 668 97 702T110 760L151 748Q143 723 138 697T129 642L184 639L186 494L91 497Z" />
<glyph unicode="&#x201d;" horiz-adv-x="431" d="M167 488L127 500Q134 525 139 551T148 606L93 609L91 754L186 751V634Q186 582 181 548T167 488ZM321 488L281 500Q288 525 293 551T302 606L247 609L245 754L340 751V634Q340 582 335 548T321 488Z" />
<glyph unicode="&#x201e;" horiz-adv-x="432" d="M168 -120L127 -107Q135 -82 140 -57T148 -2L93 2L91 147L187 144V26Q187 -26 181 -60T168 -120ZM321 -120L281 -107Q289 -82 294 -57T302 -2L248 2L246 147L340 144V26Q340 -26 335 -60T321 -120Z" />
<glyph unicode="&#x2022;" horiz-adv-x="389" d="M193 189Q143 189 117 221T91 306Q91 358 119 388T200 418Q247 418 272 388T298 300Q298 251 271 220T193 189Z" />
<glyph unicode="&#x2039;" horiz-adv-x="471" d="M334 484L378 417Q369 413 348 401T301 372T247 339Q216 319 186 298T132 260T96 235L92 316Q101 322 120 334T163 361T210 394Q233 409 253 424T294 454T334 484ZM339 84Q325 95 306 108T264 135T215 165Q190
180 166 194T123 219T96 235L92 316Q101 311 119 300T161 275T208 247T255 220Q282 205 307 191T351 167T379 151L339 84Z" />
<glyph unicode="&#x203a;" horiz-adv-x="471" d="M379 251Q370 257 352 268T311 293T263 321T217 347Q183 367 150 385T92 417L132 484Q153 468 185 447T257 402Q287 384 319 366T376 332L379 251ZM138 84L94 150Q121 166 156 187T224 229Q264 254 304 282T376
332L379 251Q354 236 322 215T261 174Q228 151 198 129T138 84Z" />
</font>
</defs>
</svg>
